<?xml version="1.0" standalone="no"?>
<!DOCTYPE svg PUBLIC "-//W3C//DTD SVG 20010904//EN"
 "http://www.w3.org/TR/2001/REC-SVG-20010904/DTD/svg10.dtd">
<svg version="1.0" xmlns="http://www.w3.org/2000/svg"
 width="261.000000pt" height="261.000000pt" viewBox="0 0 261.000000 261.000000"
 preserveAspectRatio="xMidYMid meet">
<metadata>
Created by potrace 1.14, written by Peter Selinger 2001-2017
</metadata>
<g transform="translate(0.000000,261.000000) scale(0.100000,-0.100000)"
fill="#000000" stroke="none">
<path d="M285 2028 c-37 -13 -81 -53 -103 -93 -14 -27 -16 -103 -17 -697 l0
-668 658 0 c626 0 660 1 695 19 43 22 63 42 87 90 15 29 18 65 19 208 1 109
-3 173 -9 174 -5 0 -156 1 -334 1 -330 1 -348 -1 -335 -37 6 -14 -12 -62 -29
-79 -20 -21 -57 -37 -67 -31 -6 4 -10 137 -10 351 0 384 1 393 65 420 19 8 36
14 39 14 3 0 5 -109 5 -242 0 -134 0 -253 0 -265 l1 -23 335 0 335 0 1 23 c1
33 1 820 0 835 -1 16 -1289 16 -1336 0z"/>
<path d="M1730 1700 l0 -340 33 -1 c17 0 159 -1 315 -1 394 0 364 -30 366 370
1 158 0 293 -2 300 -3 9 -84 12 -358 12 l-354 0 0 -340z m410 42 c0 -159 -9
-190 -60 -217 -16 -8 -33 -15 -39 -15 -6 0 -9 73 -9 188 l1 188 53 -1 54 0 0
-143z"/>
<path d="M1730 910 l0 -340 321 0 321 0 34 34 c25 25 34 43 35 70 0 20 1 153
1 296 0 143 -1 265 -1 270 -1 6 -37 10 -86 10 l-85 0 -1 -37 c0 -21 -1 -119
-1 -218 0 -201 -7 -232 -61 -258 -17 -9 -35 -13 -39 -11 -4 3 -8 122 -8 265
l0 259 -70 0 -70 0 0 -221 c0 -190 -2 -225 -17 -250 -14 -24 -66 -59 -87 -59
-3 0 -6 119 -6 265 l0 265 -90 0 -90 0 0 -340z"/>
</g>
</svg>
