<?xml version="1.0" encoding="utf-8"?>
<!-- Generator: Adobe Illustrator 27.3.1, SVG Export Plug-In . SVG Version: 6.00 Build 0)  -->
<svg version="1.1" id="Layer_1" xmlns="http://www.w3.org/2000/svg" xmlns:xlink="http://www.w3.org/1999/xlink" x="0px" y="0px"
	 viewBox="0 0 266.2 70.1" style="enable-background:new 0 0 266.2 70.1;" xml:space="preserve">
<style type="text/css">
	.st0{fill:#FFFFFF;}
</style>
<g>
	<path class="st0" d="M29.3,0H0v70.1L29.3,0z"/>
	<path class="st0" d="M50,0h29.3v70.1L50,0z"/>
	<path class="st0" d="M39.6,25.9l18.7,44.3H46.1L40.5,56H26.8L39.6,25.9z"/>
</g>
<g>
	<path class="st0" d="M127.1,44.6l3.5,9.9c0.1,0.2,0.3,0.4,0.6,0.4h6.6c0.4,0,0.4-0.2,0.4-0.5l-13.7-38.2c-0.1-0.3-0.1-0.4-0.4-0.4
		h-8.3c-0.2,0-0.4,0.2-0.4,0.4c-0.1,2-0.3,2.6-0.5,3.2l-12.2,34.8c-0.1,0.4,0.1,0.6,0.4,0.6h5.9c0.4,0,0.5-0.1,0.7-0.5l3.3-9.8
		H127.1z M114.8,38.1c1.8-5.4,4.2-12.4,5.1-16.4h0.1c1.2,4.2,4,12.4,5.2,16.4H114.8z"/>
	<path class="st0" d="M155.8,55.5c3.6,0,7.4-0.6,11.2-2.3c0.3-0.1,0.4-0.2,0.4-0.5c-0.1-1.1-0.2-2.6-0.2-3.8V12.9
		c0-0.2,0-0.3-0.3-0.3h-6.5c-0.2,0-0.4,0.1-0.4,0.4v12.2c-1-0.1-1.7-0.2-2.6-0.2c-10.5,0-16.9,6.9-16.9,15.5
		C140.6,50.5,147.2,55.5,155.8,55.5z M160,48.8c-1.1,0.3-2.3,0.5-3.5,0.5c-4.7,0-8.6-2.7-8.6-9.2c0-5.8,4-9.2,9.3-9.2
		c1.1,0,2,0.1,2.8,0.4V48.8z"/>
	<path class="st0" d="M188.1,25c-8.9,0-14.4,6.8-14.4,15.3c0,7.5,4.4,15.2,14.3,15.2c8.4,0,14.3-6.2,14.3-15.4
		C202.2,31.9,197.2,25,188.1,25z M187.7,31c5,0,7.2,4.3,7.2,9.3c0,6.1-3.2,9.2-6.8,9.2c-4.5,0-7.2-3.8-7.2-9.3
		C180.9,34.5,183.7,31,187.7,31z"/>
	<path class="st0" d="M208.9,12.6c-0.2,0-0.4,0.1-0.4,0.4v40.7c0,0.2,0.2,0.5,0.4,0.5c2.8,0.9,5.8,1.3,8.9,1.3
		c8.8,0,17.4-5.5,17.4-16.5c0-8-5.5-14-14-14c-2,0-3.8,0.3-5.4,0.8L215.7,13c0-0.4-0.1-0.5-0.5-0.5H208.9z M227.9,39.7
		c0,6.6-4.5,9.7-9.4,9.7c-1,0-1.9-0.1-2.7-0.3V31.8c0.9-0.4,2.1-0.7,4.1-0.7C224.6,31.1,227.9,34.1,227.9,39.7z"/>
	<path class="st0" d="M259.4,41.9c2.9,0,5.3-0.1,6.1-0.2c0.3-0.1,0.4-0.2,0.5-0.4c0.2-0.6,0.2-2,0.2-3.7c0-5.7-3.4-12.6-12.2-12.6
		c-9,0-14,7.3-14,15.6c0,7.3,3.9,14.9,14.7,14.9c4.1,0,6.7-0.6,8.9-1.7c0.2-0.1,0.3-0.3,0.3-0.6v-4.9c0-0.3-0.2-0.3-0.3-0.2
		c-2.3,1-4.7,1.4-7.4,1.4c-6.1,0-8.8-3.3-9-7.5H259.4z M247.3,36.8c0.5-2.9,2.3-6.1,6.4-6.1c4.5,0,5.7,3.8,5.7,5.5
		c0,0.1,0,0.3,0,0.5c-0.2,0.1-1,0.1-3.3,0.1H247.3z"/>
</g>
</svg>
