<?xml version="1.0" encoding="utf-8"?>
<!-- Generator: Adobe Illustrator 27.3.1, SVG Export Plug-In . SVG Version: 6.00 Build 0)  -->
<svg version="1.1" id="Layer_1" xmlns="http://www.w3.org/2000/svg" xmlns:xlink="http://www.w3.org/1999/xlink" x="0px" y="0px"
	 viewBox="0 0 123 123" style="enable-background:new 0 0 123 123;" xml:space="preserve">
<style type="text/css">
	.st0{fill:#FFFFFF;}
</style>
<g transform="translate(0,317)">
	<path class="st0" d="M18.4-254c-1.1,0-1.1-0.6-0.7-1.1c0.4-0.5,8-8.6,8.3-9c0.5-0.6,1-0.6,1,0.2c0,0.9-0.1,8.4-0.1,8.9
		c0,0.6-0.3,1-1.3,1C24.6-254,18.4-254,18.4-254z"/>
	<path class="st0" d="M0-317v77c0.1,0,0.1,0,0.1,0c0.1,0,2-0.7,2.9-1.4c0.5-0.3,27.2-29.4,27.6-29.8c0.1-0.1,0.3-0.1,0.4,0
		c0.1,0.2-0.3,27.8-0.3,28.2c0,0.5,0.1,1.1,0.8,1.4c0.7,0.3,3.4,1.5,3.7,1.6l-0.1,0c0.1,0.1,0.1,0.2-0.2,0.2H20.1c0,0-0.2,0-0.1-0.1
		c0.2-0.1,5-1.6,5.3-1.8c0.7-0.2,0.9-0.4,1-1.5c0-1.1,0.3-7.6,0.3-8c0-0.4,0.1-1.2-1-1.3c-0.5,0-2.1-0.2-3.8-0.2c-2-0.1-4.2,0-4.5,0
		c-1.2,0-1.4,0.1-2.1,0.6c-0.5,0.4-7.7,9.2-8,9.7c-0.3,0.4-0.2,0.9,0.5,1.1c0.8,0.2,5.3,1.2,6.4,1.4c0.2,0,0.1,0.2-0.1,0.2h-14
		c0,0-0.1,0-0.2,0v45.9h123.1V-317H0z M52.2-268.9L52.2-268.9c-0.8,0.3-1,0.7-1.2,1.2c-0.1,0.4-5.8,24.2-5.9,24.6
		c-0.1,0.5-0.1,1,0.5,1.2c0.6,0.3,3.9,1.4,4.1,1.5c0.2,0.1,0.2,0.3-0.1,0.3H35.8c-0.2,0-0.4-0.1-0.2-0.2c0.3-0.1,3.3-1.2,3.6-1.4
		c0.3-0.1,1.1-0.4,1.3-1.1c0.1-0.5,5.9-24.4,6-24.8c0.1-0.6,0.1-1.2-0.6-1.4c-0.4-0.2-3.9-1.3-4-1.4c-0.2-0.1-0.2-0.2,0-0.2h14.5
		c0.2,0,0.3,0.1,0.1,0.2c-0.2,0-2.6,0.8-2.8,0.8C53.5-269.4,52.6-269.1,52.2-268.9z M80.1-241.9L80.1-241.9c-0.4,0.1-5.2,2-9.9,2.1
		c-12,0.3-16.4-8.1-14.4-15.7c1.1-4,3.7-7.8,7-10.4c1.9-1.5,7.6-5,15.1-5c1.4,0,5,0.2,7.6,0.9c1.3,0.3,1.1,1,1,1.6
		c-0.1,0.2-2.9,8.8-3,9c-0.1,0.3-0.4,0.3-0.4,0c0-0.2,0.4-7.7,0.3-8c0-0.8,0-1.3-0.9-1.5c-1.2-0.4-7.2-0.9-11.5,1.1
		c-7.3,3.4-11.6,11.3-10.7,17.5c0.7,5.2,4.8,9.4,11.4,9.6c2,0,3.6-0.3,4-0.4c0.6-0.2,0.7-0.4,0.9-0.8c0.1-0.4,1.2-5,1.3-5.2
		c0.1-0.2,0.3-0.9-0.3-1c-0.7-0.2-6.6-1.8-6.9-1.9c-0.3-0.1-0.2-0.2,0.1-0.2h11.1c0.5,0,1.6-0.1,1.3,1c-0.3,1.1-2,6.4-2.2,6.8
		C80.9-242.3,80.5-242.1,80.1-241.9z M117.2-239.8h-14.9c0,0-0.2,0-0.1-0.1c0.2-0.1,5-1.6,5.3-1.8c0.7-0.2,0.9-0.4,1-1.5
		c0-1.1,0.3-7.6,0.3-8c0-0.4,0.1-1.2-1-1.3c-0.5,0-2.1-0.2-3.8-0.2c-2-0.1-4.2,0-4.5,0c-1.2,0-1.4,0.1-2.1,0.6
		c-0.5,0.4-7.7,9.3-7.9,9.7c-0.3,0.4-0.2,0.9,0.6,1.1c0.8,0.2,5.3,1.2,6.4,1.4c0.1,0,0.1,0.2-0.1,0.2h-14c-0.1,0-0.1-0.2,0-0.2
		c0.1-0.1,2-0.7,2.9-1.5c0.5-0.3,27.2-29.4,27.6-29.8c0.1-0.1,0.3-0.1,0.4,0c0.1,0.2-0.3,27.8-0.3,28.2c0,0.5,0,1.1,0.8,1.4
		c0.7,0.3,3.4,1.5,3.7,1.6l-0.1,0C117.5-239.9,117.5-239.8,117.2-239.8z M108.2-264.1c-0.3,0.3-7.9,8.5-8.3,9
		c-0.4,0.4-0.5,1.1,0.7,1.1c0,0,6.3,0,7.3,0c1,0,1.3-0.3,1.3-1c0-0.4,0.1-8,0.1-8.9C109.2-264.7,108.7-264.7,108.2-264.1z"/>
</g>
</svg>
