<svg id="Layer_1" data-name="Layer 1" xmlns="http://www.w3.org/2000/svg" xmlns:xlink="http://www.w3.org/1999/xlink" viewBox="0 0 150 51.96"><defs><style>.cls-1{fill:none;}.cls-2{fill:#fff;}.cls-3{fill:#c0bfbf;}.cls-4{clip-path:url(#clip-path);}</style><clipPath id="clip-path"><rect class="cls-1" width="150" height="51.96"/></clipPath></defs><title>full-logo</title><polygon class="cls-2" points="30 43.3 45 51.96 60 43.3 45 34.64 30 43.3"/><polygon class="cls-2" points="45 0 0 25.98 15 34.64 60 8.66 45 0"/><polygon class="cls-3" points="60 8.66 60 43.3 45 34.64 45 17.32 60 8.66"/><g class="cls-4"><path class="cls-2" d="M90,19.72V16.15a7.5,7.5,0,1,0-15,0V35.79a7.5,7.5,0,0,0,15,0V32.22H85v3.57a2.5,2.5,0,1,1-5,0V16.15a2.5,2.5,0,1,1,5,0v3.57Z"/><path class="cls-2" d="M102.5,8.65a7.51,7.51,0,0,0-7.5,7.5V35.79a7.5,7.5,0,0,0,15,0V16.15a7.5,7.5,0,0,0-7.5-7.5M105,35.79a2.5,2.5,0,0,1-5,0V16.15a2.5,2.5,0,0,1,4.27-1.77,2.54,2.54,0,0,1,.73,1.77Z"/></g><polygon class="cls-2" points="135 9 135 42.95 150 42.95 150 37.95 140 37.95 140 28.47 147.25 28.47 147.25 23.47 140 23.47 140 14 150 14 150 9 135 9"/><g class="cls-4"><path class="cls-2" d="M125,35.45a2.5,2.5,0,0,1-2.49,2.5H120V14h2.51a2.49,2.49,0,0,1,2.49,2.5ZM122.51,9H115V43h7.51a7.49,7.49,0,0,0,7.49-7.5v-19A7.49,7.49,0,0,0,122.51,9"/></g></svg>