<?xml version="1.0" encoding="UTF-8"?><svg id="Layer_2" xmlns="http://www.w3.org/2000/svg" viewBox="0 0 464.65 373.49"><defs><style>.cls-1{fill:#fff;}</style></defs><path class="cls-1" d="m230.79,369.94c-.84.44-2.5.74-3.91.74-3.81,0-6.05-2.73-6.05-6.36s2.3-6.46,5.98-6.46c1.28,0,2.5.18,3.86.95l.26-3.01c-1.3-.51-2.86-.74-4.04-.74-6.05,0-9.78,3.42-9.78,9.53s4.01,8.92,9.78,8.92c1.35,0,2.76-.26,4.06-.56l-.15-2.99h0Zm30.26-3.65h-5.21l2.58-7.36h.05l2.58,7.36h0Zm-11.5,6.9h3.7l1.56-4.09h7.23l1.53,4.09h3.96l-7-17.83h-4.04l-6.95,17.83h0Zm39.31,0h3.58v-15.02h5.11v-2.81h-13.79v2.81h5.11v15.02h0Zm28.78,0h10.58v-2.81h-7v-5.01h6.36v-2.81h-6.36v-4.39h6.95v-2.81h-10.53v17.83h0Zm35.3-15.02h1.18c1.79,0,3.78.18,3.78,2.33s-2.02,2.48-3.78,2.48h-1.18v-4.8h0Zm-3.58,15.02h3.58v-7.41h1.15c1.51,0,1.97.51,2.48,1.84l2.15,5.57h3.99l-2.86-6.97c-.36-.79-.92-1.76-1.89-1.84v-.05c2.27-.31,3.68-2.04,3.68-4.14,0-4.96-4.57-4.83-8.41-4.83h-3.86v17.83h0Zm33.43,0h3.58v-17.83h-3.58v17.83h0Zm25.05,0h3.42v-13.34h.05l6.82,13.34h4.37v-17.83h-3.42v13.34h-.05l-6.79-13.34h-4.39v17.83h0Zm50.6-17.4c-1.53-.46-3.17-.74-5.24-.74-6.05,0-9.79,3.42-9.79,9.53s4.01,8.92,9.79,8.92c1.92,0,3.88-.41,5.77-.92v-9.61h-7.2v2.81h3.78v4.65c-.61.15-1.38.25-2.35.25-3.81,0-6.05-2.73-6.05-6.36s2.3-6.46,6.46-6.46c1.43,0,3.22.31,4.6.95l.23-3.01h0Z"/><path class="cls-1" d="m60.09,275.04c-4.81-.12-8.57-.2-11.27-.2s-6.45.08-11.27.2v-1.25l3.64-.59c1.84-.27,2.93-.82,3.29-1.57.39-.74.63-3.01.7-6.81,0-.59.04-2.35.16-5.28.08-2.23.12-4.07.12-5.52v-5.01H14.63v5.01c0,1.45.04,3.29.12,5.52.12,2.93.16,4.69.16,5.28.08,3.83.27,6.1.63,6.84.35.71,1.49,1.21,3.36,1.53l3.64.59v1.25c-4.81-.12-8.57-.2-11.27-.2s-6.45.08-11.27.2v-1.25l3.64-.59c1.84-.27,2.93-.82,3.29-1.57.39-.74.63-3.01.7-6.81,0-.59.04-2.35.16-5.28.08-2.23.12-4.07.12-5.52v-10.01c0-2.9-.04-5.99-.08-9.23-.08-3.83-.31-6.1-.66-6.85-.35-.74-1.49-1.25-3.36-1.53l-3.79-.59v-1.25c4.81.12,8.57.2,11.27.2s6.45-.08,11.27-.2v1.25l-3.8.59c-1.92.27-3.05.78-3.4,1.53-.35.7-.55,2.97-.63,6.85-.04,3.25-.08,6.34-.08,9.23v1.88h30.83v-1.88c0-2.9-.04-5.99-.08-9.23-.08-3.83-.31-6.1-.66-6.85-.35-.74-1.49-1.25-3.36-1.53l-3.79-.59v-1.25c4.81.12,8.57.2,11.27.2s6.46-.08,11.27-.2v1.25l-3.79.59c-1.92.27-3.05.78-3.4,1.53-.35.7-.55,2.97-.63,6.85-.04,3.25-.08,6.34-.08,9.23v10.01c0,1.45.04,3.29.12,5.52.12,2.93.16,4.69.16,5.28.08,3.83.27,6.1.63,6.84.35.71,1.49,1.21,3.36,1.53l3.64.59v1.25h0Zm61.83,0c-4.38-.12-7.9-.2-10.52-.2-2.35,0-5.98.08-10.91.2v-1.25l3.76-.59c.82-.12,1.25-.7,1.25-1.76s-.67-3.25-1.96-6.65c-1.29-3.44-2.54-6.57-3.68-9.39l-.94-2.31h-18.66l-.94,2.31c-1.13,2.82-2.39,5.95-3.72,9.39-1.29,3.44-1.96,5.59-1.96,6.49,0,1.14.55,1.76,1.64,1.92l4.11.59v1.25c-4.38-.12-7.59-.2-9.66-.2-2.46,0-5.52.08-9.11.2v-1.25l3.09-.59c3.56-.67,7.79-7,12.6-18.93l3.72-9.27c.98-2.35,2.39-5.75,4.15-10.21,1.1-2.86,1.64-4.89,1.64-6.02,0-1.21-.82-2-2.5-2.35l-2.7-.59v-1.25c3.01.12,5.4.2,7.12.2,1.84,0,4.34-.08,7.43-.2,1.13,3.25,3.56,9.58,7.2,19.01l3.72,9.31c1.17,2.7,2.89,6.65,5.12,11.89,2.27,5.24,4.62,8.06,7,8.41l3.72.59v1.25h0Zm-24.02-24.45l-1.8-4.46c-1.45-3.56-3.64-8.68-6.57-15.33-.63,1.37-2.78,6.45-6.41,15.26l-1.84,4.54h16.63Zm124.76,35.91c0,2.78-2.03,5.67-6.1,8.68-4.58,3.4-9.66,5.09-15.26,5.09-7.59,0-14.94-2.27-22.1-6.85-5.91-3.79-12.36-9.62-19.36-17.56-2.97-3.36-9.43-11.34-19.4-23.9l-3.52-.24v2.31c0,1.45.04,3.29.12,5.52.12,2.93.16,4.69.16,5.28.08,3.83.27,6.1.63,6.84.35.71,1.49,1.21,3.36,1.53l3.64.59v1.25c-4.81-.12-8.57-.2-11.27-.2s-6.61.08-11.66.2v-1.25l4.03-.59c1.84-.27,2.93-.78,3.29-1.53.39-.74.63-3.05.7-6.84,0-.59.04-2.35.16-5.28.08-2.23.12-4.07.12-5.52v-10.01c0-2.9-.04-5.99-.08-9.23-.08-3.83-.31-6.1-.66-6.85-.35-.74-1.49-1.25-3.37-1.53l-3.79-.59v-1.25c4.81.12,8.57.2,11.27.2.98,0,2.58-.04,4.73-.12,2.15-.08,3.79-.12,4.93-.12,5.32,0,9.27.74,11.81,2.19,3.48,2,5.2,5.59,5.2,10.72,0,2.93-1.29,5.83-3.87,8.61-2.46,2.62-5.01,4.19-7.67,4.66,10.48,14.04,19.25,24.41,26.33,31.1,10.52,9.9,20.11,14.87,28.67,14.87,4.42,0,8.41-1.09,11.97-3.33,3.56-2.19,5.36-4.69,5.36-7.47l1.64.63h0Zm-70.37-48.51c0-4.34-1.06-7.36-3.17-9.12-1.92-1.57-5.12-2.35-9.62-2.35-1.41,0-2.19.47-2.35,1.45-.04,2.27-.12,4.54-.16,6.81-.04,3.25-.08,6.34-.08,9.23v6.34c10.25,0,15.37-4.11,15.37-12.36h0Zm65.79-12.17l-3.76.59c-1.96.31-3.52,1.09-4.73,2.39-1.06,1.13-2.23,3.13-3.48,5.99-1.41,3.25-2.66,6.3-3.76,9.07l-12.21,31.65h-2.19l-11.58-30.24c-1.17-3.01-2.66-6.53-4.42-10.48-2.15-4.89-4.77-7.71-7.82-8.37l-2.62-.59v-1.25c4.3.12,7.67.2,10.13.2,3.01,0,7.12-.08,12.4-.2v1.25l-3.64.59c-1.99.31-3.01.94-3.01,1.88,0,.86.67,3.01,2,6.49,1.13,2.93,2.19,5.59,3.21,7.98l8.49,20.07,8.53-20.07c1.37-3.25,2.47-5.91,3.21-7.98,1.25-3.4,1.88-5.48,1.88-6.26,0-.74-.35-1.21-1.02-1.49-.51-.2-1.6-.43-3.29-.62l-4.85-.59v-1.25c5.28.12,9.47.2,12.48.2,2.42,0,5.79-.08,10.05-.2v1.25h0Zm40.61,36.81l-1.72,12.36c-.82-.12-10.52-.16-29.1-.16-2.7,0-6.45.08-11.27.2v-1.25l3.64-.59c1.84-.27,2.93-.82,3.29-1.57.39-.74.63-3.01.7-6.81,0-.59.04-2.35.16-5.28.08-2.23.12-4.07.12-5.52v-10.01c0-2.9-.04-5.99-.08-9.23-.08-3.83-.31-6.1-.67-6.85-.35-.74-1.49-1.25-3.36-1.53l-3.79-.59v-1.25c4.81.12,8.57.2,11.27.2,6.69,0,15.88-.12,27.58-.35l1.21.35-2.89,10.01-1.21-.35.55-3.25c.19-1.21-.98-2.15-3.6-2.82-2.15-.55-4.77-.82-7.86-.82-2.35,0-5.59.12-9.74.35-.31.74-.51,3.05-.59,6.88-.04,3.25-.08,6.34-.08,9.23v3.29h9.78c2.89,0,4.62-.12,5.2-.35.59-.24,1.02-.94,1.29-2.15l.59-2.5h1.25c-.12,2.66-.2,4.73-.2,6.26s.08,3.6.2,6.26h-1.25l-.59-2.5c-.27-1.21-.7-1.92-1.21-2.15-.59-.23-2.35-.35-5.28-.35h-9.78v4.22c0-.67.08,2.93.27,10.8.08,3.32.59,5.28,1.49,5.95.94.63,3.83.94,8.65.94,3.64,0,6.3-.16,7.94-.47,3.29-.67,5.32-2,6.06-3.99l1.84-4.81,1.21.2h0Zm33.26-1.99c0,5.24-1.72,9.11-5.12,11.66-2.86,2.15-6.65,3.21-11.38,3.21-4.34,0-8.76-1.06-13.34-3.17l1.41-9.94,1.41.27c-.04.35-.08.74-.08,1.1,0,2.74,1.37,5.01,4.15,6.85,2.39,1.56,4.97,2.35,7.71,2.35s4.81-1.02,6.26-3.01c1.25-1.76,1.88-3.99,1.88-6.73,0-3.33-1.76-6.57-5.24-9.7-3.25-2.46-6.53-4.97-9.78-7.47-3.52-2.86-5.28-5.63-5.28-8.33,0-4.03,1.49-7.35,4.5-9.97,2.93-2.58,6.53-3.87,10.84-3.87,3.09,0,6.41.7,10.05,2.11l-2.66,9.7-1.17-.35.2-1.64c.04-.23.04-.47.04-.7,0-1.92-.86-3.48-2.54-4.77-1.68-1.29-3.6-1.92-5.83-1.92-4.19,0-6.26,2.7-6.26,8.1,0,2.85,1.76,5.75,5.24,8.68,3.25,2.5,6.53,5.01,9.78,7.55,3.48,3.17,5.24,6.53,5.24,10.01h0Zm51.04-36.26l-2.78,10.02-1.21-.35.2-1.96c.16-1.92-1.6-3.21-5.32-3.83-2.27-.35-6.42-.55-12.4-.55-.12.98-.24,3.33-.39,7.08-.04,3.25-.08,6.34-.08,9.23v10.01c0,1.45.04,3.29.12,5.52.08,2.93.12,4.69.16,5.28.08,3.83.27,6.1.62,6.84.35.71,1.49,1.21,3.37,1.53l3.64.59v1.25c-4.81-.12-8.57-.2-11.27-.2s-6.46.08-11.27.2v-1.25l3.64-.59c1.84-.27,2.93-.82,3.29-1.57.39-.74.63-3.01.71-6.81,0-.59.04-2.35.16-5.28.08-2.23.12-4.07.12-5.52v-10.01c0-2.9-.04-5.99-.12-9.23-.04-2.58-.2-4.97-.39-7.12-5.83,0-9.9.16-12.21.51-3.68.55-6.1,1.72-7.32,3.52l-1.33,1.96-1.06-.67,4.93-9.46,1.29-.12c3.56.9,10.21,1.37,19.87,1.37s17.6-.24,23.82-.74l1.21.35h0Z"/><path class="cls-1" d="m287.02,336.51c-4.81-.12-8.57-.2-11.3-.2s-6.45.08-11.23.2v-1.25l3.52-.59c1.41-.24,2.27-.47,2.54-.66.51-.35.74-1.14.74-2.27,0-.82-.16-2.66-.47-5.44-.43-3.6-.82-6.96-1.21-10.05l-1.25-9.94c-.43-3.72-1.02-7.63-1.72-11.81-1.25,2.58-2.78,6.18-4.58,10.84l-3.6,9.35c-2.23,5.79-5.09,12.99-8.61,21.63h-2.19c-1.45-3.64-4.11-10.37-7.98-20.22l-3.6-9.35c-1.8-4.62-3.44-8.49-4.93-11.66-.62,3.8-1.13,7.35-1.56,10.68l-2.54,20.54c-.27,2.39-.43,4.07-.43,5.05,0,1.33.27,2.19.82,2.58.35.27,1.25.51,2.74.74l3.68.59v1.25c-4.26-.12-7.63-.2-10.05-.2-2.03,0-4.85.08-8.41.2v-1.25l2.78-.59c1.76-.35,2.89-.98,3.48-1.88.59-.9,1.13-3.09,1.68-6.49l3.29-20.93c.47-2.85.9-5.91,1.25-9.11.16-1.25.23-2.27.23-3.05,0-2.93-1.41-4.69-4.26-5.32l-2.62-.59v-1.25c3.79.12,6.88.19,9.35.19.78,0,2.42-.08,4.97-.19,0,.63,1.17,4.03,3.56,10.21,1.13,2.93,2.19,5.59,3.21,7.98l8.49,20.07,8.53-20.07c1.37-3.25,2.46-5.91,3.21-7.98,2.19-5.91,3.29-9.31,3.29-10.21,2.07.12,3.48.19,4.26.19,2.43,0,5.01-.08,7.71-.19v1.25l-2.19.59c-1.37.35-2.03,2.19-2.03,5.48,0,.98.08,1.92.23,2.89.23,1.96.67,5.01,1.25,9.11l3.29,20.93c.55,3.4,1.1,5.59,1.68,6.53.59.94,1.76,1.57,3.52,1.84l3.48.59v1.25h0Zm50.18-25.19c0,7.04-2.58,13.07-7.71,18.11-5.12,5.05-11.27,7.55-18.39,7.55s-13.22-2.5-18.35-7.55c-5.12-5.05-7.71-11.07-7.71-18.15s2.58-13.07,7.71-18.11c5.16-5.05,11.31-7.55,18.39-7.55s13.22,2.5,18.35,7.55c5.12,5.05,7.71,11.07,7.71,18.15h0Zm-7.16,2.38c0-6.1-1.96-11.73-5.87-16.86-4.26-5.59-9.35-8.37-15.33-8.37-5.05,0-9.15,2.11-12.36,6.3-2.93,3.87-4.38,8.37-4.38,13.5,0,6.14,1.96,11.78,5.87,16.9,4.26,5.55,9.35,8.33,15.33,8.33,5.05,0,9.15-2.11,12.36-6.3,2.93-3.83,4.38-8.33,4.38-13.5h0Zm65.78-2.38c0,7.04-2.58,13.07-7.71,18.11-5.12,5.05-11.27,7.55-18.39,7.55s-13.22-2.5-18.35-7.55c-5.12-5.05-7.71-11.07-7.71-18.15s2.58-13.07,7.71-18.11c5.16-5.05,11.3-7.55,18.39-7.55s13.22,2.5,18.35,7.55c5.12,5.05,7.71,11.07,7.71,18.15h0Zm-7.16,2.38c0-6.1-1.96-11.73-5.87-16.86-4.26-5.59-9.35-8.37-15.33-8.37-5.05,0-9.15,2.11-12.36,6.3-2.93,3.87-4.38,8.37-4.38,13.5,0,6.14,1.96,11.78,5.87,16.9,4.26,5.55,9.35,8.33,15.33,8.33,5.05,0,9.15-2.11,12.36-6.3,2.93-3.83,4.38-8.33,4.38-13.5h0Zm75.99-26.4l-4.07.59c-1.96.27-3.13.82-3.48,1.57-.35.74-.59,3.01-.66,6.81-.12,6.69-.2,9.78-.2,9.23l.04,10.02c0,5.05.08,11.97.27,20.81l-3.68.63c-4.69-5.28-11.7-12.95-20.97-23.08l-6.85-7.32c-2.82-3.01-6.14-6.42-9.94-10.17-.04,1.06-.04,2.5,0,4.38.04,2.39.04,3.95.04,4.73v10.02c0,7.55.16,12.05.43,13.5.63,3.4,2.39,5.28,5.32,5.67l4.5.59v1.25c-5.12-.12-9.15-.2-12.09-.2-2.54,0-6.02.08-10.44.2v-1.25l4.3-.59c2.27-.31,3.68-2.15,4.22-5.55.27-1.76.43-6.3.47-13.61l.04-10.02c0-1.6-.12-4.69-.31-9.23-.2-4.89-2.66-7.67-7.31-8.37l-3.83-.59v-1.25c4.54.12,8.18.19,10.87.19.9,0,2.31-.08,4.15-.19,2.46,2.89,7.28,8.17,14.43,15.8l7.08,7.12c3.33,3.36,8.57,8.68,15.73,16,0-2.07,0-5.24.04-9.47l.08-10.02c0-1.29-.04-2.85-.08-4.77-.08-2.62-.12-4.11-.16-4.46-.08-3.87-.35-6.22-.86-6.96-.43-.67-1.92-1.13-4.46-1.41l-5.16-.59v-1.25c5.24.12,9.35.19,12.32.19,2.46,0,5.87-.08,10.21-.19v1.25h0Z"/><path class="cls-1" d="m270.03,110.08c0,.98,0,1.24,0,2.26.34-.48.35-1.81,0-2.26Z"/><path class="cls-1" d="m250.47,176.4c.05-.23.09-.18.04-.28-.03,0-.05.01-.08.02-.03.09-.06.18-.09.27h.12Z"/><path class="cls-1" d="m274.29,129.64c-.08-.22-.02-.12-.12-.25v.25h.12Z"/><path class="cls-1" d="m267.73,81.51c-.15.21-.29.42-.43.64.19-.02.39-.04.58-.06-.02-.21-.06-.41-.15-.58Z"/><path class="cls-1" d="m270.16,115.47v.37h.13c-.05-.26-.03-.24-.13-.37Z"/><path class="cls-1" d="m269.66,81.87s.01.03.02.04c.03,0,.06,0,.09,0-.04-.01-.08-.03-.11-.04Z"/><path class="cls-1" d="m259.93,176.07c.14-.56.1-.98.57-1.3v-.12c-.13.02-.25.06-.36.1-1.39,2.58-2.63,5.17-3.73,7.72.93-1.84,2.1-4.01,3.52-6.4Z"/><path class="cls-1" d="m271.26,152.37c.08-.11.15-.22.23-.33-.11.02-.22.03-.33.05.04.09.07.19.11.29Z"/><path class="cls-1" d="m258.87,172.51c.47-.52.41-1.22,1-1.63.2-.14.4-.26.61-.37-1.06.51-2.11,1.03-3.15,1.57-.2.6-.4,1.21-.61,1.82.1-.01.2-.03.29-.04.12-.16.23-.37.36-.47.45-.32,1.14-.47,1.5-.88Z"/><path class="cls-1" d="m273.54,137.79v.13h.25c.08-.17.17-.34.25-.5h-.25c-.11.3-.05.21-.25.38Z"/><path class="cls-1" d="m273.54,112.33v.25h.13c-.08-.22-.03-.12-.13-.25Z"/><path class="cls-1" d="m273.67,112.08c.01-.63.02-1.17-.25-1.5-.12.31-.22.95,0,1.25v.25h.25Z"/><path class="cls-1" d="m279.06,119.1c.15-.4.38-1.26.13-1.63-.11.4-.25.64-.5.87.01.32.02.47.13.63.13.1.03.04.25.12Z"/><path class="cls-1" d="m274.04,116.22h-.25c-.05.26-.03.24-.12.38v.5h.12c.08-.29.17-.58.25-.88Z"/><path class="cls-1" d="m272.79,111.58c.19-.26.19-1.12,0-1.38-.07.58-.04.76,0,1.38Z"/><path class="cls-1" d="m272.29,115.84c-.04.54-.08,1.09-.13,1.63.24-.28.42-1.23.13-1.63Z"/><path class="cls-1" d="m274.67,112.08v-.25h-.25v.25h.25Z"/><path class="cls-1" d="m279.31,109.7c.14-.22.15-.41,0-.63v.63Z"/><path class="cls-1" d="m279.31,98.54v.25h.13c-.08-.22-.02-.12-.13-.25Z"/><path class="cls-1" d="m273.79,130.26h.25c.06-.35.15-.36,0-.63-.07.16-.15.38-.25.5v.13Z"/><path class="cls-1" d="m275.67,112.08c.04.54.08,1.09.13,1.63.4-.07.36-.11.63-.25.02-.63,0-1.16-.12-1.38-.12-.08-.24-.01-.63,0Z"/><path class="cls-1" d="m264.39,145.31v.12c.63-.8,1.78-3.13,2.63-3.13.04-.4.11-.4,0-.63-.62.62-1.64,1.03-2.13,1.76-.29.43-.3,1.01-.63,1.38.03.29.02.35.12.5Z"/><path class="cls-1" d="m260.75,171.13h-.25c-.52.86-.81,1.77-1.46,2.46.12-.02.24-.03.37-.04.65-.58,1.02-1.64,1.35-2.42Z"/><path class="cls-1" d="m264.64,146.69v.5h.25c.09-.44.22-.85.62-1.25-.11-.4.07-.19-.25-.38-.12.38-.35.9-.63,1.13Z"/><path class="cls-1" d="m250.1,176.53c-.2.37-.15.63-.5,1v.12c.29-.09.28-.13.5-.25.02-.45.1-.68,0-.88Z"/><path class="cls-1" d="m272.29,145.31h.13c-.08-.22-.03-.12-.13-.25v.25Z"/><path class="cls-1" d="m273.04,147.31v-.37h-.13c-.21.34-.94,1.08-1.25,1.38v.13h-.12c.04-.47.11-.57.25-.88h-.13c-.17-.09-.16-.04-.38.12h-.12c.31-.74.6-1.6,1.13-2.13-.17-.3.06-.09-.25-.25-.31.83-1.05.76-1.38,1.25-.37.55-.25,1.23-.5,1.88-.16.41-.41.94-.69,1.44,0,0,.02.01.03.02.47-.07.93-.13,1.39-.2.71-.84,1.35-1.78,2.16-2.39Z"/><path class="cls-1" d="m268.4,140.04c.14-.29.29-.54.5-.75-.13-.09-.11-.08-.38-.13-.16.3-.23.36-.25.88h.12Z"/><path class="cls-1" d="m271.03,143.68c-.31-.18-.15.03-.25-.38-.63.34-1.14,1.17-1.5,1.76h-.13c.04-1.2.8-2.68,1.62-3.86-.11-.16-.23-.31-.34-.47-.63.66-1.19,1.32-1.53,1.32-.17.8-.22,1.55,0,2.13-.75.7-1.98,2.57-2.73,4.29.61.1,1.2.27,1.77.51.23-.09.41-.07.58-.29,1.24-1.6,2.41-3.54,3.83-5.14-.17-.28-.35-.56-.53-.83-.32.23-.64.42-.79.95Z"/><path class="cls-1" d="m279.18,98.17c.14-.22.15-.41,0-.63v.63Z"/><path class="cls-1" d="m267.26,132.3c.16-.14.25-.34.32-.56-.07,0-.15,0-.22,0-.02.15-.05.3-.18.49.03.03.06.06.08.08Z"/><path class="cls-1" d="m265.02,139.04v1h.12c.14-.34.29-1.22.62-1.76.17-.17.34-.33.5-.5.27-.64.05-1.14.16-1.59-.08-.08-.17-.16-.26-.25-.32.57-.71,1.17-.9,1.71-.17.49-.02,1-.25,1.38Z"/><path class="cls-1" d="m270.04,153.68c-.14-.11-.27-.2-.4-.29-.07.11-.15.21-.24.31-.2.22-.5.2-.75.38-.3.21-.4.58-.62.88-.35.47-.91.77-1.38,1.13-.11.08-.2.18-.29.28.03.39.11.78.27,1.14.29-.3.59-.59.9-.91.86-.9,1.78-1.83,2.63-2.82-.04-.03-.07-.05-.11-.08Z"/><path class="cls-1" d="m242.55,176.75c.67-.18,1.36-.36,2.05-.52,1.54-.96,3.12-1.91,4.73-2.84.66-.65,1.31-1.32,2.04-1.91-.17-.14-.34-.28-.51-.44-4.01,1.13-7.94,2.4-11.77,3.8.08.16.17.31.26.47,1.11.37,2.18.85,3.19,1.44Z"/><path class="cls-1" d="m236.89,180.1c.54-.03,1.11-.03,1.69.02.51-.35,1.03-.69,1.56-1.04-.08-.11-.16-.21-.24-.32-.98.29-1.95.59-2.92.91-.05.13-.08.28-.09.43Z"/><path class="cls-1" d="m248.3,154.74c-.16-.09-.32-.19-.47-.28-.61.15-1.1.51-1.42.87.63-.2,1.26-.4,1.89-.59Z"/><path class="cls-1" d="m248.22,180.54c-.07.19-.09.21-.13.5h.13c.05-.35.12-.26,0-.5Z"/><path class="cls-1" d="m262.69,141.37c.28-.3.58-.56.82-.71-.18-.31.03-.15-.37-.25-.15-1.28.1-3.25.75-4.51.13-.26.53-.52.62-.88.06-.22.03-.35-.01-.49-.26-.1-.51-.2-.77-.29-.26.91-.49,1.88-.96,2.28,0,1.59-.02,3.2-.08,4.85Z"/><path class="cls-1" d="m265.3,129.13c.12.01.24.03.35.04.37-1.18.76-3.02.49-3.42-.29.62-.57,1.56-.75,2.26-.1.38-.07.77-.09,1.12Z"/><path class="cls-1" d="m247.22,150.22c.36.15.72.3,1.07.46,2.74-1.04,6.29-.22,8.88,1.65.68-.16,1.35-.32,2.03-.47,0-.03,0-.05,0-.08-.05-.18-.06-.39.05-.7,0,0,.02-.03.05-.08.18-1.42.35-2.83.49-4.22-.46.48-1,.89-1.59,1.26-.03.05-.05.1-.08.15h-.16c-2.92,1.72-7.07,2.25-10.74,2.03Z"/><path class="cls-1" d="m265.64,119.98v.25h.12c-.08-.22-.02-.12-.12-.25Z"/><path class="cls-1" d="m271.66,136.45v-.04h-.04s.03.03.04.04Z"/><path class="cls-1" d="m269.91,132.64s.08-.08.12-.13c.03-.02.1-.19.2-.43-.11-.02-.22-.03-.33-.04v.6Z"/><path class="cls-1" d="m275.05,135.4v.13c.21-.08.12-.02.25-.13.44-.22,1.05-1.23.88-1.63-.33.52-.72,1.14-1.13,1.63Z"/><path class="cls-1" d="m257.12,52.41c.13.1.03.05.25.12v-.12h-.25Z"/><path class="cls-1" d="m257.49,51.03c0-.06-.02-.1-.03-.14-.03,0-.07.02-.1.03v.12h.12Z"/><path class="cls-1" d="m257.49,52.78c-.08-.22-.02-.12-.12-.25v.25h.12Z"/><path class="cls-1" d="m213.54,79.85c14.48-7.08,30.87-10.48,47.77-10.09-.54-1.26-.91-2.47-1.56-3.69-.15-.29-.58-.6-.75-.88-.56-.91-.78-1.92-1.38-2.76-.25-.25-.5-.5-.75-.75-.96-1.54-.53-3.56-1.5-5.14-.89-1.43-1.74-2.83-2.59-4.25-.96.32-1.88.65-2.74.99-14.44,5.57-26.59,14.75-36.49,26.57Z"/><path class="cls-1" d="m272.47,172.77h.08s0,0,0,0c-.01,0-.04,0-.07,0Z"/><path class="cls-1" d="m251.31,187.14l-.16.33c.54.04,1.08.08,1.61.12-.49-.13-.97-.28-1.45-.45Z"/><path class="cls-1" d="m275.17,139.54c-.17.08-.33.17-.5.25-.12-.38.05-.47-.25-.75-.03.1-.08.21-.13.33.29.38.56.78.82,1.19.02-.05.03-.1.06-.13v-.88Z"/><path class="cls-1" d="m249.8,184.89c.71-1.58,1.38-3.16,2.01-4.73-.23.17-.47.34-.71.5v.62c-.25.45-1.06.67-1.38,1.13h-.38c-.07-.4-.11-.37-.25-.63-.41.09-.65.31-.82.59.44.73.84,1.51,1.2,2.35.11.05.22.1.33.16Z"/><path class="cls-1" d="m265.42,86.53c.71.11,1.42.23,2.12.36-.05-.28-.12-.54-.27-.75v-.11c-.58.04-1.17.09-1.74.14-.04.12-.07.24-.11.36Z"/><path class="cls-1" d="m203.63,115.32c1.04.82,2.05,1.67,3.03,2.55,4.75-4.66,10.04-8.77,15.56-11.76.72-.39,1.49-.78,2.29-1.17,1.49-1.49,3.03-2.96,4.59-4.4,3.08-2.82,6.33-5.33,9.69-7.54-13.07,3.73-25.41,11.28-35.15,22.32Z"/><path class="cls-1" d="m198.7,121.54c.09,1.36.16,2.73.19,4.11.37-.16.74-.31,1.1-.46,1.8-2.2,3.72-4.35,5.75-6.4-.95-.86-1.94-1.69-2.96-2.48-1.42,1.67-2.78,3.42-4.09,5.24Z"/><path class="cls-1" d="m197.35,123.49c-.63.94-1.24,1.9-1.84,2.87.05.24.08.48.11.72.57-.26,1.14-.52,1.72-.77.12-.05.23-.1.35-.15-.03-1-.07-2-.13-3-.08.11-.15.22-.22.33Z"/><path class="cls-1" d="m198.16,116.29c.51-.74,1.04-1.47,1.58-2.19-.7-.46-1.41-.91-2.14-1.34.22,1.17.4,2.35.56,3.53Z"/><path class="cls-1" d="m193.68,136.69c-1.15,1.82-2.21,3.68-3.19,5.59.72.18,1.42.49,2.08.88.72-1.23,1.48-2.44,2.26-3.63.03-.52.06-1.05.08-1.59-.48-.33-.89-.76-1.23-1.25Z"/><path class="cls-1" d="m267.89,100.24c.05.05.11.09.16.14.03-.08.06-.15.09-.21.28-.44.1-1.31-.12-1.63-.12.03-.06-.04-.13.12-.42-.54-.18-1.31-.38-2.13-.34-1.46-.81-3.93-.79-5.6-.63-.09-1.27-.18-1.91-.25-.11,3.82.98,7.45,3.07,9.55Z"/><path class="cls-1" d="m194.53,144.69c.23.23.45.47.65.72.44-.84.89-1.67,1.35-2.51.19-1.21.37-2.42.52-3.63-.67.94-1.3,1.89-1.93,2.85-.18.87-.37,1.73-.59,2.57Z"/><path class="cls-1" d="m256.08,98.27c.67,1.78,1.59,4.43,2.53,7.82,2.72-2.71,2.69-9.18,2.51-9.2-.89,1.57-3.3,2.62-5.04,1.37Z"/><path class="cls-1" d="m260.56,114.05c1.74.56,3.44,1.23,5.11,2,0-.11-.01-.22-.02-.33.32-1.52.17-3.26.5-4.76.32-1.42-.39-2.34.5-3.26.14-.09.12-.08.38-.12-.04.88-.56,2.46-.12,3.13.05.45-.07.33.25.38v2.63c.12.5.39,1.67.25,2.26-.08.33-.13.59-.17.84.1.05.21.11.31.16.1-1.21-.04-2.71.36-3.38-.03-.56.07-.47-.25-.5-.01-1.15-.18-4.08.25-4.76v-.63s.08.08.13.13c.13-.07.27-.24.37-.44-2.17-1.14-3.85-3.32-4.94-6.04-.31,4.68-1.13,9.35-2.9,12.71Z"/><path class="cls-1" d="m247.41,91.11c-6.08,2.85-11.94,6.77-17.55,11.62,9.31-3.26,20.69-4.27,26.15,4.05.11.16.21.33.31.5.26-.05.52-.13.78-.21.25-.09.48-.2.7-.33-.77-3.88-1.54-6.87-2.07-8.76-.86-.83-1.49-2.31-1.59-4.72-.1-2.51,1.3-1.87,2.45-1.18,1.94,1.17,3.45.02,4.56-1.68h-.01c-4.56-.23-9.17.01-13.73.72Z"/><path class="cls-1" d="m226.76,186.35c-.05-1.08.1-2.1.39-3.05-2.09.88-4.13,1.81-6.1,2.8.12.04.24.09.35.15,1.79.03,3.58.06,5.36.11Z"/><path class="cls-1" d="m273.42,96.16h.12s.08-.08.13-.12c-.03-.52-.13-1.05-.38-1.38,0,.39-.02.79.12,1v.5Z"/><path class="cls-1" d="m269.78,100.17c-.07-1.1-.06-3.27-.63-4.01,0,1.09-.01,3.16.5,3.89v.12h.12Z"/><path class="cls-1" d="m268.15,94.66c.12-.03.06.04.13-.12.48.1.35.14.63.38v.13h.12c-.02-1.33-.21-2.6-.47-3.8-.48-.08-.95-.17-1.43-.24.29,1.23.34,2.9,1.02,3.67Z"/><path class="cls-1" d="m270.53,111.58c.08.3.42.98.5,1.25.21.71-.2,1.72.13,2.26v.25c.36-.47.15-3.94-.13-4.39.04-.75.34-1.04.25-1.5-.06-.35-.04-.79,0-1.24-.06,0-.12,0-.18,0-.33-.03-.64-.09-.96-.17.11.36.28.61.38,1.04v2.51Z"/><path class="cls-1" d="m270.4,101.76c-.03-.56-.05-.79.26-.83.24-.47.39-.7.37-1.5.12.12.17.22.25.38.26-.35.27-1.02.25-1.63h.25c.28.68.43,1.79.5,2.63h.25c.02-1.64.21-5.36-.38-6.27-.14-.94-.88-.94-1.13-1.88-.09-.36-.15-.68-.19-.98-.09-.02-.18-.04-.27-.06.17.62.29,1.27.33,2.04-.4.11-.19-.07-.38.25-.34-.2-.58-.91-.63-1.38-.27.11-.18.11-.38.25-.09-.34-.17-.54-.38-.75v-.12h-.13c.01,1.5.33,2.87.63,4.14.2.87.09,1.78.25,2.51.27,1.24-.34,2.31.38,3.13v.04s.08.03.12.04Z"/><path class="cls-1" d="m269.53,87.29v-.91c-.04-.16-.1-.31-.16-.46-.64.02-1.27.05-1.9.09.11.21.23.54.36.92.57.11,1.14.23,1.7.36Z"/><path class="cls-1" d="m272.29,125.25v.25c.32-.49.29-1.25.41-1.88-.15-.11-.3-.23-.46-.35-.14.68-.37,1.52.05,1.98Z"/><path class="cls-1" d="m273.67,96.41c-.08-.22-.03-.12-.13-.25v.25h.13Z"/><path class="cls-1" d="m277.82,128.17s-.01-.01-.02-.02c-.64.75-1.31,1.23-1.36,2.58.05,0,.1-.02.15-.03.51-.6,1.47-1.95,1.23-2.53Z"/><path class="cls-1" d="m268.03,125.62c-.24,1.16.05,2.33-.5,3.14v.43c.11-.03.2-.07.27-.12,1.31-.97-.47-2.84,1.38-3.76.07-.04.15-.07.22-.09.21-1.08.36-2.48.56-3.51-.4-.26-.8-.52-1.21-.77-.21.84-.41,1.72-.6,2.55-.2.86-.02,1.61-.12,2.13Z"/><path class="cls-1" d="m270.75,125.2c.28.09.54.24.77.43.13-.43.25-.88.27-1.38-.65.12-.88.5-1.04.95Z"/><path class="cls-1" d="m221.75,110.56c-2.85,3.05-5.62,6.34-8.32,9.85,1.01-.67,2.04-1.32,3.09-1.93,2.35-1.37,4.73-2.5,7.1-3.41.34-.6.73-1.13,1.16-1.57,1.62-1.66,4.13-2.25,5.57-.48,4.26-.99,8.39-1.39,12.18-1.44.48-2.31,1.9-4.18,3.75-5.05l-.07-.03c-7.03-2.64-16.39-.01-24.46,4.06Z"/><path class="cls-1" d="m197.84,158.85c.27-.21.55-.42.83-.62.77-.9,1.56-1.78,2.37-2.65-.45-.38-1.01-.66-1.71-.8-.42.67-.84,1.3-1.27,1.88-.05.73-.12,1.46-.21,2.2Z"/><path class="cls-1" d="m261.4,119.21c.43,2.81.79,5.82,1.03,9.01.3.2.59.41.88.63.07.03.14.07.21.1.1,0,.2.02.3.03.02-.03.04-.07.07-.09v-.12h.12c0,.08,0,.16,0,.23.15.02.31.03.46.04.03-.17.04-.35.05-.53h.38c-.16-.86.17-3.97.62-4.64v-.37h-.12c-.04.25-.08.5-.13.75h-.25c.21-1.25.42-2.51.63-3.76-.16.21-.21.56-.38.75v.12h-.25c0-.52,0-1.08.06-1.63-1.22-.2-2.45-.37-3.67-.53Z"/><path class="cls-1" d="m204.59,123.07c.16.04.31.1.45.17,1.28-.46,2.57-.91,3.87-1.33-.48-.52-.98-1.03-1.49-1.54-.96.88-1.91,1.77-2.83,2.69Z"/><path class="cls-1" d="m213.37,185c1.97-2.88,4.39-5.32,7.16-7.09l.24-.15c-1.53.43-2.91.54-3.71.05,1.74-.65,3.18-1.36,4.34-2.17.57-2.4,1.05-4.83,1.46-7.3-4.01,3.26-8.56,7.11-13.18,11.62-.59,2.01-1.25,4.08-1.99,6.22.75,0,1.51-.02,2.26-.02,1.07-.56,2.22-.96,3.44-1.16Z"/><path class="cls-1" d="m198.09,155.13c0,.43-.01.87-.03,1.31.31-.57.62-1.15.9-1.73-.16-.02-.33-.03-.52-.04-.12.15-.24.3-.36.45Z"/><path class="cls-1" d="m243.72,113.7c-.98.71-1.28.52-1.36-.05-3.82-.09-7.62.22-11.32.99.14.74.14,1.56,0,2.29,5.42-.7,10.92-1.04,16.43-.98-.97-.91-1.81-1.76-2.5-2.17-.42-.03-.83-.05-1.25-.07Z"/><path class="cls-1" d="m256.02,133.47c-4.97.79-9.41,3.59-12.88,7.5.58,1.03,1.04,2.25,1.33,3.7.24,1.18.31,2.38.23,3.53,3.33.01,6.58-.64,9.51-3.03-1.98-1.31-3-6.6,2.48-8.05,1.31-.35,2.44-.09,3.3.57,0-.02,0-.03,0-.05.13-.4.25-.79.39-1.19.02-1.02.03-2.03.03-3.03-1.46-.2-2.94-.2-4.39.03Z"/><path class="cls-1" d="m236.19,177.23c1,.08,1.86.17,1.77.84.31-.1.63-.2.95-.29-1.16-.65-2.39-1.13-3.67-1.45-4.96,1.98-9.73,4.18-14.26,6.63-.25.76-.5,1.53-.76,2.29,2.47-1.27,5.02-2.45,7.63-3.54,1.61-2.88,4.8-4.7,8.34-4.47Z"/><path class="cls-1" d="m208.39,119.52c.64.63,1.25,1.28,1.86,1.95,2.04-2.74,4.2-5.43,6.46-8.08-2.85,1.76-5.39,3.61-7.4,5.33-.31.26-.61.53-.91.8Z"/><path class="cls-1" d="m242.72,186.98c1.16.06,2.31.11,3.46.18-.15-.56-.33-1.1-.54-1.64-.02,0-.04.02-.06.03-.99.5-1.94.96-2.86,1.43Z"/><path class="cls-1" d="m250.47,45.76c.38.63.98.92,1.38,1.5h.25v-.13c-.58-.39-.94-1.14-1.63-1.38Z"/><path class="cls-1" d="m253.11,48.39c.06.17.13.28.21.37.08-.03.15-.05.22-.08-.14-.1-.29-.19-.43-.29Z"/><path class="cls-1" d="m254.48,46.51c.18.62.57,1.06.93,1.53.09-.03.18-.06.27-.09-.25-.63-.66-1.24-1.2-1.44Z"/><path class="cls-1" d="m252.23,47.52c-.08-.22-.02-.12-.12-.25v.25h.12Z"/><path class="cls-1" d="m259.71,174.97c-.59.37-1.04.96-1.59,1.31-.99.64-1.97.97-2.84,1.65-.98,2.57-2.07,5.17-3.28,7.79.54.17,1.1.33,1.67.46-.08-.39-.06-.8.06-1.21.3-.95,1.11-1.56,2-1.59.16-.37.33-.73.5-1.12,1.1-2.52,2.26-4.95,3.48-7.29Z"/><path class="cls-1" d="m273.79,172.14c.16.14.23-.08.25-.12h.13c.06-.24-.06-.16-.13-.25-.08.12-.17.25-.25.38Z"/><path class="cls-1" d="m165.24,102.72c-.55.07-1.13.56-1.71,1.37.96-.12,1.92-.21,2.9-.27-.55-.19-1.01-.61-1.19-1.1Z"/><path class="cls-1" d="m148.29,126.28c1.83.11,4.3,1,5.34,1.94.65.59,1.09,1.24,1.31,1.9,3.56-3.11,8.64-4.46,13.7-4.24-.08-.76-.15-1.46-.21-2.1-.98-1.05-1.57-2.25-1.56-3.61,0-1.21.51-2.5,1.64-3.21.95-3,3.43-3.01,4.52.06.28.17.55.36.79.58,2.19-3.94,4.6-7.64,7.23-11.1-6.62-1.29-13-1.29-18.8-.07-1.33,3.07-2.38,7.65-2.46,12.27-.17-1.91-.23-4.28-.03-6.73-1.99,6.49-6.19,11.59-11.48,14.3Z"/><path class="cls-1" d="m137.8,93.15c2.17.64,3.35,2.38,3.38,4.41.13,0,.26.02.39.04,1.25.19,2.16.59,2.8,1.11,3.96-.65,8.61,1.27,8.42,6.04-.01.37-.07.71-.15,1,2.33-.12,4.69-.6,7.01-1.03.14-8.19-3.46-16.61-10.13-20.47-7.67-4.44-19.41-.33-21.43,9.48-.67,3.28.8,7.11,4.79,7.07,3.31-.04,3.24-5.93-.01-4.81-1.46.5-1.2-.66-.62-1.4,1.29-1.66,3.6-2.02,5.55-1.44Z"/><path class="cls-1" d="m266.52,79.86h-.13s-.08.08-.13.13c.02.07.03.12.04.17.07-.08.14-.17.21-.25,0-.02,0-.03,0-.04Z"/><path class="cls-1" d="m265.89,78.48c-.16-.72-.35-1.51-.88-1.88.09.64.38,1.37.75,1.76v.12h.13Z"/><path class="cls-1" d="m198.09,140.11c.98-1.72,1.99-3.44,3.04-5.15-.25-.03-.51-.03-.76-.03-.67.81-1.32,1.64-1.95,2.48-.09.9-.2,1.8-.32,2.7Z"/><path class="cls-1" d="m257.3,184.02c.83-1.62,1.79-3.27,2.86-4.93-.28.22-.55.45-.78.69h-.25c.2-.71,1.95-2.75,2.85-3.36.09-.13.19-.26.28-.39v-.02h-.63c.04-.36.08-.54.25-.75v-.13c-.21.06-.42.16-.62.27-1.69,2.59-3.33,5.27-4.89,8.05.04.01.08.02.11.03.32.12.6.3.82.53Z"/><path class="cls-1" d="m204.28,127.92c-.59.02-1.27-.21-1.75-.72-.94.38-1.87.77-2.79,1.16l-.38.46c.91.27,1.85.72,2.79,1.29.69-.75,1.4-1.48,2.13-2.2Z"/><path class="cls-1" d="m197.11,146.1c-.12.61-.24,1.21-.37,1.81.23.51.44,1.05.61,1.6.14.47.26.95.36,1.44.17-.07.34-.13.5-.2,1.51-2.07,3.05-4.04,4.62-5.91.88-2.97,1.49-5.83,1.88-8.38-.53-.38-1.06-.7-1.6-.94-1.98,3.26-3.91,6.64-5.78,10.13-.08.15-.16.3-.24.44Z"/><path class="cls-1" d="m208.7,154.17c-.56.26-1.12.52-1.67.8.25,1.25.14,2.6-.43,3.87-1.45,3.26-5.22,6.07-8.6,6.06,3.03-.71,4.78-4.44,4.22-7.2-1.04.66-2.05,1.37-3.04,2.1-.62.67-1.23,1.36-1.84,2.05,0,0-.01.01-.02.02-.48,2.37-1.17,4.76-1.96,7.04.72.24,1.38.53,1.98.86,1.67.94,2.85,2.28,3.26,4.15.35,1.6.06,3.5-1.27,4.78,1.06.14,1.65.49.35,2.02-.16.18-.26.38-.3.61.19-.17.37-.34.55-.5,1.75-1.59,3.58-3.12,5.48-4.6,2.21-10.19,2.91-18.1,3.29-22.05Z"/><path class="cls-1" d="m201.32,185.66c.84-.98,1.68-1.94,2.52-2.86.19-.73.37-1.45.55-2.15-.78.66-1.55,1.33-2.31,2.02-.56.51-1.12,1.02-1.66,1.54.27.45.58.94.9,1.46Z"/><path class="cls-1" d="m219.1,183.97c-.6.34-1.21.69-1.8,1.03.45.07.91.17,1.38.29.14-.44.28-.88.42-1.32Z"/><path class="cls-1" d="m193.95,174.84c-.13-.38-.29-.74-.49-1.06-.8,1.84-1.63,3.53-2.41,4.99.66-2.05,1.23-4.02,1.72-5.9-.69-.71-1.57-1.23-2.63-1.59-1.67,2.49-3.24,5.08-4.71,7.77l-.14.3c.7.35,1.36.75,2,1.19.1-.13.22-.25.37-.34.99-.68,2.55-.23,3.48.97.1.13.18.26.26.39.72-.82,1.61-1.5,2.59-2-.51-.24-.98-.6-1.38-1.05,1.04-.48,1.86-2.12,1.35-3.68Z"/><path class="cls-1" d="m225.65,120.42c-.42.94-.8,2.06-1.08,3.32,2.01-.37,3.92,0,5.34,1.03,4.14-1.46,8.34-2.24,12.53-2.31.67-1.47,2.66-2.37,4.08-1.58.74.4,1.33,1.11,1.73,1.94,1.9.27,3.79.68,5.68,1.25.68.2,1.35.44,2.01.69-1.51-1.51-2.91-3.21-4.14-5.09-1.08.05-2.25-.21-3.47-.85.21-.15.4-.3.58-.46-7.84-.09-15.64.62-23.26,2.06Z"/><path class="cls-1" d="m220.38,179.64c-1.6,1.12-2.99,2.45-4.19,3.93,1.21-.74,2.44-1.46,3.69-2.17.17-.59.33-1.18.5-1.77Z"/><path class="cls-1" d="m254.42,186.35c.1.02.2.03.3.05.05-.06.1-.13.15-.22.49-.92.99-1.82,1.49-2.72-.21-.06-.43-.09-.64-.08-.37.82-.73,1.62-1.12,2.48-.1.21-.16.36-.19.48Z"/><path class="cls-1" d="m45.99,143.18v-.13s.02-.05.02-.09c-.06.02-.12.04-.18.06.01.05.02.1.03.15h.12Z"/><path class="cls-1" d="m254.13,173.78c-.44.23-.88.48-1.31.72,0,0,0,0,0,0,.37-.07.75-.12,1.13-.19l.18-.54Z"/><path class="cls-1" d="m192.83,108.75c.49-1.1,1-2.21,1.53-3.32-.28-.89-.58-1.77-.89-2.64-.86,1.73-1.66,3.46-2.41,5.18.6.25,1.19.51,1.77.78Z"/><path class="cls-1" d="m247.21,36.48c-.11.3-.05.21-.25.38.4,1.25,1.67,1.98,2.73,2.75.16-.09.33-.19.49-.28-.81-1.16-2.33-2.64-2.98-2.85Z"/><path class="cls-1" d="m39.38,126.12c.15.64.33,1.28.52,1.92-.06-.73-.13-1.4-.43-1.8v-.13h-.09Z"/><path class="cls-1" d="m117.45,95.38c-.87,7.64.89,17.64,9.12,18.36,1.56-.35.77-2.52,2.79-2.21,1.52.24,2.14,1.99,1.86,3.55-.49,2.7-2.83,3.29-5.12,2.51-.37-.12-.72-.26-1.07-.42,2.74,2.8,5.34,5.68,7.81,8.62.12.05.24.09.36.14l.05.02c1.83-4.59,4.49-8.48,7.77-11.66-.51-3.32-4.84-3.4-8.3-5.01-5.11-2.38-7.68-8.38-6.45-15.28,1.7-9.47,10.8-14.43,18.07-13.24,4.06.66,7.62,2.82,10.38,5.93-2.72-3.52-6.29-6.06-10.95-6.75-1.63-.24-3.25-.52-4.43-1.44-1.64-1.27-2.19-3-1.15-4.45.73-1.02,2.17-1.35,3.09-.38,1.22,1.31-.7,2.24.08,3.42.64.96,5.21.84,9.86,4.41,6.12,4.71,9.66,13.83,9.76,22.05.64-7.16-.41-11.49-1.65-13.67-1.06-1.88-2.62-5.9-1.95-9.48.29-1.54,1.65-3.05,3.13-3.25,1.88-.25,3.74,2.43,2.34,4.08-1,1.18-1.1-.14-1.75.65-1.12,1.49-.71,4.32-.02,7.56.43,2.06,2.15,5.87.54,14.5.32-.73.69-1.43,1.12-2.07.59-.9,1.54-2.2,2.32-2.71,1.81-1.2,4.17.11,3.86,2.54-.15,1.13-.59,1.76-1.13,2.04,3.33-.13,6.75.07,10.19.59-3.25-1.64-5.76-4.4-5.74-8.16.03-4.83,4.82-8.42,7.62-4.35-2.34,1.34-2.1,4.89-.74,7.35,1.01,1.82,2.6,3.24,4.41,4.24,2.2-2.67,4.54-5.17,7-7.53-1.77-3.55-3.9-6.96-6.42-10.19-7.01-9-17.32-13.83-28.27-15.51-16.37-2.52-33.41,5.21-37.67,21.33-.11.42-.21.87-.31,1.33.56.36.89.89.81,1.42-.08.55-.56.95-1.21,1.11Z"/><path class="cls-1" d="m63.38,107.23c2.16,3.48,6.96,3.01,9.36.26,2.73-3.13,3.29-9.12,1.45-14.21-11.49-.26-24.76,2.64-31.39,11.68-.29,1.77-.44,3.57-.45,5.38-.02,8.56,3.11,17.35,9.98,22.84-.1-.9-.1-1.84.06-2.79.19-1.13-1.05-3.39-.25-4.64v-.13c.51.65.53,2.71.5,3.76h.25c.06-.18.15-.6.25-.75.04-.04.08-.08.12-.13.28,1.4.58,2.82.88,4.01.12.48-.07,1.22-.12,1.5.02.14.04.29.06.43,1.82,1.2,3.87,2.19,6.15,2.91,5.05-7.46,12.47-13.29,20.73-16.64-1.99-3.23-3.1-7.83-3.73-12.47-1.26,3.87-3.69,6.8-7.18,7.42-4.77.86-8.74-3.33-8.03-7.96.1-.64.57-1.74,1.35-.49Z"/><path class="cls-1" d="m38.94,123.87c.01.07.02.15.04.22.09.15.11.34.11.66h.25c-.02-1.54-.28-3.92.38-4.89v-.13c.58.36.26,1.15.5,1.88.03.1.35.4.38.5.13.47-.19.67-.25.88.04,1.09.08,2.17.12,3.26-.04.17-.35.63-.38.75-.16.66.09,1.52.26,2.39,1.07,2.97,2.62,5.78,4.43,7.4,0-.18,0-.36-.05-.52-.18-.69-.69-1.14-.88-1.75-.16-.52-.04-1.4-.13-1.63.03-.29.03-.35.13-.5.08-.1,0-.03.12,0,.53.35.19,1.54.38,2.26.1.37.67.8.75,1.63h.12c-.03-.78-.26-1.83-.63-2.38v-.5h.13c.34.82.62,2.16.88,3.14v.75c.03.08.08.16.13.25,1.15.72,2.39.93,3.66.4-.41,1.87-1.06,3.17-1.88,4.03.16.62.32,1.23.47,1.85v1c.17.55.48,1.07.5,1.88.22.08.39.12.75.12.19.84.29,2.44.75,3.14v.12h.12c-.08-2.24.4-4.19.25-6.27-.01-.18-.43-.78-.5-1-.15-.49-.02-.9-.25-1.25v-.25c.21.08.39.12.75.12.1.89.43.51.75,1,.44.68.42,1.41.88,2.01v.25h.25c-.02-1.21-.72-4.82-.63-5.02.08-.1,0-.03.12,0,.41.35.26.83.5,1.38.4.91.93,2,1.25,3.13.13.96.25,1.92.38,2.88.17.17.33.33.5.5v1.25c.07.29.12.65.19,1.02.08-.31.16-.61.25-.92-.17-.82-.38-1.62-.57-2.36v-2.01c-.21-.97-.29-2.23-.5-3.13-.12-1.38-.25-2.76-.38-4.14-.22-.61-.44-1.25-.62-1.93-7.77-5.46-11.76-14.91-12.03-24.51-.02-.83,0-1.66.05-2.49-1.95,4.11-2.73,9.23-1.84,15.51Z"/><path class="cls-1" d="m102.18,102.08c-1.89-.55-3.55-1.67-4.8-3.16-3.58-1.7-7.21-3.06-10.88-4.03-2.81-.74-6.15-1.28-9.74-1.51,1.14,2.67,3.51,7.38,6.72,5.12,1.11-.78,2.46-1.52,2.52.99.18,7.34-5.15,6.54-6.73,4.16-.2.03.34,8.69,4.67,9.84,2.66.71,4.73-.61,6.77-1.35,3.55-1.3,7.03,1.04,8.06,4.77,7.14-.44,15.55.28,23.94,3.83-2.24-2.38-4.01-5.17-5.3-8.22-4.39-3.89-8.91-7.27-13.52-10.07-.57-.08-1.15-.21-1.72-.37Z"/><path class="cls-1" d="m108,102.33c1.17.82,2.32,1.68,3.46,2.58,1.59,1.27,3.15,2.56,4.67,3.88-1.11-4.04-1.45-8.38-.96-12.71-1.14,3.3-3.86,5.53-7.17,6.25Z"/><path class="cls-1" d="m120.4,174.89c.97,3.05,3.6,4.9,8.11,6.21-.76.55-2.16.55-3.7.23l.25.12c1.14.62,2.23,1.34,3.26,2.17,2.83,1.26,5.58,2.61,8.23,4.05.22-.52.46-1.05.69-1.57-4.65-3.64-9.53-6.98-14.62-9.96-.73-.43-1.48-.85-2.22-1.26Z"/><path class="cls-1" d="m54.35,136.38c.01.09.03.18.04.27-.04.96-.08,1.92-.13,2.88.13.46.49,1.03.63,1.51.08.67.17,1.33.25,2,.22.57.86,1.14,1.13,1.63,0,0,0,.02.01.03.86-2.1,1.9-4.11,3.09-6.03-1.81-.6-3.48-1.37-5.03-2.29Z"/><path class="cls-1" d="m99.07,118.98c-.03.56-.33.78-1.35.15-.41.05-.83.1-1.24.16-1.82,1.26-4.46,5.94-8.6,5.89-2.08-.03-3.78-.84-5.17-2.21-7.88,3.26-14.81,8.55-19.65,15.13,3.01.61,5.94.66,8.73.19-1.47-.75-2.22-2.07-1.86-3.71.33-1.47,1.74-2.57,3.16-1.99,1.9.78.25,2.78,1.62,3.65.56.35,2.06-.09,4.25-.44l.21-.12c1.39-1.2,2.86-2.27,4.41-3.2,2.03-1.85,3.84-4.09,5.35-6.68.45-.11.88-.25,1.27-.42-1.14,2.08-2.47,3.99-3.96,5.68.64-.3,1.29-.58,1.96-.84,1.84-.71,3.7-1.26,5.58-1.67.34-.86.89-1.61,1.6-2.07,1.37-.88,3.41-.14,4.17,1.28,4.19-.24,8.43.23,12.66,1.38,1.96-1.65,5.04-1.98,8.05-.66,2.66,1.17,5.08,2.98,7.2,5.8,1.84-.4,3.66-1.84,4.48-4.52.13-.47.27-.95.42-1.41-2.43-1.74-4.99-3.33-7.69-4.75-8-4.21-16.8-5.48-25.61-4.62Z"/><path class="cls-1" d="m121.46,116.28c1.75,2.81,4.01,5.25,6.78,7.12-2.22-2.5-4.48-4.88-6.78-7.12Z"/><path class="cls-1" d="m133.88,149.69c.04.16.08.33.12.49l.25.19c-.12-.22-.25-.45-.37-.67Z"/><path class="cls-1" d="m54.25,151.3c-.1-.52-.18-1.06-.23-1.6h-.25c.02.55.12,1.48.33,2.14.01,0,.03,0,.04,0,.04-.18.08-.36.12-.54Z"/><path class="cls-1" d="m53.64,150.82v.75h.25c-.02-.48,0-.54-.25-.75Z"/><path class="cls-1" d="m49.12,150.57c.13-.22.13-.28,0-.5v.5Z"/><path class="cls-1" d="m44.32,143.19c.18.66.14,1.42.42,2.12.51,1.28,1.12,2.82,1.63,4.14.04.04.08.08.13.12h.12c-.25-2-.69-4.15-1.13-5.89-.04-.15-.06-.34-.08-.55-.35.06-.72.09-1.09.06Z"/><path class="cls-1" d="m55.39,145.81c.13.1.03.05.25.13v-.13h-.25Z"/><path class="cls-1" d="m193.18,98l.16.38c.18-.34.37-.68.55-1.02-.24.21-.47.43-.71.65Z"/><path class="cls-1" d="m235.93,145.95c-.58-.68-1.31-1.12-2.09-1.32.35.86.64,1.86.84,2.65.32.03.63.06.95.08.1-.49.2-.96.3-1.41Z"/><path class="cls-1" d="m221.76,180.37c2.96-1.6,6.02-3.09,9.16-4.47-2.84.11-5.78.95-8.6,2.53-.18.65-.36,1.3-.56,1.95Z"/><path class="cls-1" d="m224.71,167.6c-.34,2.02-.73,4.02-1.18,6.02.94-1.27,1.43-2.77,1.47-4.58.02-.53-.09-1.02-.29-1.43Z"/><path class="cls-1" d="m248.33,127.67c-1.11,3.49-3.71,6.44-5.32,7.83-.72.62-1.5,1.5-2.3,2.69.44.33.86.7,1.24,1.12,3.61-4.52,8.22-8.09,13.23-9.6.25-.08.49-.14.73-.21-1.2-.45-2.44-.84-3.71-1.15-1.27-.31-2.56-.53-3.87-.69Z"/><path class="cls-1" d="m260.07,131.45c-.44-.25-.89-.48-1.34-.71-3.38.22-6.52,1.39-9.4,3.2,3.35-1.77,7.01-2.68,10.75-2.49Z"/><path class="cls-1" d="m228.01,135.35c-1.45.27-2.31-.03-2.97-.43.13.96.27,1.92.38,2.89,4.71-1.63,9.98-2.35,13.85-.49.81-1.37,1.54-2.3,1.98-3.05,1.54-2.57,2.81-4.92,2.99-6.84-3.89,0-7.9.6-11.96,1.83.03.35.04.72.02,1.1-.1,2.12-1.67,4.52-4.28,5Z"/><path class="cls-1" d="m222.34,118.38c.1-.38.2-.75.33-1.11-1.3.56-2.58,1.18-3.83,1.88,1.16-.27,2.33-.53,3.5-.77Z"/><path class="cls-1" d="m216.16,129.45c1.62-2.05,3.44-3.53,5.46-4.63,0-1.25.06-2.46.2-3.62-3.25.72-6.45,1.58-9.61,2.56,1.46,1.81,2.78,3.71,3.96,5.69Z"/><path class="cls-1" d="m218,148.87c1.1-.29,2.21-.55,3.32-.77-.07-.68-.16-1.36-.27-2.04-.86,1.08-1.9,2.02-3.04,2.81Z"/><path class="cls-1" d="m222.32,147.92c.62-.11,1.23-.21,1.84-.29-.06-1.69-.17-3.39-.32-5.1-.32.1-.64.21-.96.33-.26.7-.58,1.37-.97,1.99.17,1.02.31,2.04.4,3.08Z"/><path class="cls-1" d="m224.22,149.81c-.59.07-1.18.15-1.77.24.14,3.37-.15,6.78-.92,10.17-.15.58-.43.81-.63.74-.2-.07-.33-.45-.2-1.09.71-3.16.96-6.41.79-9.66-1.9.33-3.83.78-5.77,1.35l-.31,1.43v.07c.2,2.09.11,4.08-.38,5.81-.02-.91-.07-1.81-.16-2.7-.54,3.4-1.37,8.74-2.95,15.36,3.65-2.42,7.48-4.67,11.45-6.73.64-4.87.94-9.88.86-14.99Z"/><path class="cls-1" d="m237.96,143.63c-.07.17-.14.35-.21.54.21.18.41.37.59.58.08-.15.16-.29.24-.43-.19-.24-.4-.48-.62-.69Z"/><path class="cls-1" d="m234.56,174.35c.73-.29,1.47-.59,2.22-.87-1.49-3.31-2.39-6.98-2.6-10.85-.33.15-.66.29-.99.43-.52,1.55-1.08,2.98-1.63,4.21.42-1.3.77-2.63,1.05-3.95-.8.36-1.6.73-2.4,1.09.63.8.97,1.87,1.04,2.9.21,2.92-1.55,5.41-4.25,7.46-.22.17-.48.34-.76.52,2.71-.82,5.56-1.15,8.33-.94Z"/><path class="cls-1" d="m239.58,145.99l-.16.28c.27.51.49,1.05.62,1.62h.04c-.09-.66-.26-1.3-.51-1.89Z"/><path class="cls-1" d="m249.54,169.24c-.37-.72-.59-1.51-.6-2.27-.05-4.04,3.05-6.03,6.45-5.57-1.87-1-2.5-2.54-3.04-3.73-.45-.37-.89-.73-1.35-1.08-5.21,1.53-10.37,3.35-15.39,5.45.19,3.96,1.07,7.66,2.54,10.93,3.7-1.38,7.5-2.62,11.38-3.72Z"/><path class="cls-1" d="m266.52,124.75h.25c.3-1.47.4-2.94.38-4.14,0-.18.01-.35.04-.52-.09-.02-.18-.03-.26-.04-.19,1.06-.43,2.12-.65,3.08-.19.82.26,1.11.25,1.63Z"/><path class="cls-1" d="m236.77,147.48c-.02-.06-.04-.12-.06-.17l-.04.16h.11Z"/><path class="cls-1" d="m244.63,154.81c.18-.64.43-1.19.73-1.68-.52-.25-1.05-.49-1.58-.71-1.35,3.47-3.92,5.76-6.24,4.9-.6.51-1.24,1.01-1.89,1.49,0,.13-.02.26-.02.39,2.89-1.16,5.83-2.23,8.78-3.22.02-.35.09-.74.22-1.16Z"/><path class="cls-1" d="m231.07,151.79c-1.7,1.03-3.25-.31-3.69-2.22-.41.01-.82.04-1.23.07.03,4.66-.25,9.25-.83,13.8l.12-.06c.71-.53,1.37-1.02,1.97-1.47,1.99-1.48,4.25-3.04,6.09-4.92.18-2.9.01-5.47-.46-7.27-.32-.03-.64-.06-.97-.08.08.71-.11,1.62-1.01,2.16Z"/><path class="cls-1" d="m236.62,143.36c.07-.22.14-.42.21-.63-2.89-1.88-6.83-1.87-11.01-.79.14,1.82.24,3.64.29,5.45.43-.05.87-.09,1.3-.12.06-.22.14-.45.23-.67.07-.15.14-.31.23-.46-.09-.45-.08-1,.04-1.64.51-2.5,2.98-3.13,4.62-1.81.54-.11,1.09-.14,1.64-.1.86.07,1.68.35,2.45.79Z"/><polygon class="cls-1" points="235.17 149.98 235.14 149.98 235.15 150.11 235.17 149.98"/><path class="cls-1" d="m241.57,184.3c.46-.24.72-.59,1.25-.75-.08-.22-.02-.12-.12-.25-.29.24-.81.45-1.13.63v.38Z"/><path class="cls-1" d="m248.97,178.03v-.12h-.5c-.07.2-.11.3-.13.63.21-.17.42-.33.63-.5Z"/><path class="cls-1" d="m252.23,178.15c-.14.26-.19.23-.25.63h.13c.14-.31.24-.37.12-.63Z"/><path class="cls-1" d="m250.72,179.16c.11-.39.23-.34.13-.62-.14.26-.19.23-.25.62h.13Z"/><path class="cls-1" d="m260.5,56.42s.08.08.12.12h.12c-.12-.47-.27-.76-.63-1,.1.37.23.57.38.88Z"/><path class="cls-1" d="m252.27,175.78c-.51.92-1.18,1.73-1.92,2.38v.38c.75-.31.93-.64,1.75-.75.06-.4.12-.47.25-.75.14-.05.41-.07.69-.12.17-.46.33-.91.5-1.37-.42.07-.84.15-1.27.24Z"/><path class="cls-1" d="m262.43,175.81s.02-.03.02-.04h-.07s.03.02.04.04Z"/><path class="cls-1" d="m222.24,134.06c.3.51.56,1.07.77,1.68-.09-.6-.2-1.21-.3-1.82-.14.03-.3.07-.46.14Z"/><path class="cls-1" d="m258.95,116.42c-.06.07-.12.14-.19.2.21.02.41.05.62.07l-.02-.13c-.13-.05-.27-.1-.41-.14Z"/><path class="cls-1" d="m262.63,59.93c-.08-.22-.03-.12-.12-.25v.25h.12Z"/><path class="cls-1" d="m264.01,62.31h-.25c.2.15.1.2.25,0Z"/><path class="cls-1" d="m270.16,117.98c.03-.8.17-1.81-.25-1.88-.02-.61-.04-1.02,0-1.5-.16-.32-.54-.49-.38-1.25.19-.9.44-3.56,0-4.26-.08.58-.17,1.17-.25,1.75-.27-.11-.18-.11-.38-.25-.3.98.47,4.05-.12,5.01v1.75h.12c.08-.16.14-.26.25-.37v-.13c.18.24.26.69.27,1.15.2.11.39.23.58.34.03-.13.08-.25.15-.36Z"/><polygon class="cls-1" points="205.09 132.37 205.18 132.45 205.2 132.2 205.09 132.37"/><path class="cls-1" d="m207.81,139.42c-.57-.66-1.18-1.29-1.81-1.9l-.13-.12c-.37,1.88-.84,3.74-1.38,5.54,1.09-1.23,2.2-2.4,3.32-3.52Z"/><path class="cls-1" d="m206.45,153.33c.81-.42,1.63-.82,2.46-1.2l.04-.34c-.43,0-.85-.03-1.26-.08-.49.41-.98.82-1.46,1.24.07.12.15.26.21.38Z"/><polygon class="cls-1" points="206.62 125.64 206.63 125.7 206.76 125.58 206.62 125.64"/><path class="cls-1" d="m210.42,142.92c-.15-.23-.3-.46-.45-.69-2.7,2.39-5.35,5.07-7.91,8.02.31.04.63.11.93.2.75.22,1.43.59,2,1.06l.43-.41c-.12-.05-.24-.11-.35-.17.19-.01.39-.03.59-.05,1.29-1.22,2.59-2.39,3.91-3.5.26-1.58.54-3.06.86-4.45Z"/><path class="cls-1" d="m215.35,130.55c-1.25-2.13-2.68-4.19-4.28-6.15-.48.38-.95.76-1.41,1.14-.96,1.36-1.91,2.75-2.85,4.17-.05,1.32-.17,2.65-.34,3.99,1.06,1.09,2.11,2.46,3.12,3.99,1.16-1.1,2.34-2.14,3.53-3.12.68-1.52,1.43-2.85,2.24-4.02Z"/><path class="cls-1" d="m238.35,183.47c.04.06.07.12.11.18.24-.24.48-.49.73-.73.58-.4,1.15-.77,1.73-1.14-.01,0-.02,0-.03,0-.86.57-1.7,1.13-2.53,1.69Z"/><polygon class="cls-1" points="210.94 175.56 210.89 175.59 210.89 175.61 210.94 175.56"/><path class="cls-1" d="m254.21,118.98c-.56.31-1.17.52-1.82.62.17.04.35.08.53.11,1.68,2.47,3.62,4.57,5.78,6.27.52.27,1.04.55,1.55.84-.14-2.75-.35-5.36-.6-7.82-1.32-.14-2.63-.26-3.95-.36-.47.16-.96.27-1.48.33Z"/><path class="cls-1" d="m65.14,181.65c2.09-.41,4.21-.74,6.34-1.02-1.5-.65-3.41-1.52-4.43-2.22.32-.07-1.03-1.65-1.38-2.38-.2-.42-.42-.83-.64-1.24-.11,2.2-.13,4.45-.04,6.74l.15.13Z"/><path class="cls-1" d="m41.98,142.5c.09.18.17.36.25.55.26.6.18,1.19.5,1.76.14.24.6.3.75.5.09.38.17.75.25,1.13.37.99.99,2.92,1.63,3.64v.12h.12c-.33-2.42-1.19-4.6-1.63-6.9.05-.05.1-.1.15-.15-.66-.09-1.34-.31-2.03-.65Z"/><path class="cls-1" d="m41.73,150.2s.08-.08.12-.12c-.02-1.27-.46-2.93-1.13-3.64.09,1.43.79,2.37.88,3.76h.12Z"/><path class="cls-1" d="m40.22,144.43c.07.19.09.21.12.5.1-.15.1-.21.12-.5h-.25Z"/><path class="cls-1" d="m50.25,150.95v.76c.09,0,.19,0,.28,0,0-.18-.02-.35-.03-.52.04.04.08.08.12.13.13.11.21.25.29.4.14,0,.27.01.41.01-.22-.59-.46-1.11-.7-1.42-.07.45-.03.46-.38.63Z"/><path class="cls-1" d="m38.59,144.55h.25v-.25c-.13-.04-.25-.08-.38-.13.04.13.08.25.12.38Z"/><path class="cls-1" d="m40.6,146.44h.12c-.05-.26-.03-.24-.12-.38v.38Z"/><path class="cls-1" d="m128.13,154.82c-2.85-.62-5.64-.99-8.38-1.1-.36,1.86-1.79,3.22-3.51,2.34-.99-.51-1.21-1.49-1.13-2.23v-.08c-1.48.09-2.94.26-4.38.51-.11.58-.18,1.23-.22,1.93,1.46,4.58,6.22,7.27,10.04,9.69,2.19,1.39,5.04,3.22,8.29,5.52,1.39.69,2.76,1.39,4.1,2.13-2.63-8.7-3.76-15.04-4.41-17.31l-.4-1.4Z"/><path class="cls-1" d="m129.69,137.72c.37.27.75.54,1.12.82-.03-.63-.03-1.28,0-1.93-.33.41-.71.78-1.12,1.11Z"/><path class="cls-1" d="m48.37,155.96v-.12s0,0,0,0c-.04,0-.08,0-.13,0v.13h.12Z"/><path class="cls-1" d="m57.27,149.64c.12.77.24,1.59.38,2.39.59.04,1.18.08,1.77.13,0-.12-.02-.23-.02-.33h.38c.04.17.11.28.19.37,2.12.17,4.22.37,6.32.62,1.2-4.4,3.84-8.21,7.12-10.85.83-1.13,1.71-2.2,2.63-3.22-.53.1-1.07.16-1.58.17-3.85,1.2-8.03,1.42-12.32.5-2.13,3.15-3.79,6.58-4.86,10.21Z"/><path class="cls-1" d="m273.67,172.26h-.25c-.12.17-.25.33-.38.5,0,0,.01,0,.02,0,.06,0,.11,0,.17,0,.2-.1.41-.45.45-.51Z"/><path class="cls-1" d="m129.2,174.65c.26.17.53.34.79.51l-.46-.34-.34-.17Z"/><path class="cls-1" d="m250.22,45.64c-.08-.22-.02-.12-.13-.25v.25h.13Z"/><path class="cls-1" d="m248.84,44.01h-.25c.13.1.03.05.25.12v-.12Z"/><path class="cls-1" d="m272.79,172.77h.25c-.08,0-.17,0-.25,0,0,0,0,0,0,0Z"/><path class="cls-1" d="m38.34,143.8v.25h.25c-.33-.82-.45-2.24-1-2.88,0,1.06.15,2.16.75,2.63Z"/><path class="cls-1" d="m207.36,80.91c-1.1,1.4-2.16,2.8-3.17,4.2,1.34-.87,2.71-1.7,4.11-2.49,3.81-4.99,8.14-9.88,13.04-14.59,8.27-7.93,18.61-14.2,29.8-18.48-.18-.31-.36-.61-.54-.92-.25-.42-.86-.79-1.13-1.25-.13-.54-.25-1.09-.38-1.63-.18-.33-.9-1.06-1.24-1.54-14.01,8.54-27.69,20.44-40.49,36.69Z"/><path class="cls-1" d="m74.58,193.01c-.32-.13-.64-.26-.96-.4-.88.85-1.94,1.47-3.2,1.74.1.36.14.79.02.98-.04.12-.08.25-.12.37-.51-.04-.62-.11-.88-.37h-.38c.3.52.82,1.21,1.25,1.63.12.04.25.08.38.13.04.21.08.42.12.63.21.08.42.17.63.25.27.39.2.8.5,1.13.25.14.23.06.5,0,.04.16.1.36.17.56.85-.21,1.7-.41,2.55-.59-.36-1.96-.57-3.99-.59-6.05Z"/><path class="cls-1" d="m270.66,174.52c.31-.23.66-.45,1.01-.67-.31,0-.62,0-.93.01-.45.32-.88.66-1.19.92.03.24.1.48.21.7.09-.07.19-.13.28-.2.21-.25.42-.5.63-.75Z"/><path class="cls-1" d="m35.83,148.19s.08.08.13.12h.12c-.07-.55-.27-1.1-.63-1.38.07.51.21.85.38,1.25Z"/><path class="cls-1" d="m266.28,181.94c-.05-.21-.09-.42-.15-.64-.13-.54-.27-1.06-.42-1.58-.11.02-.22.04-.32.06-.74.33-1.57.96-2.13,1.5h-.5c.43-1.22,1.67-1.76,2.6-2.51-.22-.29-.39-.6-.52-.95-.07.07-.13.13-.2.2-1.08.79-2.2,1.41-3.26,2.26h-.25c.01-.43.01-.78.08-1.09-1.46,1.9-2.7,3.64-3.67,5.1.42.59.57,1.38.33,2.14-.04.11-.07.21-.12.3.2,0,.4.02.61.03.42,0,.83,0,1.25,0,.22-.15.44-.31.65-.46,2.03-1.44,4.3-2.63,6.02-4.37Z"/><path class="cls-1" d="m196.41,107.41c.31,1.2.6,2.41.85,3.62.03.02.05.03.09.05,1.08.62,2.14,1.29,3.17,1.98,12.89-16.69,31.13-26.43,52.08-27.18,4-1.54,8.04-2.65,12.05-3.34.4-.7.85-1.37,1.35-2.01-.28-.22-.53-.46-.86-.67,0-.44-.17-1.12-.12-1.38.03-.18.32-.25.25-.63-.24-1.28-1.36-2.93-2.08-4.2-19.8-.74-38.94,3.77-55.16,13.36-4,5.67-7.57,11.83-10.68,18.38-.32.66-.63,1.33-.94,2.01Z"/><path class="cls-1" d="m105.36,162.44c1.12.32,2.23.65,3.34.99-.14-1.02-.35-2.04-.6-3.05-1.37-1.28-2.44-2.66-2.91-4.2-.05-.17-.1-.33-.14-.49-.35.12-.7.24-1.04.37.64,1.79,1.99,3.53,4.18,4.88-.84,1.1-1.83,1.55-2.84,1.5Z"/><path class="cls-1" d="m106.59,182.77c-.12.08-.24.16-.35.25-.28.46-.57.9-.87,1.34.43.24.86.49,1.28.73,1.62-.29,3.31-.33,4.33,0,2.27.71,3.52,2.37,2.96,4.38,1.9,1.2,3.77,2.42,5.61,3.66.24-.04.49-.08.74-.11,1.51-1.44,3.27-2.62,5-3.46.8-.39,1.58-.7,2.35-.95-6.52-2.49-13.67-4.48-21.03-5.84Z"/><path class="cls-1" d="m104.85,149.28c.65,1,1.26,2.03,1.81,3.07l.31-.06c-.5-1.38-1.02-2.62-1.54-3.74-.21.23-.4.48-.58.74Z"/><path class="cls-1" d="m132.26,187.51c.13.16.26.32.39.49.28.02.56.06.83.1-.41-.2-.82-.39-1.23-.59Z"/><path class="cls-1" d="m100.19,157.75c-.52.26-1.03.54-1.53.83.33.46.61,1.01.84,1.62.03.09.07.19.09.28,1.38.48,2.75.99,4.12,1.51l.18.04c-1.42-.7-2.77-2.26-3.71-4.28Z"/><path class="cls-1" d="m103.58,152.96c.47-.09.94-.18,1.4-.28-.32-.57-.66-1.11-1.01-1.65-.21.62-.34,1.26-.39,1.93Z"/><path class="cls-1" d="m79.78,188.22c-.25,1.45-.42,2.87-.51,4.26,2.72.68,5.61.91,8.62.62,3.21-.31,6.14-1.25,8.73-2.69.5-1.45,1.14-2.76,1.9-3.93-3.76-.43-6.68-.04-7.7,1.22-.12.09-.24,1.46-.71,2.64-.56,1.38-1.92,2.63-4.04.75-2.23-1.96-.73-4.93,1.36-6.03,1.26-.66,2.93-1.07,4.49-1.22,2.63-.25,5.35.08,8.01.79l.11-.13c-2.23-1.17-4.52-2.34-6.86-3.45-3.9-.28-7.79-.35-11.6-.21-.22.69-.43,1.39-.62,2.1.14,1.17-.15,2.14-.71,2.89-.17.78-.33,1.57-.47,2.38Z"/><path class="cls-1" d="m81.95,179.78c2.84-.09,5.7-.08,8.56.03-2.42-1.1-4.88-2.14-7.37-3.11-.42.99-.82,2.02-1.19,3.08Z"/><path class="cls-1" d="m110.89,162.59c.08.54.18,1.08.29,1.63,1.92.62,3.82,1.29,5.7,2-1.91-1.1-4.05-2.3-5.99-3.63Z"/><path class="cls-1" d="m84.94,160.79c-.22-.06-.43-.12-.65-.17.04.44.04.89,0,1.37.17-.42.39-.82.64-1.2Z"/><path class="cls-1" d="m91.98,163.62c-.45,1.23-.98,2.82-2.79,3.95,3.37-.7,6.59,1.05,6.8,5.08.02.43-.02.87-.12,1.3,3.98.68,7.9,1.52,11.74,2.51.72-2.3,1.17-4.77,1.31-7.33-5.26-2.35-10.69-4.4-16.27-6.14-.23.21-.45.42-.67.64Z"/><path class="cls-1" d="m181.17,153.01c.08.04.16.08.24.13.48-5.12,1.27-10.68,2.49-16.52-.45.28-.9.57-1.36.86v.03c.14.3.26.64.34,1.03.34,1.55,0,3.38-1.07,4.58-.35,3.36-.57,6.66-.65,9.88Z"/><path class="cls-1" d="m114.81,139.56c-2.63-.28-4.36-2.56-4.59-4.67-.04-.38-.06-.75-.05-1.1-4.12-.92-8.17-1.24-12.05-.94.3,1.91,1.72,4.16,3.42,6.61.5.72,1.28,1.59,2.18,2.9,4.24-2.43,10.5-1.68,15.76.02v-.23c0-1.6.39-3.08,1-4.3-2.2-.71-2.05,2.11-5.67,1.71Z"/><path class="cls-1" d="m94.04,133.4c-1.3.25-2.57.58-3.81.97-1.25.4-2.46.88-3.62,1.42.24.05.49.09.73.15,5.1,1.13,9.93,4.36,13.83,8.6.36-.45.75-.85,1.17-1.22-.87-1.13-1.71-1.95-2.47-2.51-1.7-1.27-4.49-4.02-5.82-7.42Z"/><path class="cls-1" d="m82.58,138.05c3.71-.46,7.43.17,10.88,1.69-3-1.59-6.21-2.53-9.59-2.49-.44.26-.87.53-1.29.8Z"/><path class="cls-1" d="m106.09,180.27c.29-.59.56-1.19.8-1.81-3.87-.99-7.83-1.84-11.84-2.57-.54.87-1.26,1.61-2.06,2.09,1.63.76,3.24,1.54,4.82,2.35,2.16.22,4.31.5,6.45.83.59-.33,1.2-.62,1.82-.88Z"/><path class="cls-1" d="m87.5,174.69c-.58-.02-1.2.02-1.85.08,1.96.79,3.9,1.62,5.81,2.49-.57-1.38-1.47-2.07-2.59-2.38-.46-.07-.91-.13-1.38-.2Z"/><path class="cls-1" d="m102.73,182.12c-.66-.1-1.31-.19-1.98-.28.46.24.92.49,1.37.73.2-.15.4-.31.61-.45Z"/><path class="cls-1" d="m112.15,191.41c-.49.15-1.02.12-1.53-.14-.68-.35-.86-.81-.89-1.32-.73-.43-1.47-.86-2.22-1.3-1.41-.5-2.81-.93-4.17-1.27-.26.11-.52.24-.78.38-.41.42-.84.82-1.28,1.21-1.14,2.39-1.66,5.11-1.42,7.58,5.27-1.02,10.62-1.96,16.03-2.83-.63-.4-1.27-.8-1.91-1.19-.6-.37-1.21-.74-1.82-1.11Z"/><path class="cls-1" d="m109.59,179.18c-.42-.12-.85-.23-1.27-.35-.1.25-.2.5-.31.75.52-.15,1.04-.29,1.58-.4Z"/><path class="cls-1" d="m32.32,128.88v.37h.25c-.08-.16-.14-.26-.25-.37Z"/><path class="cls-1" d="m43.3,97.85c3.1-7.28,8.69-13.15,15.17-14.2-.02.39.04.77.18,1.12-5.61,1.04-10.24,5.5-13.12,11.46,5.01-3.36,10.61-5.34,15.36-6.16,3.62-.63,7.4-.84,11.26-.66-1.98-2.71-4.92-4.68-8.89-4.99h0c.11-.47.1-.92-.02-1.35,5.31.21,9.12,2.85,11.57,6.53,6.78.64,13.75,2.5,20.53,5.53-.38-1.33-.5-2.76-.29-4.22.73-5.1,5.11-8.35,9.78-7.27,3.5.81,5.9,4.56,5.35,8.38-.55,3.82-3.83,6.27-7.33,5.46-2.34-.54-3.93-3.04-3.57-5.59.37-2.55,2.55-4.18,4.89-3.64,1.17.27,1.97,1.52,1.79,2.79-.19,1.28-1.27,2.05-2.44,1.78,1.85,1.56,3.73-.2,4.03-2.14.58-3.75-2.77-5.98-5.74-5.54-2.78.42-5.1,2.72-5.57,6.02-.23,1.62.01,3.22.62,4.66,3.37,1.6,6.68,3.48,9.88,5.64,3.96-.34,7.28-2.81,8.04-6.88-.25-.3-.37-.65-.32-1,.08-.58.62-1,1.33-1.14.13-.58.27-1.16.43-1.74,4.97-18.02,23.69-25.93,40.03-22.67,7.41,1.48,19.74,5.52,28.78,16.51,2.62,3.18,4.82,6.62,6.65,10.24,1.83-1.69,3.73-3.3,5.67-4.82.56-.44,1.13-.87,1.71-1.3,2.28-3.57,4.81-7.17,7.58-10.78,12.38-16.13,26.03-28,40.2-36.58-.89-.98-2.23-1.8-3.26-2.56-1.38-1.38-2.76-2.76-4.14-4.14v-.88h.38v-.12c-.58-.16-1.44-.67-1.76-1.13h-.12c.04.33.08.67.12,1-.96-.12-1.24-.62-1.88-.88-.67-.13-1.34-.25-2.01-.38-.25-.29-.5-.58-.75-.88-.58-.43-1.49-.78-1.88-1.38-.24-.36-.12-.73-.12-1-.38-.29-.75-.58-1.13-.88-.24-.34-.25-.69-.5-1-.31-.39-.97-.46-1.38-.75-.35-.25-.37-.64-.63-1-.33-.48-1.75-1.65-2.26-2.13v-.12c.69.12,4.91,2.19,5.27,2.63h.25c-1.06-1.61-4.17-2.94-5.89-4.01-1.77-1.11-3.65-2.47-5.39-3.64-.89-.59-1.89-.78-2.76-1.38-.13-.09-.14-.42-.25-.5-.39-.29-1.53-.37-2.01-.63-.34-.18-.66-.6-1-.75-.29-.04-.58-.08-.88-.13-.42-.2-.79-.84-1.25-1-.71-.24-1.34-.05-2.13-.5-.44-.25-.6-.83-1-1.13v-.13c.51.22,1.67.09,2.26.38.4.2.58.7.88,1,.31.12,1.13-.22,1.75.13.25.29.5.58.75.88.53.35,1.14.36,1.75.63.77.34.53.69.88,1,.4.36,1,.38,1.38.75.09-.13.08-.12.12-.38.98.15,2.43.59,3.13,1.13h.25c.04-.13.08-.25.12-.38-2.07-1.02-4.23-2.48-6.39-3.38-1.17-.49-2.4-.43-3.51-1-.69-.35-1.66-1.1-2.26-1.63-.21-.29-.42-.58-.63-.88-1.19-.85-3.7-.68-4.39-2.01h-.12v-.25c1.39.2,2.67.84,3.89,1.25,2.29.77,4.38,1.32,6.52,2.26.7.31,1.29.95,2,1.25,1.46.63,3.36.6,4.89,1.13,1.62.56,2.65,2.28,4.01,3.13,1.09.68,2.4.94,3.51,1.63.54.34.77,1.01,1.25,1.38.93.71,2.05,1.41,3.01,2.01.58.36,1.29.39,1.88.75,1.54.93,3.18,1.92,4.64,3.01.65.49,1.14,1.47,1.63,2.13.45.6,1.23.85,1.75,1.38.28.28.31.76.63,1,2.51,1.87,4.7,4.08,6.9,6.27.51.5,1.13.97,1.7,1.48.08-.04.17-.09.25-.14-.74-.69-1.59-1.24-2.32-1.97-.66-.66-.61-1.52-1.13-2.26-.6-.86-1.78-1.38-2.63-2.01-.69-.51-1.31-1.85-2-2.51-1.13-1.07-2.53-1.65-3.89-2.51,0,0-1.07-1.44-1.5-1.76-1.8-1.3-3.75-2.41-5.52-3.76-.69-.53-1.09-1.55-1.88-2.01-1.09-.63-2.34-.73-3.39-1.38-2.16-1.34-4.49-3.63-7.02-4.51-.42-.15-.65.21-1.13,0-.78-.35-1.37-1.39-2.26-1.76-1.77-.71-3.51-.9-5.26-1.63-3.26-1.36-7.27-2.58-10.78-3.76-1.95-.66-3.69-.84-5.51-1.63-.29-.12-.6-.51-.88-.63-.58-.23-1.75-.48-2.26-.63h-1.38c-1.71-.44-3.73-.87-5.51-1.38h-1.38c-1.37-.33-3.29-.44-4.51-.75-.48-.12-1.05.07-1.38-.12h-.63c.52.71,1.41.57,1.98,1h.02s.08.08.12.12c-.04-.05-.1-.09-.15-.12h-.73c.09.08.17.17.25.25v.12c-1.6-.12-3.36-.88-4.89-1.25-1.91-.46-4.22-.46-5.52-.75-.81-.18-1.99.13-2.63-.25h-3.13c.28.34,1.15.65,1.63.75v.13c-1.33.26-2.36,0-3.64-.13-1.39-.15-3.58.11-5.14.5-1.56.39-3.4-.06-4.76.25-1.52.35-3.52-.07-4.64.63h-.25c.11.3.05.21.25.38-.59.54-2.31.94-3.13,1.13-.29-.04-.58-.08-.88-.12-1.69.43-3.7.87-5.39,1.5-8.52,3.19-16.53,5.66-24.95,8.78-1.08.4-2.12.32-3.26.75-1.04.4-4.13,2.23-5.52,1.63-.12-.05-.17-.46-.25-.5-.63-.35-1.25.85-1.63-.38-3.8.02-2.8.83-4.89,2.13-1.39.86-2.71,1.44-4.01,2.38-1.75,1.27-3.4,4.06-5.39,5.01-.06-.31-.02-.11,0-.5-.35.04-.66.09-.88.25h-.25c.22-.64.97-1.18,1.5-1.5v-.12c-2.06.57-2.55,2.59-4.01,3.51-.5.12-1,.25-1.5.38-.48.3-.66.75-1.38.88.05-.39.14-.69.25-1h-.12c-.17-.14-.88.4-1.13.63-.91.8-1.69,1.98-2.51,2.88h-.12c.03-.71.29-1.3.63-1.76v-.12c-.87.33-1.47,1.68-2.01,2.38-.38.33-.75.67-1.13,1-.89,1.18-1.74,2.31-2.63,3.51-.71.67-1.42,1.34-2.13,2-.75,1.13-1.02,2.13-2.13,2.88-.13.1-.03.05-.25.13-.13-.12-.25-.25-.38-.38-.39-.35-1.73,1.69-2.13,1.88-.81.38-2.51.08-3.38.75-.41.31-.55.97-.88,1.38-.18.22-.58.27-.75.5-.69.94-1.14,2.19-1.76,3.13-.04.25-.08.5-.12.75-.24.32-.85.2-1.25,1-.25.75-.5,1.5-.75,2.26-.22.52-.37.34-.88.25-.04.04-.08.08-.12.12,0,.53.02,1.17.25,1.5-.21.65-.85,1.25-1.38,1.25-.04.33-.08.67-.13,1-.33.15-1.07.33-1.25.63-.51.81-.44,2.41-1.38,2.76-.07.47-.08.37,0,.75-.04-.04-.08-.08-.12-.12-.81.09-2.23,3.12-2.63,3.89-.28-.08-.33-.09-.5-.25-1.64.23-.58,2.66-2.51,2.26-.25.61-.19,1.47-.5,2.13-.22.46-.83.71-1,1.25-.04.67-.08,1.34-.12,2-.3,1.12-.52,2.42-1,3.51-.16.36-.85.84-1.13,1.5-.42,1.46-.84,2.93-1.25,4.39v.25h-.12c.03-2.07.65-3.45,1.13-5.01.29-.97.13-2.2.63-3.01v-.75h-.25c-.61,1.05-1.39,2.21-1.75,3.38-.51,1.64-.48,3.06-1,4.64-2.08,6.26-3.02,13.66-4.64,20.06v2.63c.08.5-.35,4.63-.63,5.39-.12.33-1.03,1.26-.88,1.38v.12s-.08-.08-.13-.12h-.25c-.24,1.23-.34,2.38-.38,3.56,1.77-6.44,5.62-11.4,10.23-15.04Zm16.18-14.46c.2-.83.99-1.34,1.76-1.13.78.21,1.25,1.05,1.06,1.88-.19.83-.99,1.34-1.77,1.13-.78-.21-1.25-1.05-1.06-1.89Z"/><path class="cls-1" d="m243.7,32.72v-.12c-.38-.13-.37-.25-.75-.38.21.32.27.42.75.5Z"/><path class="cls-1" d="m178.76,1.5c.13.1.03.05.25.12v-.12h-.25Z"/><path class="cls-1" d="m242.2,31.47h-.37c.25.25.5.5.75.75h.38c-.25-.25-.5-.5-.75-.75Z"/><path class="cls-1" d="m55.27,53.66c-.07.19-.09.21-.13.5h.13c.07-.27.14-.25,0-.5Z"/><path class="cls-1" d="m240.07,33.73h-.25c.13.1.03.05.25.12v-.12Z"/><path class="cls-1" d="m211.86,4.76h1.25s-.08-.08-.12-.12c-.29-.34-1.08-.57-1.5-.75-.13.1-.03.05-.25.12.25.27.44.39.63.75Z"/><path class="cls-1" d="m211.23,4.01v-.12c-.23-.11-.33-.18-.62-.25.12.13.25.25.37.38h.25Z"/><path class="cls-1" d="m178.63,1.38h-.25c.2.15.1.2.25,0Z"/><path class="cls-1" d="m215.87,6.14h.75v-.13c-.67-.18-1.41-.72-1.75-1.25h-.88c-.13.1-.03.05-.25.13.35.61,1.63.76,2.13,1.25Z"/><path class="cls-1" d="m208.47,3.51v-.13c.21-.08.12-.02.25-.12-.17-.04-.33-.08-.5-.13.08.22.02.12.12.25.04.04.08.08.13.13Z"/><path class="cls-1" d="m224.14,18.68c.44.58,3.46,2.26,4.26,2.63v-.13c.1-.08.03,0,0-.12-.38-.51-3.49-2.33-4.26-2.38Z"/><path class="cls-1" d="m222.64,18.68c.18.36.21.49.63.63.06.08.43-.11.88-.13l-.12-.12c-.04-.08-.08-.17-.12-.25-.42-.04-.84-.08-1.25-.12Z"/><path class="cls-1" d="m216.62,12.91v-.12c-.12-.04-.25-.08-.38-.12.17.2.08.14.38.25Z"/><path class="cls-1" d="m233.67,29.34c.13.1.11.08.38.13-.14-.1-.12-.08-.38-.13Z"/><path class="cls-1" d="m32.05,119.59c-.02-.18-.05-.21-.23-.36-.14.42,0,2.49.24,3.39-.05-1.04-.05-2.05-.02-3.03Z"/><path class="cls-1" d="m244.2,30.72s-.08-.08-.13-.13c-.19-.28-.26-.38-.63-.5.2.31.36.5.75.63Z"/><path class="cls-1" d="m242.45,32.6c.04.29.06.31.13.5.08.04.17.08.25.12v-.12c.1-.08.03,0,0-.13-.15-.35-.02-.23-.38-.37Z"/><path class="cls-1" d="m242.32,34.6c-.19-.77-.61-1.19-1.25-1.5.15.77.68,1.04,1.13,1.5h.13Z"/><path class="cls-1" d="m241.19,34.23c.13.29.22.27.38.5h.12c-.14-.36-.18-.34-.5-.5Z"/><path class="cls-1" d="m244.2,30.72c.17.17.33.33.5.5-.14-.37-.11-.38-.5-.5Z"/><path class="cls-1" d="m244.2,22.69v-.12h-.25c.13.1.03.05.25.12Z"/><path class="cls-1" d="m243.95,22.44c-.22-.34-.45-.61-.88-.75.19.35.41.46.63.75h.25Z"/><path class="cls-1" d="m33.58,131.89h-.13c-.37-.71-.84-1.49-.88-2.51-.3.49-.11,1.88,0,2.38.12.92.25,1.84.38,2.76.08.26.42.53.5.75.04.38.08.75.13,1.13.12.04.25.08.38.12v1.63c.16.7.44,1.89.88,2.38v.25h-.25c-.21-.38-.42-.75-.63-1.13h-.38c.27,1.62,1.25,4.81,2.63,4.89.16.76.33,1.95.75,2.51v.25c.29-.09.28-.13.5-.25-.07-3.66-.75-5.97-1.63-8.9-.16-.86-.32-1.72-.48-2.58-.71-1.26-1.31-2.62-1.78-4.05v.37Z"/><path class="cls-1" d="m31.95,132.39v.5h.25v-.5h-.25Z"/><path class="cls-1" d="m39.22,142.67c.12-.03.06.04.12-.12.49.24.73,1.06.75,1.75h.25c-.3-1.23-.62-2.42-.96-3.59-.7-.62-1.37-1.34-2.02-2.14.31.57.61,1.14.85,1.72.37.89.29,1.85,1,2.38Z"/><path class="cls-1" d="m247.59,27.46c-.11-.45-.3-.56-.63-.75.13.38.3.45.5.75h.12Z"/><path class="cls-1" d="m109.03,176.83c2.2.59,4.38,1.24,6.53,1.93,1.21.08,2.43.25,3.63.52-.3-.16-.56-.32-.79-.46-2.83-1.84-4.75-4.2-4.74-7.12,0-.11,0-.22,0-.33-.18-.09-.36-.18-.54-.26.07.19.15.38.22.57-.11-.21-.21-.41-.32-.62-.88-.43-1.77-.85-2.67-1.26-.17,2.44-.62,4.8-1.33,7.05Z"/><path class="cls-1" d="m53.51,132.77h.13c-.08-.22-.03-.12-.13-.25v.25Z"/><path class="cls-1" d="m193.65,119.83c.31.72.58,1.46.83,2.23.83-1.43,1.69-2.82,2.58-4.17-.26-2.02-.6-4.02-1.02-6.01-.43-.24-.87-.47-1.31-.69-.87,2.05-1.7,4.14-2.48,6.26.54.72,1.02,1.52,1.39,2.38Z"/><path class="cls-1" d="m195.66,110.15c-.06-.23-.12-.46-.17-.69l-.21.49c.13.07.25.13.38.2Z"/><path class="cls-1" d="m186.63,104.66c1.14.3,2.28.45,3.34.42.77-1.65,1.59-3.31,2.45-4.98-.14-.33-.28-.67-.42-1.01-1.86,1.76-3.65,3.62-5.37,5.57Z"/><path class="cls-1" d="m235.93,17.68v-.12c-.29-.15-.42-.28-.75-.38.21.32.27.42.75.5Z"/><path class="cls-1" d="m228.16,12.91h.5v-.25c-.29-.16-.71-.35-1-.5.1.53.22.45.5.75Z"/><path class="cls-1" d="m224.39,9.65h.5v-.12c-.69-.24-1.16-1.07-1.76-1.25-.29.04-.59.08-.88.12,0,0-1.59-.6-1.63-.63-.49-.31-.61-.9-1.25-1.13-.15-.1-.21-.1-.5-.12-.13.1-.03.05-.25.12.39,1.41,4.63,1.99,5.77,3.01Z"/><path class="cls-1" d="m225.77,13.92h-.25c.13.1.03.05.25.13v-.13Z"/><path class="cls-1" d="m228.28,11.91h.5c-.42-.63-1.01-.57-1.63-1-.33-.23-.49-.95-.88-1.13-.32-.15-1.13-.08-1.38-.12.81,1.06,2.4,1.36,3.38,2.26Z"/><path class="cls-1" d="m234.55,15.42c1.48,1.04,2.96,2.21,4.39,3.26.49.36,1.12.54,1.5,1h.25c-.47-.68-2.4-2.15-3.13-2.63-.37-.25-.92-.21-1.25-.5-.28-.24-.36-.75-.63-1l-3.01-1.5c.03.65,1.25.93,1.88,1.38Z"/><path class="cls-1" d="m197.35,95.59c-1.05,1.8-2.04,3.6-2.96,5.39.32.84.61,1.7.89,2.56.67-1.33,1.35-2.66,2.08-4,1.66-3.08,3.48-6.16,5.48-9.21-1.42.97-2.8,1.98-4.16,3.04-.45.74-.89,1.48-1.32,2.22Z"/><path class="cls-1" d="m241.7,20.56v.13h.25c-.1-.53-.22-.56-.62-.75.1.35.13.44.37.63Z"/><path class="cls-1" d="m231.92,13.79c-.17-.52-.49-.84-.75-1.25-.73.04-.7-.03-1.38-.13.57.62,1.33.86,2.01,1.38h.12Z"/><path class="cls-1" d="m217.75,6.52v-.13c-.23-.08-.49-.12-.88-.12.1.09.28.16.38.25h.5Z"/><path class="cls-1" d="m113.46,180.3c-1.86.19-3.63.71-5.27,1.54,7.44,1.41,14.67,3.53,21.39,6.3.4-.07.8-.12,1.19-.15-.56-.69-1.15-1.36-1.79-1.97-4.94-2.18-10.13-4.08-15.52-5.71Z"/><path class="cls-1" d="m169.75,167.58c-1.09-4.37-2.4-7.75-3.48-9.51-.47.83-2.03,1.38-3.22.74-.15,1.09-.28,2.19-.4,3.29-.19,1.79-.34,3.52-.44,5.19h.11c.14,0,.29-.01.43-.02,1.08-.04,2.13.1,3.12.37,1.3.06,2.6.04,3.88-.06Z"/><path class="cls-1" d="m157.35,188.56c-2.91-1.97-4.9-5.4-5.03-9.36-.03-.85.03-1.69.17-2.5-1.08-1.98-2.16-4.2-3.13-6.55-2.11,3.23-4.06,6.56-5.84,9.96,1.22.86,2.41,1.75,3.57,2.66,2.45,1.92,4.79,3.95,7.02,6.07,1.07-.1,2.16-.19,3.24-.28Z"/><path class="cls-1" d="m190.51,109.26c-.74,1.74-1.42,3.48-2.06,5.21.57.21,1.14.5,1.67.88.68-1.77,1.39-3.55,2.16-5.34-.58-.26-1.18-.51-1.77-.75Z"/><path class="cls-1" d="m176,156.81c.57-1.64,1.49-3.04,2.57-3.73.08-3.59.31-7.3.77-11.13-.06.01-.11.04-.17.06-3.91,1.5-5.05,7.86-5.53,16.96-.34-4.31-.36-10.78.75-15.79-.56.42-1.11.86-1.66,1.29-.2,5.27-.41,10.71-.58,15.56-.39-4.35-.88-9.19-1.36-13.97-.38.32-.76.63-1.14.95.76,4.18.98,8.76.93,12.08-.52-4.44-1.16-8.2-2.15-11.03-1.15,1.01-2.29,2.05-3.39,3.1-.29.28-.59.57-.89.86-.09.44-.17.88-.25,1.33.54-.04,1.04.05,1.34.2,1.14.59,2.17,1.94,2.86,3.55,1.37,3.22,2.43,6.73,3.2,10.31.75-.11,1.5-.25,2.24-.42.53-3.51,1.34-6.96,2.47-10.17Z"/><path class="cls-1" d="m149.71,189.28l.62-.06c-1.43-1.29-2.9-2.55-4.42-3.77,1.27,1.23,2.53,2.51,3.79,3.83Z"/><path class="cls-1" d="m158.86,166.65c.48.11.95.21,1.44.31-.92-2.53-1.94-5.02-3.05-7.44-.41.48-.81.98-1.21,1.47.99,1.9,1.92,3.79,2.82,5.66h0Z"/><path class="cls-1" d="m173.66,123.8c1.17,1.81,3.45,2.98,6.95,3.83-.71.46-1.99.46-3.42.22l.23.1c1.38.64,2.69,1.43,3.91,2.36.51-2.29,1.1-4.61,1.78-6.96-.64-1.15-1.05-2.42-1.16-3.63-.25-2.83,1.65-5.23,4.2-5.54.71-1.89,1.48-3.79,2.3-5.7-1.31-.46-2.66-.87-4.03-1.22-4.06,4.97-7.68,10.49-10.76,16.54Z"/><path class="cls-1" d="m189.02,107.18c.31-.69.62-1.38.95-2.07-1.12.61-2.58.94-4.18.99,1.09.33,2.17.69,3.23,1.08Z"/><path class="cls-1" d="m172.85,173.75c.04-.81.1-1.62.17-2.43-.33.02-.67.04-1,.07.06.37.11.74.16,1.11.25.4.47.82.67,1.26Z"/><path class="cls-1" d="m140.76,152.76c.3-.11.6-.2.92-.26-1.69-1.7-3.41-3.29-5.15-4.76.74,2.04,1.73,3.96,2.91,5.73.4-.28.84-.52,1.31-.7Z"/><path class="cls-1" d="m135.3,156.9c.61,3.76,1.76,11.17,4.4,20.63.43.28.86.55,1.28.84,2.12-4.03,4.47-7.97,7.05-11.75-.33-.95-.62-1.92-.89-2.88-.34-.33-.67-.67-1.01-1-1.04-.67-2.06-1.4-3.04-2.19-.36-.21-.73-.41-1.1-.61-.39,2.79,1.61,6.38,4.68,6.86-3.37.26-7.31-2.26-8.97-5.41-.65-1.23-.85-2.57-.68-3.83-.57-.23-1.14-.45-1.72-.67Z"/><path class="cls-1" d="m154.41,163.04c-.21.27-.41.54-.61.8.34.52.69,1.05,1.03,1.58.41.16.83.3,1.25.44-.54-.99-1.09-1.94-1.66-2.83Z"/><path class="cls-1" d="m153.57,153.02c-.4.43-.77.87-1.1,1.33.69,1.23,1.36,2.45,2.02,3.67.43-.52.87-1.04,1.31-1.55-.63-1.25-1.28-2.49-1.97-3.7-.09.08-.17.16-.26.25Z"/><path class="cls-1" d="m156.92,167.5c-.31-.08-.62-.16-.94-.25.39.64.78,1.28,1.17,1.93.14-.1.29-.2.43-.3-.22-.46-.44-.92-.67-1.38Z"/><path class="cls-1" d="m150.08,163.2c.09.05.17.1.25.14l.33-.45c-.2-.26-.39-.52-.59-.78,0,.36,0,.72,0,1.08Z"/><path class="cls-1" d="m150.7,168.16c.47,2.28,1.18,4.72,2.07,7.32.36-1.28.92-2.46,1.65-3.52-1.13-1.42-2.28-2.82-3.47-4.16l-.25.36Z"/><path class="cls-1" d="m155.66,170.46c-1.26-1.31-2.57-2.57-3.94-3.76l-.09.12c.58.69,1.14,1.38,1.69,2.07.57.72,1.15,1.47,1.73,2.25.19-.24.4-.46.61-.68Z"/><path class="cls-1" d="m149.42,145.76c-2.95-4.22-6.29-8.13-10.02-11.64,3.18,4.3,6.12,8.67,8.81,13.03.36-.5.76-.96,1.21-1.39Z"/><path class="cls-1" d="m150.44,158.99c.52.71,1.03,1.43,1.54,2.17.18-.24.37-.48.55-.71-.64-.77-1.29-1.45-1.96-2.01-.05.18-.09.36-.13.55Z"/><polygon class="cls-1" points="151.28 156.4 151.38 156.51 151.3 156.36 151.28 156.4"/><path class="cls-1" d="m146.07,160.52c.13.08.25.16.37.25-.24-1.25-.41-2.49-.5-3.7-.13-.15-.25-.29-.38-.43-1.11.12-1.94.52-2.52,1.09.73.68,1.44,1.38,2.15,2.08.29.24.58.48.87.7Z"/><path class="cls-1" d="m173.37,168.15c-.62.11-1.24.2-1.86.27.13.66.25,1.31.36,1.97.42-.04.84-.1,1.26-.15.07-.7.15-1.39.25-2.09Z"/><path class="cls-1" d="m187.91,130.92c.9-.49,1.81-.97,2.72-1.43.91-1.95,1.86-3.86,2.88-5.7-.54-1.59-1.25-2.9-2.18-3.78-1.25,3.55-2.39,7.2-3.42,10.91Z"/><path class="cls-1" d="m186.88,119.04c-.58,1.81-1.12,3.62-1.6,5.42.21.78.58,1.52,1.11,2.11.74-2.57,1.56-5.18,2.48-7.81-.78-.14-1.45-.02-1.99.28Z"/><path class="cls-1" d="m192.5,131.78c-1.34,2.64-2.56,5.38-3.64,8.25.23.53.44,1.07.62,1.62.92-1.92,1.9-3.79,2.89-5.5.18-.31.37-.62.55-.93-.03-.09-.06-.17-.09-.26-.39-1.29-.31-2.43.07-3.38l-.41.21Z"/><path class="cls-1" d="m191.41,152.91c-.28-.34-.58-.66-.9-.97-.1.67-.23,1.34-.4,1.99-.87,3.4-2.44,6.09-4.46,8.2-.68,2.03-1.29,4.08-1.85,6.15.37-.07.73-.13,1.07-.19,1.9-4.92,4.07-10.01,6.54-15.18Z"/><path class="cls-1" d="m186.87,134.85c-.09.35-.18.71-.27,1.06.3.44.58.88.85,1.34.43-1.18.87-2.34,1.33-3.49-.64.36-1.28.72-1.91,1.09Z"/><path class="cls-1" d="m119.67,151.53c1.98.14,3.99.4,6,.78-2.25-1.33-4.18-3.22-5.26-5.64-5.33-1.49-10.52-1.66-13.91.91.4.99.79,2.09,1.17,3.34.56-1.14,1.41-2.12,2.42-2.81.04-.07.08-.14.12-.21,1.09-1.71,3.2-1.99,4.46-.74,1.92.39,3.72,1.65,4.66,3.46.15.29.27.6.35.91Z"/><path class="cls-1" d="m186.6,139.71c-.17-.49-.36-.96-.57-1.43-.94,4.04-1.75,8.15-2.44,12.31.21-.96.44-1.91.67-2.85-.05-1.35.3-2.61.96-3.6.43-1.5.89-2.98,1.37-4.43Z"/><path class="cls-1" d="m187.55,150.39c-.2-.02-.4-.03-.58-.02-1.06,2.94-1.94,5.96-2.61,9.06,1.12-1.76,2.02-3.85,2.65-6.31.23-.91.41-1.82.54-2.73Z"/><polygon class="cls-1" points="183.46 164.41 183.61 163.93 183.53 164 183.46 164.41"/><path class="cls-1" d="m185.74,150.69c-.07.04-.13.07-.19.12-.12.53-.25,1.06-.37,1.6.17-.56.36-1.13.56-1.72Z"/><path class="cls-1" d="m183.48,132.17c.27.27.53.53.78.8l.53-.31c.46-1.93.97-3.88,1.52-5.85-.48-.28-.95-.64-1.38-1.05-.55,2.16-1.04,4.29-1.46,6.41Z"/><path class="cls-1" d="m187.79,167.86c1.43-2.79,2.92-5.47,4.44-8.03.28-.81.55-1.63.82-2.45-2.26,2.46-4.24,6.34-5.84,10.48.19,0,.38,0,.58,0Z"/><path class="cls-1" d="m194.3,160.47c-.75,1.12-1.49,2.27-2.21,3.45.74-.74,1.5-1.46,2.28-2.16-.01-.43-.04-.86-.07-1.28Z"/><path class="cls-1" d="m192.31,168.19c.49.08.98.17,1.45.27.17-.94.31-1.85.41-2.74-.63.81-1.25,1.63-1.86,2.47Z"/><path class="cls-1" d="m193.89,144.1c.15.13.3.26.44.39.06-.44.13-.92.18-1.41-.21.34-.42.68-.62,1.02Z"/><path class="cls-1" d="m193.61,164.53c-1.13,1.1-2.22,2.24-3.26,3.43.26.02.52.04.78.07.12-.19.26-.37.38-.55.68-.99,1.37-1.96,2.1-2.95Z"/><polygon class="cls-1" points="192.63 154.98 192.72 154.86 192.7 154.82 192.63 154.98"/><path class="cls-1" d="m186.54,174.01c-.78,1.58-1.54,3.21-2.28,4.87l.08.03c.71-1.55,1.44-3.19,2.2-4.91Z"/><path class="cls-1" d="m189.19,171.01l-.16-.03-.4.93c.18-.3.37-.6.56-.9Z"/><polygon class="cls-1" points="186.3 170.6 186.23 170.6 186.17 170.78 186.3 170.6"/><path class="cls-1" d="m183.22,170.56c-.15.62-.29,1.25-.43,1.87-.01.44-.02.88-.02,1.32.37-1.06.77-2.13,1.17-3.2-.24,0-.47,0-.71.01Z"/><path class="cls-1" d="m62.18,168.21c.05,0,.1.01.15.02-.06-.04-.12-.08-.17-.1,0,.03.01.05.02.08Z"/><path class="cls-1" d="m63.04,164.99c-.16,1.03.07,1.78.39,2.49.12-.73.25-1.45.38-2.17-.25-.14-.37-.25-.77-.32Z"/><path class="cls-1" d="m66.42,164.11h0c-.03.12-.05.24-.07.36.17.15.33.31.45.52.23.4.13,1,.38,1.38.04.08.08.17.13.25.09-.04.14-.07.17-.1-.38-.84-.72-1.73-1-2.67-.02.08-.03.17-.05.26Z"/><path class="cls-1" d="m64.67,160.73h-.12c.02.16.08.34.16.52.02-.08.05-.16.07-.25-.04-.07-.07-.16-.1-.28Z"/><path class="cls-1" d="m65.6,168.75c.37.07.73.14,1.09.21-.27-.49-.59-.89-.92-1.31-.06.37-.12.73-.17,1.1Z"/><path class="cls-1" d="m161.08,159.4c.18-1.66.39-3.28.63-4.89-1.18,1.23-2.32,2.5-3.44,3.79.86,1.89,1.67,3.81,2.41,5.76.09-1.51.22-3.06.4-4.66Z"/><path class="cls-1" d="m64.17,159.6h.63c.05.25.11.49.16.73.12-.44.23-.89.36-1.33-.47,0-.94,0-1.4-.01.08.21.17.41.26.61Z"/><path class="cls-1" d="m69.68,175.27h.12v-.25c-.17-.17-.33-.34-.5-.5.04.21.08.42.12.62.22.08.12.03.25.13Z"/><path class="cls-1" d="m62.54,159.47v.25h.12c-.02-.26-.05-.5-.1-.74-.1,0-.19,0-.29,0,.1.21.19.38.27.48Z"/><path class="cls-1" d="m68.25,168.07c-.18-.32-.35-.64-.51-.98-.02,0-.04.02-.06.03.15.37.34.68.58.95Z"/><path class="cls-1" d="m68.91,169.13s-.06.08-.1.12c0,.06.02.11.03.16.1.02.2.04.3.06-.08-.11-.15-.23-.22-.35Z"/><path class="cls-1" d="m72.99,173.32l-.26-.07c-.49-.03-.99-.05-1.49-.07.66.54,1.39,1.15,1.69,1.59.13.37.25.75.38,1.13.21.36.71.87.88,1.25v.63c.21.41.89.85,1.13,1.25.21.36.27.76.4,1.13.2-.02.39-.04.59-.06.12-.13.27-.25.47-.36.49-1.54,1.04-3.01,1.65-4.42-1.96-.22-3.8-.9-5.45-2Z"/><path class="cls-1" d="m95.59,156.36c.34-.18.69-.36,1.04-.54-6,.81-13.43-.3-14.82-5.9-.93-3.78,1.05-7.09,4.51-6.45,5.56,1.04,4.88,6.39,3,7.84,3.07,2.16,6.36,2.57,9.68,2.32-.15-1.15-.16-2.35,0-3.55.2-1.46.57-2.72,1.09-3.79-3.71-3.65-8.33-6.11-13.34-6.52-2.89-.24-5.82.41-8.49,1.73-3.39,3.22-6.16,7.22-8.27,11.81,6.47.92,12.84,2.23,19.06,3.91,2.11-1.07,4.51-1.47,6.55-.86Z"/><path class="cls-1" d="m117.98,151.43c-.46-1.2-1.35-1.98-2.37-2.32.19,1.04,0,1.79-.39,2.3.91-.01,1.83,0,2.76.03Z"/><path class="cls-1" d="m63.42,159.1h.25s-.01-.08-.02-.11c-.08,0-.16,0-.23,0v.11Z"/><path class="cls-1" d="m75.77,182.72c-.64-.29-1.33-.79-1.7-1.05v-.21c-.43.05-.85.11-1.27.17.37.24.78.45,1.02.54.06.58.2.55.25,1.13-.44-.03-.53-.04-.75-.25-.91,0-1.51-.56-1.95-1.21-1.58.25-3.13.54-4.65.89,2.47,1.42,5.34,1.84,8.53.64.25-.2.41-.41.51-.64Z"/><path class="cls-1" d="m59.77,156.73c.3-.01.61-.02.92-.03-.02-.05-.04-.11-.06-.16-.32-.03-.64-.06-.96-.09.04.09.07.18.1.28Z"/><path class="cls-1" d="m62.73,172.91c-1.29-.01-2.57,0-3.86,0,.96,2.14,2.14,4.19,3.53,5.94.04-2,.15-3.99.34-5.95Z"/><path class="cls-1" d="m61.43,156.68c.17,0,.34-.01.51-.01-.18-.02-.35-.03-.53-.05,0,.02.01.04.02.07Z"/><path class="cls-1" d="m62.14,171.21s-.04-.06-.06-.09c-1.37-.17-2.74-.3-4.09-.37.06.16.12.31.17.47,1.32-.01,2.65-.01,3.97,0Z"/><path class="cls-1" d="m60.41,159.22h.5c.18,2.34,1.67,4.34,2.99,5.63.04-.23.09-.45.13-.68-.05-.11-.09-.21-.12-.31-.18-.62.02-1.12-.25-1.63-.1-.18-.41-.37-.5-.63-.04-.33-.08-.67-.12-1-.24-.58-.67-.34-1-.87-.11-.18-.24-.43-.39-.73-.44,0-.88.01-1.32.02.03.07.05.14.08.21Z"/><path class="cls-1" d="m177.88,157.63c-.9,1.73-1.91,4.87-2.69,8.88,1.31-.44,2.55-.99,3.72-1.71-.17-2.14-.29-4.34-.34-6.59-.3-.14-.54-.35-.69-.58Z"/><path class="cls-1" d="m177.51,177.64c.97-.04,1.93.02,2.86.15.05-.31.11-.63.16-.94-.37-1.95-.7-3.99-.98-6.09-1.68.14-3.41.3-5.1.44-.27,2.09-.46,4.33-.55,6.67,0,.1.01.21.02.31,1.15-.31,2.35-.5,3.59-.54Z"/><path class="cls-1" d="m146.25,110.14c1.54-1,3.16-1.88,4.86-2.64-2.19.28-4.59.32-6.76,0,.93.64,1.62,1.55,1.9,2.64Z"/><path class="cls-1" d="m176.84,128.95c-1.15-.53-2.3-.94-3.47-1.25-.12,3.58-.3,8.07-.49,12.86,1.14-.86,2.29-1.69,3.46-2.51.73-1.1,1.64-1.86,2.75-2.14.18-.04.37-.07.56-.09.21-.14.43-.28.64-.41.23-1.26.47-2.53.74-3.81-1.24-1.04-2.64-1.93-4.21-2.65Z"/><path class="cls-1" d="m151.36,105.23c.08-.79-1.42-3.59-4.77-1.27-.26.18-.51.44-.78.73,1.8.78,3.67,1.08,5.56,1.09-.01-.16-.02-.34-.01-.54Z"/><path class="cls-1" d="m174.6,170.03c1.66-.25,3.26-.56,4.75-.86-.1-.87-.2-1.76-.28-2.65-1.32.55-2.7.98-4.12,1.31-.12.71-.24,1.45-.35,2.2Z"/><path class="cls-1" d="m169.99,168.58c-.56.04-1.12.07-1.69.09.74.43,1.43.95,2.05,1.55-.12-.56-.24-1.11-.37-1.64Z"/><path class="cls-1" d="m164.07,142.61l-.1-.04c-1.17-.35-2.19.51-2.38,1.49-1.27-1.1-1.8-3.01-1.55-4.66.37-2.43,2.08-3.17,3.61-2.92.69.11,1.31.42,1.88.89.99-3.25,2.1-6.39,3.34-9.41l-.09-.9c-5.07-.08-9.75,1.99-12.64,6.12-2.2,3.15-2.77,7.41-1,10.21.93.13,1.83.55,2.61,1.38.33.35.61.75.84,1.19.42.13.87.23,1.36.3,2.62.58,2.34,3.35-.78,3.8-.12.66-.32,1.34-.64,2.01-.72-.68-2.1-.8-3.43-.17.61,1.11,1.19,2.23,1.75,3.36,1.84-2.07,3.75-4.07,5.75-5.98.44-2.28.93-4.5,1.48-6.68Z"/><path class="cls-1" d="m170.41,142.48c-.34-3.21-.67-6.32-.97-9.16-.78,2.03-1.49,4.11-2.16,6.24.65,1.16,1.19,2.58,1.63,4.14.5-.41,1-.82,1.5-1.22Z"/><path class="cls-1" d="m167.11,145.2c-.33-.52-.69-.98-1.08-1.37-.26.98-.52,1.97-.76,2.98.61-.54,1.22-1.08,1.84-1.61Z"/><path class="cls-1" d="m136.77,129.34c5.32,4.35,9.96,9.57,13.91,15.37.08-.05.16-.11.24-.16-.98-2.63-.88-5.69,0-8.34.33-1,.75-1.91,1.25-2.76-.3-.11-.57-.3-.81-.59-1.12-1.4.87-2.17.17-3.41-.81-1.46-2.79-2.4-5.28-2.27-2.84,1.07-5.93,1.48-9.12,1.09-.12.35-.25.71-.36,1.07Z"/><path class="cls-1" d="m88.2,194.73c-3.13.36-6.15.22-9-.36-.02,1.35.04,2.68.17,3.97,4.46-.61,8.91-.71,13.26-.36.99-.2,1.99-.41,2.99-.61-.07-1.66.08-3.34.44-4.94-2.38,1.17-5.01,1.96-7.86,2.29Z"/><path class="cls-1" d="m66.62,185.2c1.28,1.26,2.65,2.41,4.11,3.41.72-.13,1.45-.43,2.13-.9-2.23-.33-4.34-1.22-6.25-2.51Z"/><path class="cls-1" d="m59.03,180.04c-.35-.36-.9-.53-1.25-.88-.22.36-.08.97-.38,1.25v.38c.11.04.21.08.32.12.59-.17,1.18-.26,1.75-.28-.13-.21-.27-.42-.44-.59Z"/><path class="cls-1" d="m55.67,172.97c.27.44.59.88.35,1.29.07.57.52.99,1.04,1.34-.39-.87-.77-1.74-1.11-2.64-.09,0-.19,0-.28,0Z"/><path class="cls-1" d="m72.91,159.31c-1.73-.12-3.45-.2-5.15-.26l-.1.31c.05.54.12,1.08.23,1.62.75,3.88,4.07,7.26,8.35,5.17,3.56-1.74.82-8.06-2.18-5.18-1.35,1.29-1.59-.1-1.3-1.19.04-.16.09-.32.15-.47Z"/><path class="cls-1" d="m158.05,113.17c.74-1.92,1.23-3.95,1.46-6.04-9.91,2.87-17.84,9.58-21.89,19.85,8.76,1,16.79-4.48,20.43-13.81Z"/><path class="cls-1" d="m135.59,133.92c-.57,2.87-.66,5.6-.37,8.19,3.53,3.07,6.98,6.61,10.32,10.6.17.05.34.1.51.16.18-1.32.51-2.56,1.01-3.71-3.58-5.85-7.33-11.35-11.21-16.46-.09.4-.18.81-.26,1.22Z"/><path class="cls-1" d="m70.94,176.65s-.08-.09-.13-.12c-.13-.38-.11-.37-.5-.5.11.18.23.36.38.5v.12h.25Z"/><path class="cls-1" d="m134.95,154.88c.85.32,1.7.66,2.53,1.02.06-.13.12-.27.19-.4-.51-.38-1.02-.76-1.53-1.13-.4.08-.82.14-1.25.17l.06.34Z"/></svg>