<?xml version="1.0" encoding="UTF-8"?><svg id="Layer_1" xmlns="http://www.w3.org/2000/svg" viewBox="0 0 1024 300"><defs><style>.cls-1{fill:#fff;}</style></defs><path class="cls-1" d="m283.07,206.11c0,32.52,24.1,58.63,64.32,58.63,25.48,0,41.43-10.2,51.83-22.83l4.68,20.23h12.65v-63.65h-67.61v19.37h39.7c-2.08,13.14-17.16,23.7-36.92,23.7-25.14,0-38.31-16.26-38.31-35.46,0-21.96,15.6-36.84,42.64-36.84,17.51,0,32.59,5.88,45.25,13.66l12.31-22.48c-16.47-10.21-33.46-16.09-56.86-16.09-45.94,0-73.68,27.15-73.68,61.75m99.33-135.1V10.13h-30.16v59.15c0,24.04-7.46,33.21-23.92,33.21-13,0-27.22-6.4-37.96-13.49l-13.35,22.66c10.92,7.44,29.3,16.43,51.66,16.43,40.39,0,53.74-22.66,53.74-57.08m87.86,12.28c0,13.15-8.49,24.39-25.65,24.39s-25.66-11.42-25.66-24.56,8.49-24.39,25.66-24.39,25.65,11.42,25.65,24.56m27.74,0c0-27.15-22.19-45.31-53.39-45.31s-53.4,17.99-53.4,45.14,22.19,45.31,53.4,45.31,53.39-17.99,53.39-45.14m-8.8,118.33c4.85,0,7.97.52,11.61,1.04v-25.25c-2.94-.52-6.06-.86-9.19-.86-17.51,0-28.78,9.68-34.5,22.66l-2.08-21.28h-24.44v84.23h28.78v-40.64c0-11.59,13-19.89,29.82-19.89m91.34-76.3h24.62V41.09h-28.6v44.97c0,10.2-9.19,20.23-23.57,20.23-12.48,0-17.86-7.09-17.86-17.3v-47.91h-28.78v51.37c0,21.45,13,35.28,35.02,35.28,16.82,0,27.56-8.3,36.23-18.85l2.95,16.43Zm1.42,94.8c0,13.14-8.49,24.39-25.66,24.39s-25.66-11.42-25.66-24.56,8.49-24.39,25.66-24.39,25.66,11.42,25.66,24.56m27.74,0c0-27.15-22.19-45.32-53.39-45.32s-53.39,17.99-53.39,45.14,22.19,45.32,53.39,45.32,53.39-17.99,53.39-45.14m37.12-42.2h-28.78v51.37c0,21.45,13,35.28,35.02,35.28,16.82,0,27.56-8.3,36.23-18.85l2.94,16.43h24.62v-84.23h-28.6v44.97c0,10.2-9.19,20.24-23.58,20.24-12.48,0-17.85-7.09-17.85-17.3v-47.91Zm29.65-113.14c4.86,0,7.97.52,11.61,1.04v-25.25c-2.95-.52-6.07-.87-9.19-.87-17.51,0-28.55,9.69-34.28,22.66l-2.08-21.28h-24.44v84.23h28.78v-40.64c0-11.59,12.78-19.89,29.6-19.89m90.52,60.54h28.78v-51.37c0-21.28-13-34.94-35.02-34.94-16.82,0-27.56,7.95-36.4,18.68l-2.78-16.6h-24.62v84.23h28.78v-44.97c0-10.03,9.02-20.07,23.4-20.07,12.48,0,17.86,6.92,17.86,17.3v47.74Zm39.41,94.8c0,13.66-9.02,24.39-24.1,24.39-14.21,0-24.79-10.38-24.79-24.39s10.58-24.56,24.79-24.56c15.08,0,24.1,10.9,24.1,24.56m-14.74-44.28c-17.51,0-27.91,7.96-35.54,17.12l-2.43-15.05h-24.62v112.42h28.78v-40.3c6.93,7.26,16.99,14.35,33.11,14.35,24.27,0,42.99-16.95,42.99-44.28s-18.38-44.28-42.3-44.28m85.07-100.68h-46.46c2.77-10.89,11.79-17.82,24.62-17.82s19.94,6.57,21.84,17.82m26.35,7.61c0-25.25-15.43-44.45-48.71-44.45-29.82,0-50.45,19.37-50.45,46.01,0,25.08,18.55,43.24,52.7,43.24,17.68,0,31.03-3.98,44.72-9.68l-7.8-18.16c-11.27,4.5-22.01,7.61-34.15,7.61-16.82,0-26.35-6.4-29.12-17.64h72.81v-6.92Zm108.92-41.68h-28.95l-26.18,57.42h-.17l-28.08-57.42h-30.34l42.65,79.73-1.91,3.63c-3.99,7.61-12.31,9.68-25.66,9.68h-2.95l-2.2,20.07h11.09c29.3,0,39.82-10.55,53.52-37.01l39.18-76.1Z"/><path class="cls-1" d="m70.73,150.45l44.93,29.57,44.76-29.3-45-110.47-44.68,110.2Zm-6.41,15.8l-26.14,64.48,62.23-40.74-36.09-23.75Zm66.56,23.78l62.25,40.97-26.28-64.51-35.97,23.55Zm80.17,71.12c-1.6,0-3.2-.46-4.61-1.38l-90.81-59.76-90.67,59.36c-3.06,2-7.07,1.79-9.9-.53-2.83-2.32-3.82-6.21-2.45-9.59L107.64,14.88c1.28-3.15,4.35-5.22,7.75-5.22h0c3.41,0,6.47,2.06,7.75,5.21l95.66,234.79c1.38,3.39.39,7.28-2.44,9.61-1.54,1.26-3.42,1.89-5.31,1.89"/></svg>