<?xml version="1.0" encoding="UTF-8"?><svg id="Layer_1" xmlns="http://www.w3.org/2000/svg" viewBox="0 0 263.26 87.25"><defs><style>.cls-1{fill:#fff;}.cls-2{fill:#818e95;}.cls-3{fill:#565f68;}.cls-4{fill:#b1b8c0;}</style></defs><path class="cls-1" d="m10.24,67.5v19.75h-2.86v-19.75H0v-2.47h17.63v2.47h-7.39Z"/><path class="cls-1" d="m38.84,87.25v-9.93h-12.09v9.93h-2.86v-22.23h2.86v9.82h12.09v-9.82h2.89v22.23h-2.89Z"/><path class="cls-1" d="m50.46,87.25v-22.23h11.77v2.47h-8.92v7.35h7.42v2.47h-7.42v7.45h10.17v2.47h-13.03Z"/><path class="cls-1" d="m88.81,87.25h-6.97v-22.23h5.82c3.03,0,6.13,2.02,6.13,5.68,0,1.71-.87,3.41-2.26,4.01,2.3.56,4.42,2.96,4.42,5.85,0,4.39-3.62,6.69-7.14,6.69Zm-1.57-19.86h-2.68v6.55h2.72c1.95,0,3.66-1.04,3.66-3.24s-1.67-3.31-3.69-3.31Zm.91,8.85h-3.59v8.64h3.69c2.54,0,4.84-1.46,4.84-4.32s-2.33-4.32-4.95-4.32Z"/><path class="cls-1" d="m116.45,87.25l-7.18-9.96h-3.03v9.96h-2.82v-22.23h6.41c3.27,0,6.62,2.12,6.62,6.13,0,2.93-1.81,4.88-4.15,5.68l7.7,10.42h-3.55Zm-7.11-19.75h-3.1v7.42h3.14c2.19,0,4.15-1.25,4.15-3.69s-1.95-3.73-4.18-3.73Z"/><path class="cls-1" d="m141.71,87.25l-2.47-5.99h-9.02l-2.44,5.99h-2.82l9.3-22.54h1.04l9.3,22.54h-2.89Zm-5.89-14.42c-.35-.87-.73-2.02-1.04-3.07h-.07c-.28,1.04-.73,2.19-1.08,3.07l-2.44,6.13h7.07l-2.44-6.13Z"/><path class="cls-1" d="m157.51,87.25h-6.34v-22.23h6.34c6.44,0,12.16,4.01,12.16,11.11s-5.71,11.11-12.16,11.11Zm-.49-19.75h-2.96v17.35h2.96c5.43,0,9.72-2.89,9.72-8.67s-4.29-8.67-9.72-8.67Z"/><path class="cls-1" d="m184.2,87.25h-6.97v-22.23h5.82c3.03,0,6.13,2.02,6.13,5.68,0,1.71-.87,3.41-2.26,4.01,2.3.56,4.42,2.96,4.42,5.85,0,4.39-3.62,6.69-7.14,6.69Zm-1.57-19.86h-2.68v6.55h2.72c1.95,0,3.66-1.04,3.66-3.24s-1.67-3.31-3.69-3.31Zm.91,8.85h-3.59v8.64h3.69c2.54,0,4.84-1.46,4.84-4.32s-2.33-4.32-4.95-4.32Z"/><path class="cls-1" d="m207.54,87.63c-5.16,0-8.88-3.03-8.88-8.15v-14.46h2.86v14.18c0,3.59,2.09,5.89,6.03,5.89s6.06-2.3,6.06-5.89v-14.18h2.79v14.46c0,5.12-3.69,8.15-8.85,8.15Z"/><path class="cls-1" d="m238.07,87.25l-7.18-9.96h-3.03v9.96h-2.82v-22.23h6.41c3.27,0,6.62,2.12,6.62,6.13,0,2.93-1.81,4.88-4.15,5.68l7.7,10.42h-3.55Zm-7.11-19.75h-3.1v7.42h3.14c2.19,0,4.15-1.25,4.15-3.69s-1.95-3.73-4.18-3.73Z"/><path class="cls-1" d="m254.73,77.01v10.24h-2.79v-10.24l-8.5-11.98h3.14l4.63,6.51c.7,1.01,1.53,2.23,2.19,3.27h.07c.66-1.04,1.53-2.33,2.19-3.27l4.63-6.51h2.96l-8.53,11.98Z"/><path class="cls-1" d="m134.82,25c2.23.58,4.21,1.74,5.79,3.32,2.21,2.21,3.61,5.23,3.71,8.58h8.37c1.99-3.51,3.12-7.57,3.12-11.89,0-6.68-2.71-12.73-7.09-17.11-2.97-2.97-6.72-5.18-10.91-6.28,1.03.57,1.96,1.29,2.79,2.11,2.3,2.3,3.72,5.47,3.72,8.98s-1.42,6.68-3.72,8.98c-1.58,1.58-3.57,2.74-5.79,3.32h0Zm-2.79,24.18c3.12-.1,5.94-1.41,8.01-3.48,2.15-2.15,3.48-5.13,3.48-8.41s-1.33-6.26-3.48-8.41c-2.06-2.06-4.88-3.37-8.01-3.48v23.77h0Zm-.81-23.78h-8.74c.55.3,1.04.68,1.48,1.11,1.19,1.19,1.92,2.83,1.92,4.63s-.73,3.45-1.92,4.63c-.44.44-.93.81-1.48,1.11h8.74v-11.49h0Zm-15.04,0h-8.74c.07,4.17,1.19,8.09,3.12,11.49h5.62c-.55-.3-1.04-.68-1.48-1.11-1.19-1.19-1.92-2.83-1.92-4.63s.73-3.45,1.92-4.63c.44-.44.94-.81,1.48-1.11h0Zm3.3,12.3h-8.44c.99,1.6,2.16,3.08,3.49,4.41,4.29,4.29,10.18,6.97,16.7,7.08v-11.49h-11.75Zm-.26-13.1h9.34l-20.41-5.47c-.44,1.75-.68,3.59-.71,5.47h11.78Zm-10.86-6.25l20.41,5.47-18.29-10.56c-.89,1.6-1.6,3.3-2.11,5.09h0Zm2.52-5.79l18.29,10.56-14.93-14.93c-1.28,1.32-2.41,2.79-3.36,4.37h0Zm8.3-8.3c-1.58.95-3.05,2.08-4.37,3.36h0l14.93,14.93m.7-.4l-5.47-20.41c-1.79.51-3.5,1.22-5.09,2.11h0m5.87-2.32l5.47,20.41V.81c-1.88.03-3.71.28-5.47.71h0Zm-11.81,5.8c4.52-4.52,10.77-7.32,17.68-7.32h.18c6.83.05,13.02,2.84,17.5,7.32,4.52,4.52,7.32,10.77,7.32,17.68s-2.8,13.15-7.32,17.68c-4.49,4.49-10.67,7.28-17.51,7.32h-.16c-6.9,0-13.15-2.8-17.68-7.32-4.52-4.52-7.32-10.77-7.32-17.68s2.8-13.15,7.32-17.68h0Z"/><circle class="cls-3" cx="119.33" cy="31.14" r="6.52"/><path class="cls-1" d="m119.33,25.38c3.18,0,5.77,2.59,5.77,5.77s-2.59,5.77-5.77,5.77-5.77-2.59-5.77-5.77,2.59-5.77,5.77-5.77m0-.75c-3.6,0-6.52,2.92-6.52,6.52s2.92,6.52,6.52,6.52,6.52-2.92,6.52-6.52-2.92-6.52-6.52-6.52h0Z"/><path class="cls-2" d="m131.7.02c-.16,0-.31.02-.47.02v25.36c.16,0,.31.02.47.02,7.01,0,12.7-5.69,12.7-12.7S138.72.02,131.7.02Z"/><path class="cls-1" d="m131.99.78c6.46.15,11.67,5.45,11.67,11.95s-5.21,11.8-11.67,11.95V.78m-.28-.75c-.16,0-.31.02-.47.02v25.36c.16,0,.31.02.47.02,7.01,0,12.7-5.69,12.7-12.7S138.72.02,131.7.02h0Z"/><path class="cls-4" d="m143.87,37.24h9.12s-6.43,12.5-21.75,12.36c0,0,11.64-.3,12.64-12.36Z"/><path class="cls-1" d="m131.48,49.98c-.08,0-.17,0-.25,0v-.75c.46-.01,11.31-.45,12.27-12.02l.03-.34h10.08l-.28.55c-.06.13-6.64,12.56-21.84,12.56Zm12.73-12.36c-.62,6.17-4.06,9.2-6.86,10.66-.36.19-.72.35-1.07.5,9.74-1.88,14.79-9.11,16.05-11.16h-8.12Z"/></svg>