<?xml version="1.0" encoding="utf-8"?>
<!-- Generator: Adobe Illustrator 28.3.0, SVG Export Plug-In . SVG Version: 6.00 Build 0)  -->
<svg version="1.1" id="a" xmlns="http://www.w3.org/2000/svg" xmlns:xlink="http://www.w3.org/1999/xlink" x="0px" y="0px"
	 viewBox="0 0 624.2 120.4" style="enable-background:new 0 0 624.2 120.4;" xml:space="preserve">
<g>
	<polygon points="32.9,70 1.1,70 1.1,77.1 12.9,77.1 12.9,109.1 21.1,109.1 21.1,77.1 32.9,77.1 	"/>
	<path d="M49.6,97.8c0,0.8-0.2,1.6-0.5,2.3c-0.3,0.7-0.8,1.3-1.4,1.8c-0.6,0.5-1.2,1-1.8,1.3s-1.5,0.4-2.4,0.4c-1.3,0-2.3-0.4-3-1.1
		s-1.1-2.1-1.1-4.1V80.6h-7.7v18.9c0,3.7,0.8,6.3,2.3,8s3.9,2.5,7.2,2.5c1.7,0,3.3-0.4,4.7-1.2c1.5-0.8,2.8-2,4-3.7v3.9h7.4V80.6
		h-7.7V97.8L49.6,97.8z"/>
	<path d="M77.3,79.7c-2.1,0-4.1,0.3-5.8,1c-1.8,0.7-3.3,1.7-4.5,3s-2.2,2.9-2.9,4.8c-0.7,1.9-1,4-1,6.4c0,4.8,1.2,8.5,3.6,11.2
		c2.4,2.6,6,3.9,10.7,3.9c3.9,0,6.9-0.8,9-2.5s3.3-4.1,3.9-7.3h-7.4c-0.5,2.6-2.3,3.8-5.4,3.8c-2.2,0-3.8-0.6-4.9-1.9
		s-1.7-3.1-1.8-5.4h19.8v-3.1c0-4.3-1.1-7.7-3.3-10.2C85,80.9,81.7,79.7,77.3,79.7L77.3,79.7z M70.8,91.7c0-0.9,0.2-1.7,0.5-2.4
		s0.7-1.4,1.2-2s1.2-1,1.9-1.3c0.8-0.3,1.7-0.5,2.7-0.5c2,0,3.6,0.5,4.5,1.6c1,1.1,1.5,2.6,1.5,4.6C83.1,91.7,70.8,91.7,70.8,91.7z"
		/>
	<path d="M118.3,94.9c-0.8-0.7-1.8-1.4-3.1-1.9c-1.3-0.5-3-0.9-5-1.3l-3.6-0.6c-1.6-0.3-2.7-0.6-3.3-1.1c-0.6-0.4-0.8-1.1-0.8-2
		c0-0.3,0.1-0.6,0.2-0.9c0.2-0.3,0.4-0.6,0.8-0.9s0.9-0.5,1.6-0.6c0.7-0.2,1.5-0.2,2.5-0.2c1.8,0,3.1,0.3,4,0.9
		c0.8,0.6,1.4,1.6,1.7,2.9l6.8-0.9c-0.2-1.2-0.6-2.3-1.1-3.4s-1.2-2-2.2-2.7c-1-0.8-2.2-1.4-3.8-1.8s-3.4-0.7-5.7-0.7
		c-1.8,0-3.5,0.2-5,0.6s-2.8,1-3.9,1.8s-1.9,1.7-2.5,2.8C95.3,86,95,87.2,95,88.6c0,2.7,0.8,4.7,2.5,6.1c1.7,1.3,4.3,2.3,7.8,2.8
		l3.9,0.7c1.4,0.2,2.3,0.6,2.8,1.2c0.5,0.5,0.7,1.2,0.7,1.9c0,1-0.4,1.8-1.2,2.2c-0.8,0.5-2.1,0.7-3.9,0.7c-1.5,0-2.8-0.3-3.9-0.8
		s-1.8-1.6-2-3.3h-7.3c0.1,1.9,0.6,3.5,1.3,4.8s1.8,2.3,3,3.1c1.2,0.8,2.6,1.3,4.2,1.6c1.6,0.3,3.2,0.5,4.9,0.5
		c4.3,0,7.4-0.8,9.5-2.4c2-1.6,3.1-3.8,3.1-6.5c0-1.4-0.2-2.5-0.5-3.6C119.7,96.5,119.1,95.6,118.3,94.9L118.3,94.9z"/>
	<path d="M144.8,83.4c-1.2-1.5-2.6-2.4-4-3c-1.4-0.5-2.8-0.8-4.2-0.8c-1.9,0-3.7,0.4-5.2,1.1s-2.8,1.8-3.9,3.1
		c-1.1,1.3-1.9,2.9-2.4,4.8c-0.6,1.8-0.8,3.9-0.8,6.1c0,4.8,1,8.5,3,11.2s5,4.1,9,4.1c3.7,0,6.7-1.6,8.9-4.7v3.8h7.4V70h-7.7
		L144.8,83.4L144.8,83.4z M144.8,95.5c0,1.6-0.2,3-0.5,4s-0.9,1.9-1.6,2.7c-1.2,1.1-2.7,1.6-4.5,1.6c-0.8,0-1.6-0.2-2.4-0.5
		c-0.7-0.3-1.4-0.8-1.9-1.5s-1-1.6-1.3-2.8c-0.3-1.2-0.5-2.6-0.5-4.3c0-1.6,0.2-2.9,0.5-4.1c0.3-1.1,0.8-2,1.3-2.7
		c0.6-0.7,1.2-1.2,2-1.5c0.7-0.3,1.5-0.5,2.4-0.5c0.8,0,1.5,0.1,2.3,0.3c0.8,0.2,1.5,0.6,2.2,1.3c0.7,0.7,1.2,1.6,1.5,2.7
		s0.5,2.6,0.5,4.4V95.5L144.8,95.5z"/>
	<path d="M180.8,82.7c-0.9-1-2.2-1.7-3.7-2.3s-3.4-0.8-5.6-0.8c-3.6,0-6.4,0.7-8.5,2s-3.4,3.5-3.9,6.5l7,0.7
		c0.4-2.3,2.2-3.5,5.2-3.5c1.3,0,2.5,0.3,3.4,1c1,0.7,1.5,1.9,1.5,3.6v1.4l-3.7,0.2c-1.8,0.1-3.6,0.3-5.4,0.5
		c-1.8,0.3-3.4,0.8-4.8,1.5c-1.4,0.7-2.6,1.7-3.5,2.9s-1.3,2.8-1.3,4.8c0,1.5,0.3,2.8,0.8,3.9s1.2,2,2.1,2.7s1.9,1.2,3,1.5
		c1.2,0.3,2.4,0.5,3.6,0.5c2.2,0,4-0.4,5.4-1.2c1.4-0.8,2.7-1.8,3.8-3.1v3.6h7.2v-18c0-1.8-0.2-3.3-0.6-4.7
		C182.4,84.9,181.7,83.7,180.8,82.7L180.8,82.7z M176,97.9c0,1.2-0.2,2.1-0.7,2.9c-0.4,0.8-1,1.4-1.7,1.9c-1.2,0.9-2.8,1.4-4.8,1.4
		c-1.2,0-2.1-0.3-2.7-0.8c-0.7-0.5-1-1.3-1-2.2c0-0.6,0.1-1.2,0.3-1.7s0.5-1,1.1-1.3c0.5-0.4,1.3-0.7,2.3-1s2.3-0.4,3.9-0.5l3.4-0.2
		v1.5H176z"/>
	<path d="M202,99.3l-6.7-18.8h-8.9l11.9,27.3l-0.9,2.4c-0.4,1.2-1,2.1-1.6,2.6s-1.4,0.7-2.5,0.7s-2.2-0.1-3.2-0.4l-1.3,5.7
		c1,0.3,2,0.6,2.9,0.7s1.9,0.2,2.8,0.2c1.5,0,2.8-0.2,3.9-0.6c1-0.4,1.9-1,2.7-1.8c0.7-0.8,1.4-1.8,2-3.1c0.6-1.2,1.2-2.7,1.9-4.3
		l11.6-29.4h-8.4L202,99.3L202,99.3z"/>
	<path d="M247.9,70h-14.6v39.1h13.3c3.2,0,6-0.4,8.5-1.3c2.5-0.8,4.7-2.1,6.4-3.8c1.8-1.7,3.1-3.7,4-6.2c0.9-2.4,1.4-5.3,1.4-8.5
		c0-6.4-1.7-11.2-5-14.5C258.6,71.7,253.9,70,247.9,70L247.9,70z M257.8,94.7c-0.4,1.6-1.1,2.9-2.1,4c-0.9,1.1-2.1,2-3.6,2.6
		s-3.3,0.9-5.4,0.9h-5.3V77h6.5c1.9,0,3.6,0.3,4.9,0.9s2.4,1.4,3.3,2.5c0.8,1.1,1.5,2.4,1.8,3.9c0.4,1.6,0.6,3.3,0.6,5.2
		C258.5,91.4,258.3,93.1,257.8,94.7L257.8,94.7z"/>
	<path d="M286.4,79.7c-2.1,0-4.1,0.3-5.8,1c-1.8,0.7-3.3,1.7-4.5,3s-2.2,2.9-2.9,4.8c-0.7,1.9-1,4-1,6.4c0,4.8,1.2,8.5,3.6,11.2
		c2.4,2.6,6,3.9,10.7,3.9c3.9,0,6.9-0.8,9-2.5s3.3-4.1,3.9-7.3H292c-0.5,2.6-2.3,3.8-5.4,3.8c-2.2,0-3.8-0.6-4.9-1.9
		s-1.7-3.1-1.8-5.4h19.8v-3.1c0-4.3-1.1-7.7-3.3-10.2C294,80.9,290.7,79.7,286.4,79.7L286.4,79.7z M279.8,91.7
		c0-0.9,0.2-1.7,0.5-2.4s0.7-1.4,1.2-2s1.2-1,1.9-1.3c0.8-0.3,1.7-0.5,2.7-0.5c2,0,3.6,0.5,4.5,1.6c1,1.1,1.5,2.6,1.5,4.6
		C292.1,91.7,279.8,91.7,279.8,91.7z"/>
	<path d="M327.4,94.9c-0.8-0.7-1.8-1.4-3.1-1.9c-1.3-0.5-3-0.9-5-1.3l-3.6-0.6c-1.6-0.3-2.7-0.6-3.3-1.1c-0.6-0.4-0.8-1.1-0.8-2
		c0-0.3,0.1-0.6,0.2-0.9c0.2-0.3,0.4-0.6,0.8-0.9s0.9-0.5,1.6-0.6s1.5-0.2,2.5-0.2c1.8,0,3.2,0.3,4,0.9s1.4,1.6,1.7,2.9l6.8-0.9
		c-0.2-1.2-0.6-2.3-1.1-3.4s-1.2-2-2.2-2.7c-1-0.8-2.2-1.4-3.8-1.8c-1.5-0.5-3.4-0.7-5.7-0.7c-1.8,0-3.5,0.2-5,0.6s-2.8,1-3.9,1.8
		s-1.9,1.7-2.5,2.8c-0.6,1.1-0.9,2.3-0.9,3.7c0,2.7,0.8,4.7,2.5,6.1c1.7,1.3,4.3,2.3,7.8,2.8l3.9,0.7c1.4,0.2,2.3,0.6,2.8,1.2
		s0.7,1.2,0.7,1.9c0,1-0.4,1.8-1.2,2.2c-0.8,0.5-2.1,0.7-3.9,0.7c-1.5,0-2.8-0.3-3.9-0.8s-1.8-1.6-2-3.3h-7.3
		c0.1,1.9,0.6,3.5,1.3,4.8c0.8,1.3,1.8,2.3,3,3.1c1.2,0.8,2.6,1.3,4.2,1.6c1.6,0.3,3.2,0.5,4.9,0.5c4.3,0,7.4-0.8,9.5-2.4
		c2-1.6,3.1-3.8,3.1-6.5c0-1.4-0.2-2.5-0.5-3.6C328.7,96.5,328.1,95.6,327.4,94.9L327.4,94.9z"/>
	<rect x="334.7" y="70" width="7.9" height="6.9"/>
	<rect x="334.8" y="80.6" width="7.7" height="28.6"/>
	<path d="M369.2,83.8c-1.2-1.6-2.5-2.6-4-3.2c-1.4-0.6-2.9-0.9-4.5-0.9c-1.9,0-3.7,0.4-5.2,1.1c-1.6,0.7-2.9,1.7-3.9,3
		c-1.1,1.3-1.9,2.8-2.4,4.5c-0.6,1.8-0.8,3.7-0.8,5.8c0,4.4,1,7.9,3,10.5s5,3.9,9,3.9c1.9,0,3.5-0.4,5-1.1s2.7-1.8,3.6-3.1v0.9
		c0,1.2,0,2.4-0.1,3.5s-0.3,2.1-0.7,3c-0.4,0.9-1,1.6-1.8,2.1s-1.9,0.8-3.3,0.8c-0.9,0-1.7,0-2.3-0.1c-0.6-0.1-1.2-0.3-1.6-0.5
		c-0.5-0.3-0.8-0.6-1.1-1c-0.3-0.4-0.5-1-0.6-1.8h-7.8c0.2,1.6,0.6,2.9,1.1,4.1c0.6,1.2,1.4,2.2,2.4,3s2.4,1.4,4,1.8
		s3.6,0.6,5.9,0.6c2.5,0,4.6-0.3,6.3-1c1.7-0.7,3.1-1.7,4.2-3s1.9-2.9,2.4-4.8s0.7-4,0.7-6.4V80.6h-7.4L369.2,83.8L369.2,83.8z
		 M369,94.6c0,1.4-0.2,2.6-0.5,3.5c-0.3,1-0.8,1.8-1.4,2.4s-1.3,1-2.1,1.3c-0.8,0.3-1.7,0.4-2.7,0.4c-1.7,0-3.2-0.6-4.3-1.9
		c-1.1-1.3-1.7-3.4-1.7-6.4c0-1.4,0.2-2.6,0.5-3.7c0.3-1,0.8-1.9,1.3-2.5c0.6-0.7,1.2-1.1,2-1.4c0.7-0.3,1.5-0.4,2.4-0.4
		c0.8,0,1.5,0.1,2.3,0.3c0.8,0.2,1.5,0.6,2.1,1.1c0.6,0.6,1.1,1.4,1.5,2.4c0.4,1.1,0.6,2.4,0.6,4.2L369,94.6L369,94.6z"/>
	<path d="M399.7,79.7c-1.7,0-3.3,0.4-4.8,1.2c-1.6,0.8-2.9,2-4,3.7v-3.9h-7.4v28.6h7.7V91.9c0-0.8,0.2-1.6,0.5-2.3
		c0.3-0.7,0.8-1.3,1.3-1.8c0.6-0.5,1.3-1,2-1.3s1.6-0.4,2.5-0.4c1.3,0,2.3,0.4,3.1,1.1c0.8,0.7,1.2,2.1,1.2,4.1v17.9h7.7v-19
		c0-3.7-0.8-6.3-2.4-8C405.4,80.5,403,79.7,399.7,79.7L399.7,79.7z"/>
	<path d="M446,86l-5.4-1c-2-0.4-3.4-1-4.2-1.7c-0.8-0.7-1.2-1.8-1.2-3.3c0-0.5,0.1-1.1,0.3-1.6c0.2-0.5,0.6-1,1.2-1.3
		c0.5-0.4,1.3-0.7,2.2-0.9c0.9-0.2,2-0.4,3.4-0.4c2.3,0,4.1,0.5,5.2,1.4c1.2,1,1.9,2.5,2.3,4.7l7.7-1c-0.2-1.5-0.6-3-1.1-4.4
		c-0.6-1.4-1.4-2.7-2.6-3.8c-1.2-1.1-2.7-1.9-4.6-2.6s-4.3-1-7.1-1c-2.2,0-4.3,0.2-6.1,0.7c-1.9,0.5-3.5,1.2-4.8,2.2
		s-2.4,2.1-3.1,3.6s-1.1,3.1-1.1,4.9c0,1.9,0.3,3.5,0.8,4.8c0.5,1.4,1.3,2.5,2.4,3.4c1,0.9,2.3,1.7,3.9,2.3c1.5,0.6,3.3,1.1,5.3,1.4
		l5.1,0.9c2,0.4,3.5,1.1,4.2,1.9c0.8,0.9,1.1,1.9,1.1,2.9c0,0.7-0.1,1.4-0.4,2c-0.2,0.6-0.6,1.2-1.2,1.6c-0.5,0.5-1.3,0.8-2.1,1.1
		c-0.9,0.3-2,0.4-3.2,0.4c-2.7,0-4.7-0.5-6.1-1.6s-2.1-2.8-2.3-5.3h-8.3c0.2,4.6,1.7,8,4.6,10.3c2.8,2.3,6.9,3.4,12.2,3.4
		c2.6,0,4.8-0.3,6.7-0.9c1.9-0.6,3.5-1.4,4.7-2.5c1.3-1.1,2.2-2.3,2.8-3.8c0.6-1.4,1-3,1-4.7c0-3.5-1-6.3-3-8.1
		C453.3,88.2,450.2,86.8,446,86L446,86z"/>
	<path d="M488,83.7c-1.3-1.3-2.8-2.3-4.6-3c-1.8-0.7-3.8-1-6-1s-4.2,0.3-6,1s-3.3,1.7-4.6,3c-1.3,1.3-2.2,2.9-2.9,4.8
		c-0.7,1.9-1,4-1,6.3c0,4.9,1.3,8.7,3.8,11.3c2.5,2.6,6.1,3.9,10.7,3.9c2.2,0,4.2-0.3,6-1s3.3-1.7,4.6-3s2.2-2.9,2.9-4.8
		c0.7-1.9,1-4,1-6.4c0-2.3-0.3-4.4-1-6.3C490.2,86.6,489.3,85,488,83.7L488,83.7z M482.3,101.5c-1.1,1.6-2.7,2.4-4.9,2.4
		c-2.2,0-3.9-0.8-4.9-2.3c-1.1-1.6-1.6-3.8-1.6-6.8c0-2.9,0.5-5.1,1.6-6.7c1.1-1.5,2.7-2.3,4.9-2.3c2.2,0,3.8,0.8,4.9,2.3
		s1.6,3.8,1.6,6.7S483.4,100,482.3,101.5L482.3,101.5z"/>
	<path d="M513.5,102.6c-0.8,0.9-2,1.3-3.6,1.3c-1.2,0-2.1-0.2-2.9-0.7s-1.4-1.2-1.8-2s-0.8-1.8-0.9-2.9c-0.2-1.1-0.3-2.2-0.3-3.5
		c0-1.2,0.1-2.3,0.3-3.4c0.2-1.1,0.5-2,1-2.9c0.5-0.8,1.1-1.5,1.8-2c0.8-0.5,1.7-0.7,2.9-0.7c1.6,0,2.7,0.4,3.4,1.3s1.1,2.1,1.3,3.5
		l7.7-1c-0.2-1.5-0.5-2.8-1.1-4c-0.5-1.2-1.3-2.3-2.3-3.1c-1-0.9-2.2-1.6-3.6-2.1c-1.4-0.5-3.1-0.7-5.1-0.7c-2.3,0-4.3,0.4-6,1.1
		c-1.8,0.7-3.2,1.8-4.4,3.1c-1.2,1.3-2.1,2.9-2.8,4.8c-0.6,1.9-1,4-1,6.2s0.3,4.3,0.8,6.2c0.5,1.9,1.4,3.5,2.5,4.8s2.5,2.3,4.3,3.1
		c1.8,0.7,3.8,1.1,6.2,1.1c4.1,0,7.2-1,9.3-3s3.2-4.8,3.5-8.2H515C514.9,100.4,514.4,101.7,513.5,102.6L513.5,102.6z"/>
	<rect x="528.2" y="70" width="7.9" height="6.9"/>
	<rect x="528.3" y="80.6" width="7.7" height="28.6"/>
	<path d="M556.2,79.7c-2.1,0-4.1,0.3-5.8,1c-1.8,0.7-3.3,1.7-4.5,3s-2.2,2.9-2.9,4.8s-1,4-1,6.4c0,4.8,1.2,8.5,3.6,11.2
		c2.4,2.6,6,3.9,10.7,3.9c3.9,0,6.9-0.8,9-2.5s3.4-4.1,3.9-7.3h-7.4c-0.5,2.6-2.3,3.8-5.4,3.8c-2.2,0-3.8-0.6-4.9-1.9
		c-1.1-1.3-1.7-3.1-1.8-5.4h19.8v-3.1c0-4.3-1.1-7.7-3.3-10.2S560.5,79.7,556.2,79.7z M549.6,91.7c0-0.9,0.2-1.7,0.5-2.4
		s0.7-1.4,1.2-2s1.2-1,1.9-1.3c0.8-0.3,1.7-0.5,2.7-0.5c2,0,3.6,0.5,4.5,1.6c1,1.1,1.5,2.6,1.5,4.6L549.6,91.7L549.6,91.7z"/>
	<path d="M589.4,103.5c-0.5,0.1-1.1,0.1-1.6,0.1c-1,0-1.8-0.3-2.4-0.8s-0.9-1.5-0.9-3V86.5h6.6v-6h-6.6v-7.6h-7.7v7.6h-4.5v6h4.5
		v13.4c0,3.5,0.8,6.1,2.3,7.6s3.8,2.2,7,2.2c0.9,0,1.9-0.1,2.9-0.2s2-0.4,3.1-0.7l-1.1-5.6C590.5,103.3,590,103.4,589.4,103.5
		L589.4,103.5z"/>
	<path d="M615.8,80.6l-6.2,18.8l-6.7-18.8H594l11.9,27.3l-0.9,2.4c-0.4,1.2-1,2.1-1.6,2.6s-1.4,0.7-2.5,0.7s-2.2-0.1-3.2-0.4
		l-1.3,5.7c1,0.3,2,0.6,2.9,0.7s1.9,0.2,2.8,0.2c1.5,0,2.8-0.2,3.9-0.6c1-0.4,1.9-1,2.7-1.8s1.4-1.8,2-3.1c0.6-1.2,1.2-2.7,1.9-4.3
		l11.6-29.4L615.8,80.6L615.8,80.6z"/>
	<rect y="22.3" width="67.3" height="10"/>
	<rect x="92" y="22.3" width="67.3" height="10"/>
	<rect x="275.9" y="22.3" width="67.3" height="10"/>
	<rect x="367.9" y="22.3" width="67.3" height="10"/>
	<rect x="459.9" y="22.3" width="67.3" height="10"/>
	<rect x="551.9" y="22.3" width="67.3" height="10"/>
	<polygon points="197.3,54.7 217.6,34.4 237.9,54.7 245,47.6 224.7,27.3 245,7.1 237.9,0 217.6,20.3 197.3,0 190.3,7.1 210.5,27.3 
		190.3,47.6 	"/>
</g>
</svg>
