<?xml version="1.0" encoding="utf-8"?>
<!-- Generator: Adobe Illustrator 27.3.1, SVG Export Plug-In . SVG Version: 6.00 Build 0)  -->
<svg version="1.1"
	 id="svg8" xmlns:rdf="http://www.w3.org/1999/02/22-rdf-syntax-ns#" xmlns:sodipodi="http://sodipodi.sourceforge.net/DTD/sodipodi-0.dtd" xmlns:cc="http://creativecommons.org/ns#" xmlns:inkscape="http://www.inkscape.org/namespaces/inkscape" xmlns:svg="http://www.w3.org/2000/svg" xmlns:dc="http://purl.org/dc/elements/1.1/" sodipodi:docname="ting logo.svg"
	 xmlns="http://www.w3.org/2000/svg" xmlns:xlink="http://www.w3.org/1999/xlink" x="0px" y="0px" viewBox="0 0 165 107"
	 style="enable-background:new 0 0 165 107;" xml:space="preserve">
<style type="text/css">
	.st0{fill:#FFFFFF;}
</style>
<sodipodi:namedview  bordercolor="#666666" borderopacity="1.0" id="base" inkscape:current-layer="layer1" inkscape:cx="-39.041548" inkscape:cy="101.20868" inkscape:document-units="mm" inkscape:pageopacity="0.0" inkscape:pageshadow="2" inkscape:window-height="1017" inkscape:window-maximized="1" inkscape:window-width="1920" inkscape:window-x="-8" inkscape:window-y="176" inkscape:zoom="1.979899" pagecolor="#ffffff" showgrid="false">
	</sodipodi:namedview>
<g id="layer1" transform="translate(-72.722619,-80.693863)" inkscape:groupmode="layer" inkscape:label="Layer 1">
	<g id="g4532" transform="matrix(3.6380208,0,0,3.6380208,72.722619,68.943056)">
		<path id="path4518" inkscape:connector-curvature="0" class="st0" d="M13.2,8.4c-1.4,0-2.4-1.2-2.4-2.6s1-2.6,2.4-2.6
			s2.4,1.2,2.4,2.6S14.6,8.4,13.2,8.4z M29,25.9h-2.5c-0.5,0-0.9-0.4-0.9-0.9V14.6c0-0.8-0.3-1.4-1.4-1.4c-1.4,0-2.4,1.4-2.4,3.3V25
			c0,0.5-0.4,0.9-0.9,0.9h-2.5c-0.5,0-0.9-0.4-0.9-0.9V10.7c0-0.5,0.4-0.9,0.9-0.9h1.9c0.5,0,0.8,0.3,0.9,0.8l0.2,1
			c1.2-1.4,2.6-2.1,4.3-2.1c2.5,0,4.1,1.6,4.1,4.1v11.3C29.9,25.5,29.5,25.9,29,25.9z M38.3,32.7c-3.5,0-6.9-1.2-7-5
			c0-0.5,0.4-1,0.9-0.9l2.4,0.1c0.5,0,0.7,0.3,0.8,0.8c0.3,1.3,1.7,1.7,3,1.7c2.1,0,3.1-0.9,3.1-1.9c0-1.1-0.4-1.4-2-1.4h-3.4
			c-1.7,0-3.9-0.5-3.9-3c0-1,0.6-1.9,1.3-2.6c-1.4-1-2.2-2.6-2.2-4.7c0-3.8,2.5-6,6.3-6c0.7,0,1.4,0.1,2,0.1h3.9c0.8,0,1,0.3,1,0.9
			v1c0,0.7-0.2,0.9-0.6,1L43.1,13c0.5,0.8,0.9,1.6,0.9,2.7c0,3.7-2.4,6-6.4,6c-0.5,0-1-0.1-1.5-0.2c-0.1,0.2-0.2,0.3-0.2,0.6
			c0,0.6,0.5,0.6,1,0.6h3.1c3.2,0,5.3,1.4,5.3,4.4C45.4,31.4,41.4,32.7,38.3,32.7z M37.7,12.9c-1.2,0-2.2,0.4-2.2,2.7
			c0,2.5,1,2.9,2.2,2.9c1.1,0,2.2-0.5,2.2-2.9C39.9,13.2,38.9,12.9,37.7,12.9z"/>
		<path id="path4520" inkscape:connector-curvature="0" class="st0" d="M14.5,9.9H6.8V5.2c0-0.5-0.4-0.9-0.9-0.9H3.5
			c-0.5,0-0.9,0.4-0.9,0.9v4.7H0.9C0.4,9.9,0,10.3,0,10.7v1.4c0,0.5,0.4,0.9,0.9,0.9h1.7v9c0,2.5,1.1,4.1,3.8,4.1
			c1.2,0,2.4-0.2,3.2-0.5c0.4-0.1,0.6-0.5,0.6-0.9l-0.4-2.1c-0.1-0.5-0.4-0.7-0.9-0.6c-0.3,0.1-0.7,0.1-1,0.1c-0.6,0-1-0.4-1-1.3
			v-7.9h4.3v12c0,0.5,0.4,0.9,0.9,0.9h2.5c0.5,0,0.9-0.4,0.9-0.9V10.7C15.4,10.3,15,9.9,14.5,9.9z"/>
	</g>
</g>
</svg>
