<?xml version="1.0" encoding="utf-8"?>
<!-- Generator: Adobe Illustrator 27.3.1, SVG Export Plug-In . SVG Version: 6.00 Build 0)  -->
<svg version="1.1" id="Layer_1" xmlns="http://www.w3.org/2000/svg" xmlns:xlink="http://www.w3.org/1999/xlink" x="0px" y="0px"
	 viewBox="0 0 455 90.4" style="enable-background:new 0 0 455 90.4;" xml:space="preserve">
<style type="text/css">
	.st0{fill:#FFFFFF;}
</style>
<path class="st0" d="M258.5,1.4V89H275V1.4H258.5z M291.4,1.4h-8.2v16.5h8.2c15.1,0,27.3,12.3,27.3,27.3s-12.3,27.3-27.3,27.3l0,0
	h-8.2V89h8.2c24.2,0,43.8-19.6,43.8-43.8S315.6,1.4,291.4,1.4z M405.5,73.8v16.6c-23.1-2.1-41.3-21.5-41.3-45.2S382.4,2.1,405.5,0
	v16.6c-14,2-24.8,14.1-24.8,28.6S391.5,71.8,405.5,73.8z M413.7,90.4V73.8c14-2,24.8-14.1,24.8-28.6s-10.8-26.6-24.8-28.6V0
	C436.9,2.1,455,21.5,455,45.2C455,68.9,436.9,88.3,413.7,90.4z M49.2,75.3l-8.6-27.4L55.2,1.4h17.3L49.2,75.3z M0,1.4L27.6,89l0,0
	h17.3L34.4,55.8L17.3,1.4H0z M97.2,89h17.3l14.7-46.5l-8.6-27.4L97.2,89z M161,61.6L142,1.4h-17.3L152.4,89h17.3l0,0l14.6-46.3
	l-8.6-27.4L161,61.6z M207.6,89h17.3L197.2,1.4H180l8.6,27.4L207.6,89z"/>
</svg>
