<?xml version="1.0" encoding="utf-8"?>
<!-- Generator: Adobe Illustrator 27.3.1, SVG Export Plug-In . SVG Version: 6.00 Build 0)  -->
<svg version="1.1" id="Layer_1" xmlns="http://www.w3.org/2000/svg" xmlns:xlink="http://www.w3.org/1999/xlink" x="0px" y="0px"
	 viewBox="0 0 826 178" style="enable-background:new 0 0 826 178;" xml:space="preserve">
<style type="text/css">
	.st0{fill-rule:evenodd;clip-rule:evenodd;fill:#FFFFFF;}
	.st1{fill:#FFFFFF;}
</style>
<g>
	<path class="st0" d="M168.3,52.3C154.1,20.6,122.6,0.1,87.9,0.1c-9.1,0-18,1.4-26.7,4.2l7.3,15.5c6.3-1.8,12.7-2.7,19.3-2.7
		c13.2,0,25.9,3.7,36.8,10.4l-19.6,69.9L84,52.6L65.3,97.5l-13.6-32l-8.4,18l21,49.5L84.1,89l24.9,53.5l33.3-100.1
		c4.2,5,7.8,10.7,10.6,16.8c7.8,17.4,8.4,36.8,1.6,54.7c-5.2,13.7-14.2,25.1-25.9,33.3l7.3,15.5c15.7-10.1,27.7-25,34.4-42.8
		C178.7,97.9,178,73.8,168.3,52.3z"/>
	<path class="st0" d="M114.8,155.4c-35,14.4-75.3-1.8-90.9-37c-7.7-17.5-8.3-36.9-1.6-54.8C28.4,47.1,40,33.9,55.1,25.7l-7.1-15.5
		c-19,10-33.6,26.6-41.3,47.2c-8.3,22.2-7.6,46.2,2,67.9c14.5,32.9,46.5,52.4,79.8,52.4c11.2,0,22.5-2.2,33.5-6.8L114.8,155.4z"/>
	<path class="st0" d="M262,72.5l-9.9-30h-4.8l-10,30l-10-30h-7.1l14.4,43.5h4.9l10.1-30l9.9,30h5l14.6-43.5h-7L262,72.5z"/>
	<path class="st0" d="M306.1,86.1h6.9V42.5h-6.9V86.1z"/>
	<path class="st0" d="M350.2,42.5h-6.9v43.5h26.9v-5.9h-20V42.5z"/>
	<path class="st0" d="M404.2,42.5h-6.9v43.5h26.9v-5.9h-20V42.5z"/>
	<path class="st0" d="M487.7,64.2c0,2.4-0.4,4.7-1.3,6.7c-0.9,2-2.1,3.7-3.6,5.2c-1.5,1.5-3.3,2.6-5.3,3.4c-4,1.6-9.1,1.6-13.1,0
		c-2-0.8-3.9-2-5.4-3.4c-1.5-1.4-2.7-3.2-3.6-5.2c-0.9-2-1.3-4.2-1.3-6.6c0-2.3,0.4-4.5,1.3-6.5c0.8-2,2-3.7,3.5-5.2
		c1.5-1.4,3.3-2.6,5.3-3.4c2-0.8,4.3-1.2,6.7-1.2c2.4,0,4.7,0.4,6.8,1.2c2,0.8,3.9,2,5.4,3.4c1.5,1.4,2.7,3.2,3.5,5.1
		C487.3,59.7,487.7,61.9,487.7,64.2z M487.8,48.3c-2.1-2-4.6-3.6-7.5-4.7c-2.9-1.1-6.1-1.7-9.5-1.7c-3.3,0-6.4,0.6-9.3,1.7
		c-2.9,1.1-5.4,2.7-7.5,4.7c-2.1,2-3.8,4.4-5,7.1c-1.2,2.7-1.8,5.7-1.8,8.8c0,3.2,0.6,6.2,1.8,8.9c1.2,2.7,2.9,5.1,5,7.1
		c2.1,2,4.7,3.6,7.5,4.7c2.9,1.1,6,1.7,9.3,1.7c3.3,0,6.4-0.6,9.2-1.7c2.9-1.1,5.4-2.7,7.5-4.8c2.1-2,3.8-4.4,5.1-7.1
		c1.2-2.7,1.8-5.7,1.8-8.9c0-3.1-0.6-6.1-1.8-8.8C491.6,52.7,489.9,50.3,487.8,48.3z"/>
	<path class="st0" d="M568.1,42.5h-2.5l-10.1,30l-9.9-30h-4.8l-10,30l-10-30h-7.1l14.4,43.5h4.9l10.1-30l9.9,30h5l12.7-37.6h29.9
		v37.6h7V48.4h13.7l2.7-5.9h-51.3H568.1z"/>
	<path class="st0" d="M666.2,52.6c0.5,0.8,0.7,1.7,0.7,2.7c0,1.2-0.2,2.3-0.7,3.3c-0.5,0.9-1.1,1.7-2,2.3c-0.9,0.6-2,1.1-3.2,1.5
		c-1.2,0.3-2.6,0.5-4,0.5h-6.6V48.4h7c1.4,0,2.8,0.2,3.9,0.5c1.2,0.3,2.2,0.8,3,1.5C665.1,51.1,665.7,51.8,666.2,52.6z M664.1,67.5
		c1.9-0.6,3.6-1.5,5-2.6c1.5-1.1,2.6-2.5,3.5-4.1c0.9-1.6,1.3-3.4,1.3-5.4c0-1.9-0.4-3.7-1.3-5.3c-0.8-1.6-2-3-3.5-4.1
		c-1.4-1.1-3.2-2-5.1-2.6c-1.9-0.6-4-0.9-6.2-0.9h-14.4v43.5h6.9V68.2l18,17.8h9.2l-18-17.7C661.2,68.2,662.6,67.9,664.1,67.5z"/>
	<path class="st0" d="M710.2,66.9h19.3v-5.9h-19.3V48.4h20.6v-5.9h-27.4v43.5H732v-5.9h-21.8V66.9z"/>
	<path class="st0" d="M767.5,66.9h19.3v-5.9h-19.3V48.4h20.6v-5.9h-27.5v43.5h28.7v-5.9h-21.8V66.9z"/>
	<path class="st0" d="M817.6,49.4c-0.3,0.2-0.6,0.4-1.1,0.4h-1.3v-2.4h1.5c0.2,0,0.4,0,0.5,0.1c0.2,0.1,0.3,0.2,0.4,0.3
		c0.1,0.1,0.2,0.2,0.3,0.4c0.1,0.1,0.1,0.2,0.1,0.4C818,48.8,817.8,49.1,817.6,49.4z M822.8,53.1c-0.4,0.8-0.9,1.5-1.5,2.1
		c0,0,0,0-0.1,0.1l-3.6-4c0.2,0,0.4-0.1,0.5-0.2c0.4-0.1,0.7-0.4,1-0.6c0.3-0.3,0.5-0.6,0.7-0.9c0.2-0.4,0.2-0.8,0.2-1.2
		c0-0.4-0.1-0.8-0.2-1.2c-0.2-0.4-0.4-0.7-0.7-1c-0.3-0.3-0.7-0.5-1.1-0.6c-0.4-0.2-0.9-0.2-1.4-0.2h-3.6v9.9h2.1v-3.8l3.3,3.7
		l0.1,0.1h2.6c-0.6,0.5-1.3,1-2.1,1.3c-1.7,0.7-3.7,0.7-5.4,0c-0.8-0.3-1.6-0.8-2.2-1.4c-0.6-0.6-1.1-1.3-1.5-2.1
		c-0.4-0.8-0.6-1.7-0.6-2.6c0-0.9,0.2-1.8,0.6-2.6c0.4-0.8,0.9-1.5,1.5-2.1c0.6-0.6,1.4-1.1,2.2-1.4c0.8-0.3,1.7-0.5,2.7-0.5
		c1,0,1.9,0.2,2.7,0.5c0.8,0.3,1.6,0.8,2.2,1.4c0.6,0.6,1.1,1.3,1.5,2.1c0.4,0.8,0.5,1.7,0.5,2.6C823.4,51.5,823.2,52.3,822.8,53.1z
		 M824.5,47.3c-0.5-1-1.1-1.9-1.9-2.7c-0.8-0.8-1.7-1.4-2.8-1.8c-2.2-0.9-4.7-0.9-6.8,0c-1.1,0.4-2,1-2.8,1.8
		c-0.8,0.8-1.4,1.6-1.9,2.7c-0.5,1-0.7,2.1-0.7,3.2c0,1.1,0.2,2.2,0.7,3.2c0.5,1,1.1,1.9,1.9,2.7c0.8,0.8,1.7,1.4,2.8,1.8
		c1.1,0.4,2.2,0.7,3.4,0.7c1.2,0,2.3-0.2,3.4-0.7c1.1-0.4,2-1,2.8-1.8c0.8-0.8,1.4-1.6,1.9-2.7c0.5-1,0.7-2.1,0.7-3.2
		C825.2,49.4,825,48.3,824.5,47.3z"/>
	<path class="st1" d="M244.4,131.7c0-1.2-0.4-2-1-2.6c-0.7-0.6-1.6-0.9-2.8-0.9c-0.9,0-1.7,0.2-2.5,0.5c-0.8,0.3-1.4,0.8-1.9,1.3
		l-1.6-2c0.8-0.7,1.7-1.3,2.8-1.7c1.1-0.4,2.3-0.6,3.6-0.6c1.1,0,2.1,0.2,2.9,0.5c0.8,0.3,1.5,0.7,2,1.3c0.5,0.5,0.9,1.2,1.2,1.9
		c0.3,0.7,0.4,1.5,0.4,2.4v6.8c0,0.5,0,1.1,0,1.7c0,0.6,0.1,1,0.2,1.4h-2.8c-0.2-0.7-0.3-1.5-0.3-2.2h-0.1c-0.6,0.8-1.3,1.5-2.2,1.9
		c-0.9,0.5-1.9,0.7-3,0.7c-0.6,0-1.3-0.1-1.9-0.3c-0.7-0.2-1.3-0.4-1.8-0.8c-0.5-0.4-1-0.9-1.4-1.5c-0.3-0.6-0.5-1.4-0.5-2.3
		c0-1.2,0.3-2.1,1-2.8c0.6-0.7,1.5-1.2,2.5-1.6c1-0.4,2.2-0.6,3.5-0.7c1.3-0.1,2.6-0.2,3.9-0.2V131.7z M243.7,134.3
		c-0.8,0-1.6,0-2.4,0.1c-0.8,0.1-1.6,0.2-2.2,0.4c-0.7,0.2-1.2,0.5-1.6,0.9c-0.4,0.4-0.7,0.9-0.7,1.6c0,0.5,0.1,0.8,0.3,1.1
		c0.2,0.3,0.4,0.6,0.8,0.8c0.3,0.2,0.6,0.3,1,0.4c0.4,0.1,0.8,0.1,1.1,0.1c1.4,0,2.5-0.4,3.3-1.3c0.8-0.9,1.2-2,1.2-3.3v-0.8H243.7z
		"/>
	<path class="st1" d="M272,141.8h-3.2v-20.4h-7.4v-2.9h18.1v2.9H272V141.8z"/>
	<path class="st1" d="M287.6,138.9h12.1v2.9h-15.4v-23.2h14.9v2.9h-11.6v7h11v2.8h-11V138.9z"/>
	<path class="st1" d="M309.2,138.9h10.4v2.9H306v-23.2h3.2V138.9z"/>
	<path class="st1" d="M332.6,142.3c-1.5,0-2.9-0.3-4-0.8c-1.1-0.5-2.1-1.2-2.8-2.1c-0.7-0.9-1.3-1.8-1.7-2.9
		c-0.4-1.1-0.5-2.3-0.5-3.4v-14.6h3.2V133c0,0.8,0.1,1.6,0.3,2.4c0.2,0.8,0.5,1.5,1,2.1c0.5,0.6,1,1.1,1.8,1.5
		c0.7,0.4,1.7,0.6,2.8,0.6c1.1,0,2-0.2,2.7-0.6c0.7-0.4,1.3-0.9,1.8-1.5c0.5-0.6,0.8-1.3,1-2.1c0.2-0.8,0.3-1.6,0.3-2.4v-14.4h3.2
		v14.6c0,1.2-0.2,2.3-0.6,3.4c-0.3,1.1-0.9,2.1-1.6,2.9c-0.7,0.9-1.7,1.5-2.8,2.1C335.5,142.1,334.2,142.3,332.6,142.3z"/>
	<path class="st1" d="M360.6,122.8c-0.5-0.6-1.1-1.1-1.9-1.5c-0.8-0.4-1.7-0.6-2.7-0.6c-0.5,0-1.1,0.1-1.6,0.2
		c-0.5,0.1-1,0.4-1.4,0.7c-0.4,0.3-0.8,0.7-1.1,1.2c-0.3,0.5-0.4,1-0.4,1.7c0,0.6,0.1,1.2,0.4,1.6c0.3,0.4,0.6,0.8,1,1.1
		c0.4,0.3,0.9,0.5,1.5,0.8c0.6,0.2,1.2,0.4,1.9,0.6c0.8,0.2,1.6,0.5,2.4,0.8c0.8,0.3,1.5,0.7,2.2,1.2c0.7,0.5,1.2,1.1,1.6,1.9
		c0.4,0.7,0.6,1.7,0.6,2.9c0,1.2-0.2,2.3-0.7,3.1c-0.4,0.9-1,1.6-1.8,2.2c-0.7,0.6-1.6,1-2.6,1.3c-1,0.3-2,0.4-3,0.4
		c-1.5,0-2.9-0.3-4.3-0.9c-1.4-0.6-2.5-1.4-3.4-2.5l2.5-2.1c0.5,0.8,1.3,1.5,2.2,2c0.9,0.5,1.9,0.8,3,0.8c0.5,0,1.1-0.1,1.6-0.2
		c0.5-0.2,1-0.4,1.5-0.7c0.5-0.3,0.8-0.7,1.1-1.2c0.3-0.5,0.4-1.1,0.4-1.8c0-0.7-0.2-1.3-0.5-1.7c-0.3-0.5-0.7-0.9-1.2-1.2
		c-0.5-0.3-1.1-0.6-1.8-0.8c-0.7-0.2-1.4-0.5-2.1-0.7c-0.7-0.2-1.5-0.5-2.2-0.8c-0.7-0.3-1.4-0.7-1.9-1.2c-0.6-0.5-1-1.1-1.4-1.8
		c-0.4-0.7-0.5-1.6-0.5-2.7c0-1.2,0.2-2.2,0.7-3c0.5-0.8,1.1-1.5,1.8-2.1c0.8-0.5,1.6-0.9,2.6-1.2c1-0.3,1.9-0.4,2.9-0.4
		c1.4,0,2.6,0.2,3.8,0.7c1.2,0.5,2.1,1.1,2.9,1.9L360.6,122.8z"/>
	<path class="st1" d="M382.9,141.8h-3.2v-23.2h3.2V141.8z"/>
	<path class="st1" d="M392.4,126.2c0,0.4,0.1,0.8,0.1,1.3c0,0.5,0,0.9,0,1.2h0.1c0.2-0.4,0.5-0.8,0.8-1.1c0.3-0.4,0.7-0.7,1.2-1
		c0.4-0.3,0.9-0.5,1.4-0.7s1.1-0.2,1.6-0.2c1,0,1.9,0.2,2.6,0.5c0.7,0.3,1.3,0.8,1.8,1.3c0.5,0.6,0.8,1.2,1,2
		c0.2,0.8,0.4,1.6,0.4,2.5v9.6h-3.1v-8.6c0-0.6-0.1-1.2-0.2-1.8c-0.1-0.6-0.3-1.1-0.5-1.5s-0.6-0.8-1.1-1c-0.5-0.3-1-0.4-1.8-0.4
		c-1.2,0-2.2,0.5-3,1.4c-0.8,0.9-1.1,2.2-1.1,3.7v8.3h-3.1v-12.2c0-0.4,0-0.9,0-1.6c0-0.7-0.1-1.2-0.1-1.7H392.4z"/>
	<path class="st1" d="M417.5,128.7h-4.1v8.1c0,0.9,0.2,1.6,0.5,2c0.3,0.4,0.9,0.6,1.7,0.6c0.3,0,0.6,0,0.9-0.1
		c0.3-0.1,0.6-0.2,0.9-0.3l0.1,2.5c-0.4,0.1-0.8,0.2-1.2,0.3c-0.4,0.1-0.9,0.1-1.4,0.1c-1.5,0-2.6-0.4-3.4-1.2
		c-0.8-0.8-1.1-2-1.1-3.6v-8.4h-3v-2.5h3v-4.5h3v4.5h4.1V128.7z"/>
	<path class="st1" d="M434,132.6c0-0.6-0.1-1.2-0.3-1.7c-0.2-0.5-0.4-1-0.8-1.4c-0.4-0.4-0.8-0.7-1.3-0.9c-0.5-0.2-1.1-0.4-1.9-0.4
		c-0.7,0-1.3,0.1-1.9,0.4c-0.6,0.2-1.1,0.5-1.5,0.9c-0.4,0.4-0.8,0.9-1,1.4c-0.3,0.5-0.4,1.1-0.5,1.7H434z M437.1,133.9
		c0,0.2,0,0.4,0,0.5c0,0.2,0,0.3,0,0.5h-12.3c0,0.7,0.2,1.3,0.4,1.9c0.3,0.6,0.7,1.1,1.1,1.5c0.5,0.4,1,0.7,1.6,1
		c0.6,0.2,1.3,0.4,1.9,0.4c1,0,2-0.2,2.7-0.7c0.8-0.5,1.4-1,1.8-1.7l2.2,1.7c-0.8,1.1-1.8,1.9-3,2.4c-1.1,0.5-2.4,0.8-3.7,0.8
		c-1.2,0-2.3-0.2-3.3-0.6c-1-0.4-1.9-0.9-2.6-1.6c-0.7-0.7-1.3-1.6-1.7-2.6c-0.4-1-0.6-2.1-0.6-3.3c0-1.2,0.2-2.3,0.6-3.3
		c0.4-1,1-1.9,1.7-2.6c0.7-0.7,1.6-1.3,2.6-1.7c1-0.4,2-0.6,3.2-0.6c1.1,0,2.2,0.2,3.1,0.6c0.9,0.4,1.7,0.9,2.4,1.6
		c0.7,0.7,1.2,1.6,1.5,2.6C436.9,131.5,437.1,132.6,437.1,133.9z"/>
	<path class="st1" d="M443.3,129.6c0-0.4,0-0.9,0-1.6c0-0.7-0.1-1.2-0.1-1.7h2.9c0,0.4,0.1,0.9,0.1,1.4c0,0.5,0,0.9,0,1.2h0.1
		c0.4-0.9,1.1-1.7,1.9-2.2c0.9-0.6,1.8-0.9,2.9-0.9c0.5,0,0.9,0,1.2,0.1l-0.1,2.9c-0.4-0.1-0.9-0.2-1.4-0.2c-0.7,0-1.4,0.1-1.9,0.4
		c-0.5,0.3-1,0.6-1.4,1.1c-0.4,0.5-0.6,1-0.8,1.6c-0.2,0.6-0.3,1.2-0.3,1.9v8.2h-3.1V129.6z"/>
	<path class="st1" d="M459.8,126.2c0,0.4,0.1,0.8,0.1,1.3c0,0.5,0,0.9,0,1.2h0.1c0.2-0.4,0.5-0.8,0.8-1.1c0.4-0.4,0.7-0.7,1.2-1
		c0.4-0.3,0.9-0.5,1.4-0.7c0.5-0.2,1.1-0.2,1.6-0.2c1,0,1.9,0.2,2.6,0.5c0.7,0.3,1.3,0.8,1.8,1.3c0.5,0.6,0.8,1.2,1,2
		c0.2,0.8,0.4,1.6,0.4,2.5v9.6h-3.1v-8.6c0-0.6-0.1-1.2-0.2-1.8c-0.1-0.6-0.3-1.1-0.5-1.5c-0.3-0.4-0.6-0.8-1.1-1
		c-0.5-0.3-1-0.4-1.8-0.4c-1.2,0-2.2,0.5-3,1.4c-0.8,0.9-1.1,2.2-1.1,3.7v8.3H457v-12.2c0-0.4,0-0.9,0-1.6c0-0.7-0.1-1.2-0.1-1.7
		H459.8z"/>
	<path class="st1" d="M487.7,131.7c0-1.2-0.3-2-1-2.6c-0.7-0.6-1.6-0.9-2.8-0.9c-0.9,0-1.7,0.2-2.5,0.5c-0.8,0.3-1.4,0.8-1.9,1.3
		l-1.6-2c0.8-0.7,1.7-1.3,2.8-1.7c1.1-0.4,2.3-0.6,3.6-0.6c1.1,0,2.1,0.2,2.9,0.5c0.8,0.3,1.5,0.7,2,1.3c0.5,0.5,0.9,1.2,1.2,1.9
		c0.3,0.7,0.4,1.5,0.4,2.4v6.8c0,0.5,0,1.1,0,1.7c0,0.6,0.1,1,0.2,1.4h-2.8c-0.2-0.7-0.3-1.5-0.3-2.2h-0.1c-0.6,0.8-1.3,1.5-2.2,1.9
		c-0.9,0.5-1.9,0.7-3,0.7c-0.6,0-1.3-0.1-1.9-0.3c-0.7-0.2-1.3-0.4-1.8-0.8c-0.5-0.4-1-0.9-1.4-1.5c-0.4-0.6-0.5-1.4-0.5-2.3
		c0-1.2,0.3-2.1,1-2.8c0.6-0.7,1.5-1.2,2.5-1.6c1-0.4,2.2-0.6,3.5-0.7c1.3-0.1,2.6-0.2,3.9-0.2V131.7z M486.9,134.3
		c-0.8,0-1.6,0-2.4,0.1c-0.8,0.1-1.6,0.2-2.2,0.4c-0.7,0.2-1.2,0.5-1.6,0.9c-0.4,0.4-0.7,0.9-0.7,1.6c0,0.5,0.1,0.8,0.3,1.1
		c0.2,0.3,0.4,0.6,0.8,0.8c0.3,0.2,0.6,0.3,1,0.4c0.4,0.1,0.8,0.1,1.1,0.1c1.4,0,2.5-0.4,3.3-1.3c0.8-0.9,1.2-2,1.2-3.3v-0.8H486.9z
		"/>
	<path class="st1" d="M505,128.7h-4.1v8.1c0,0.9,0.2,1.6,0.5,2c0.4,0.4,0.9,0.6,1.7,0.6c0.3,0,0.6,0,0.9-0.1
		c0.3-0.1,0.6-0.2,0.9-0.3l0.1,2.5c-0.4,0.1-0.8,0.2-1.2,0.3c-0.4,0.1-0.9,0.1-1.4,0.1c-1.5,0-2.6-0.4-3.4-1.2
		c-0.8-0.8-1.1-2-1.1-3.6v-8.4h-3v-2.5h3v-4.5h3v4.5h4.1V128.7z"/>
	<path class="st1" d="M513.1,141.8h-3.1v-15.5h3.1V141.8z M513.7,120.6c0,0.6-0.2,1-0.6,1.4c-0.4,0.4-0.9,0.6-1.4,0.6
		s-1-0.2-1.4-0.6c-0.4-0.4-0.6-0.9-0.6-1.4c0-0.6,0.2-1,0.6-1.4c0.4-0.4,0.9-0.6,1.4-0.6s1,0.2,1.4,0.6
		C513.5,119.6,513.7,120,513.7,120.6z"/>
	<path class="st1" d="M535.1,133.9c0,1.2-0.2,2.3-0.7,3.3c-0.4,1-1,1.9-1.8,2.6c-0.7,0.7-1.6,1.3-2.7,1.7c-1,0.4-2.1,0.6-3.3,0.6
		s-2.3-0.2-3.3-0.6c-1-0.4-1.9-1-2.7-1.7c-0.7-0.7-1.3-1.6-1.8-2.6c-0.4-1-0.6-2.1-0.6-3.3s0.2-2.3,0.6-3.3c0.4-1,1-1.9,1.8-2.6
		c0.7-0.7,1.6-1.3,2.7-1.7c1-0.4,2.1-0.6,3.3-0.6s2.3,0.2,3.3,0.6c1,0.4,1.9,1,2.7,1.7c0.8,0.7,1.4,1.6,1.8,2.6
		C534.9,131.7,535.1,132.7,535.1,133.9z M531.9,133.9c0-0.7-0.1-1.5-0.4-2.1c-0.2-0.7-0.5-1.3-1-1.8c-0.4-0.5-1-0.9-1.6-1.2
		c-0.6-0.3-1.4-0.5-2.2-0.5c-0.8,0-1.6,0.2-2.2,0.5c-0.6,0.3-1.2,0.7-1.6,1.2c-0.4,0.5-0.8,1.1-1,1.8c-0.2,0.7-0.3,1.4-0.3,2.1
		s0.1,1.5,0.3,2.1c0.2,0.7,0.6,1.3,1,1.8c0.4,0.5,1,0.9,1.6,1.2c0.7,0.3,1.4,0.5,2.2,0.5c0.8,0,1.6-0.2,2.2-0.5
		c0.7-0.3,1.2-0.7,1.6-1.2c0.4-0.5,0.8-1.1,1-1.8C531.8,135.4,531.9,134.7,531.9,133.9z"/>
	<path class="st1" d="M543.3,126.2c0,0.4,0.1,0.8,0.1,1.3c0,0.5,0,0.9,0,1.2h0.1c0.2-0.4,0.5-0.8,0.8-1.1c0.3-0.4,0.7-0.7,1.2-1
		c0.4-0.3,0.9-0.5,1.4-0.7c0.5-0.2,1.1-0.2,1.6-0.2c1,0,1.9,0.2,2.6,0.5c0.7,0.3,1.3,0.8,1.8,1.3c0.5,0.6,0.8,1.2,1,2
		c0.2,0.8,0.4,1.6,0.4,2.5v9.6h-3.1v-8.6c0-0.6-0.1-1.2-0.2-1.8c-0.1-0.6-0.3-1.1-0.5-1.5c-0.3-0.4-0.6-0.8-1.1-1
		c-0.5-0.3-1-0.4-1.8-0.4c-1.2,0-2.2,0.5-3,1.4c-0.8,0.9-1.1,2.2-1.1,3.7v8.3h-3.1v-12.2c0-0.4,0-0.9,0-1.6c0-0.7-0.1-1.2-0.1-1.7
		H543.3z"/>
	<path class="st1" d="M570.1,131.7c0-1.2-0.3-2-1-2.6c-0.7-0.6-1.6-0.9-2.8-0.9c-0.9,0-1.7,0.2-2.5,0.5c-0.8,0.3-1.4,0.8-1.9,1.3
		l-1.6-2c0.8-0.7,1.7-1.3,2.8-1.7c1.1-0.4,2.3-0.6,3.6-0.6c1.1,0,2.1,0.2,2.9,0.5c0.8,0.3,1.5,0.7,2,1.3c0.5,0.5,0.9,1.2,1.2,1.9
		s0.4,1.5,0.4,2.4v6.8c0,0.5,0,1.1,0,1.7c0,0.6,0.1,1,0.2,1.4h-2.8c-0.2-0.7-0.3-1.5-0.3-2.2h-0.1c-0.6,0.8-1.3,1.5-2.2,1.9
		c-0.9,0.5-1.9,0.7-3,0.7c-0.6,0-1.3-0.1-1.9-0.3c-0.7-0.2-1.3-0.4-1.8-0.8c-0.5-0.4-1-0.9-1.4-1.5c-0.3-0.6-0.5-1.4-0.5-2.3
		c0-1.2,0.3-2.1,0.9-2.8c0.6-0.7,1.5-1.2,2.5-1.6c1-0.4,2.2-0.6,3.5-0.7c1.3-0.1,2.6-0.2,3.9-0.2V131.7z M569.4,134.3
		c-0.8,0-1.6,0-2.4,0.1c-0.8,0.1-1.6,0.2-2.2,0.4c-0.7,0.2-1.2,0.5-1.6,0.9c-0.4,0.4-0.7,0.9-0.7,1.6c0,0.5,0.1,0.8,0.3,1.1
		c0.2,0.3,0.4,0.6,0.8,0.8c0.3,0.2,0.6,0.3,1,0.4c0.4,0.1,0.8,0.1,1.1,0.1c1.4,0,2.5-0.4,3.3-1.3c0.8-0.9,1.2-2,1.2-3.3v-0.8H569.4z
		"/>
	<path class="st1" d="M582.6,141.8h-3.1V117h3.1V141.8z"/>
	<path class="st1" d="M620,138.1c-0.9,1.2-2.1,2.3-3.6,3c-1.5,0.8-3.2,1.1-5.3,1.1c-1.8,0-3.4-0.3-4.9-0.9c-1.5-0.6-2.8-1.5-3.9-2.5
		c-1.1-1.1-1.9-2.4-2.5-3.9c-0.6-1.5-0.9-3.2-0.9-4.9c0-1.8,0.3-3.5,0.9-5c0.6-1.5,1.5-2.8,2.6-3.8c1.1-1.1,2.4-1.9,3.9-2.5
		c1.5-0.6,3.1-0.9,4.9-0.9c0.8,0,1.6,0.1,2.4,0.2c0.8,0.2,1.6,0.4,2.3,0.7c0.7,0.3,1.4,0.7,2,1.1c0.6,0.4,1.1,1,1.6,1.5l-2.6,2
		c-0.6-0.8-1.4-1.4-2.4-1.9c-1-0.5-2.1-0.8-3.3-0.8c-1.4,0-2.6,0.3-3.7,0.8c-1.1,0.5-2,1.1-2.8,2c-0.8,0.9-1.4,1.8-1.8,3
		c-0.4,1.1-0.6,2.3-0.6,3.6c0,1.3,0.2,2.5,0.6,3.7c0.4,1.1,1,2.1,1.7,3c0.8,0.8,1.7,1.5,2.8,2c1.1,0.5,2.3,0.7,3.6,0.7
		c1.3,0,2.5-0.3,3.6-0.8c1.1-0.5,2-1.3,2.7-2.3L620,138.1z"/>
	<path class="st1" d="M640.5,133.9c0,1.2-0.2,2.3-0.7,3.3c-0.4,1-1,1.9-1.8,2.6c-0.7,0.7-1.6,1.3-2.7,1.7c-1,0.4-2.1,0.6-3.3,0.6
		s-2.3-0.2-3.3-0.6c-1-0.4-1.9-1-2.7-1.7c-0.7-0.7-1.3-1.6-1.8-2.6c-0.4-1-0.6-2.1-0.6-3.3s0.2-2.3,0.6-3.3c0.4-1,1-1.9,1.8-2.6
		c0.7-0.7,1.6-1.3,2.7-1.7c1-0.4,2.1-0.6,3.3-0.6s2.3,0.2,3.3,0.6c1,0.4,1.9,1,2.7,1.7c0.8,0.7,1.4,1.6,1.8,2.6
		C640.2,131.7,640.5,132.7,640.5,133.9z M637.2,133.9c0-0.7-0.1-1.5-0.4-2.1c-0.2-0.7-0.5-1.3-1-1.8c-0.4-0.5-1-0.9-1.6-1.2
		c-0.6-0.3-1.4-0.5-2.2-0.5s-1.6,0.2-2.2,0.5c-0.6,0.3-1.2,0.7-1.6,1.2c-0.4,0.5-0.8,1.1-1,1.8c-0.2,0.7-0.3,1.4-0.3,2.1
		s0.1,1.5,0.3,2.1c0.2,0.7,0.6,1.3,1,1.8c0.4,0.5,1,0.9,1.6,1.2c0.7,0.3,1.4,0.5,2.2,0.5s1.6-0.2,2.2-0.5c0.7-0.3,1.2-0.7,1.6-1.2
		c0.4-0.5,0.8-1.1,1-1.8C637.1,135.4,637.2,134.7,637.2,133.9z"/>
	<path class="st1" d="M648.2,128.8c0.4-0.8,1-1.5,1.9-2.1c0.9-0.6,1.9-0.9,3.1-0.9c1.1,0,2,0.2,2.8,0.7c0.9,0.5,1.5,1.3,2,2.4
		c0.5-1,1.3-1.8,2.2-2.3c0.9-0.5,2-0.8,3.1-0.8c1,0,1.9,0.2,2.6,0.5c0.7,0.3,1.3,0.8,1.8,1.3c0.5,0.6,0.8,1.2,1,2
		c0.2,0.8,0.4,1.6,0.4,2.5v9.6h-3.1v-8.6c0-0.6-0.1-1.2-0.2-1.8c-0.1-0.6-0.3-1.1-0.6-1.5c-0.3-0.4-0.6-0.8-1-1
		c-0.4-0.3-1-0.4-1.7-0.4c-0.7,0-1.3,0.2-1.8,0.5c-0.5,0.3-0.9,0.7-1.2,1.1c-0.3,0.5-0.5,1-0.7,1.6c-0.1,0.6-0.2,1.2-0.2,1.8v8.4
		h-3.1v-9.2c0-0.6-0.1-1.2-0.2-1.7c-0.1-0.5-0.3-0.9-0.6-1.3c-0.3-0.4-0.6-0.7-1-0.9c-0.4-0.2-0.9-0.3-1.5-0.3
		c-1.1,0-2.1,0.5-2.9,1.4c-0.7,0.9-1.1,2.2-1.1,3.7v8.3h-3.1v-12.2c0-0.4,0-0.9,0-1.6c0-0.7-0.1-1.2-0.1-1.7h2.9
		c0,0.4,0.1,0.8,0.1,1.3C648,128,648.1,128.4,648.2,128.8L648.2,128.8z"/>
	<path class="st1" d="M677.7,149.6h-3.1v-23.4h3v2.4h0.1c0.5-0.8,1.2-1.5,2.2-2c1-0.5,2.1-0.8,3.4-0.8c1.2,0,2.2,0.2,3.1,0.6
		c1,0.4,1.8,1,2.5,1.7c0.7,0.7,1.2,1.6,1.6,2.6c0.4,1,0.6,2,0.6,3.2c0,1.1-0.2,2.2-0.6,3.2c-0.4,1-0.9,1.9-1.6,2.6
		c-0.7,0.7-1.5,1.3-2.5,1.8c-1,0.4-2,0.6-3.2,0.6c-1.1,0-2.2-0.2-3.1-0.7c-1-0.5-1.8-1.2-2.3-2h-0.1V149.6z M687.9,133.9
		c0-0.7-0.1-1.4-0.3-2.1c-0.2-0.7-0.5-1.3-1-1.8c-0.4-0.5-1-0.9-1.6-1.2c-0.6-0.3-1.4-0.5-2.2-0.5c-0.8,0-1.5,0.2-2.2,0.5
		c-0.6,0.3-1.2,0.7-1.6,1.2c-0.5,0.5-0.8,1.1-1.1,1.8c-0.2,0.7-0.4,1.4-0.4,2.1c0,0.7,0.1,1.5,0.4,2.1c0.3,0.7,0.6,1.3,1.1,1.8
		c0.5,0.5,1,0.9,1.6,1.2c0.7,0.3,1.4,0.5,2.2,0.5c0.9,0,1.6-0.2,2.2-0.5c0.7-0.3,1.2-0.8,1.6-1.3c0.4-0.5,0.8-1.1,1-1.8
		C687.8,135.4,687.9,134.7,687.9,133.9z"/>
	<path class="st1" d="M706.1,131.7c0-1.2-0.3-2-1-2.6c-0.7-0.6-1.6-0.9-2.8-0.9c-0.9,0-1.7,0.2-2.5,0.5c-0.8,0.3-1.4,0.8-1.9,1.3
		l-1.6-2c0.8-0.7,1.7-1.3,2.8-1.7c1.1-0.4,2.3-0.6,3.6-0.6c1.1,0,2.1,0.2,2.9,0.5c0.8,0.3,1.5,0.7,2,1.3c0.5,0.5,0.9,1.2,1.2,1.9
		c0.3,0.7,0.4,1.5,0.4,2.4v6.8c0,0.5,0,1.1,0,1.7c0,0.6,0.1,1,0.2,1.4h-2.8c-0.2-0.7-0.3-1.5-0.3-2.2h-0.1c-0.6,0.8-1.3,1.5-2.2,1.9
		c-0.9,0.5-1.9,0.7-3,0.7c-0.6,0-1.3-0.1-1.9-0.3c-0.7-0.2-1.3-0.4-1.8-0.8c-0.5-0.4-1-0.9-1.4-1.5c-0.3-0.6-0.5-1.4-0.5-2.3
		c0-1.2,0.3-2.1,1-2.8c0.6-0.7,1.5-1.2,2.5-1.6c1-0.4,2.2-0.6,3.5-0.7c1.3-0.1,2.6-0.2,3.9-0.2V131.7z M705.3,134.3
		c-0.8,0-1.6,0-2.4,0.1c-0.8,0.1-1.6,0.2-2.2,0.4c-0.7,0.2-1.2,0.5-1.6,0.9c-0.4,0.4-0.7,0.9-0.7,1.6c0,0.5,0.1,0.8,0.3,1.1
		c0.2,0.3,0.4,0.6,0.8,0.8c0.3,0.2,0.6,0.3,1,0.4c0.4,0.1,0.8,0.1,1.1,0.1c1.4,0,2.5-0.4,3.3-1.3c0.8-0.9,1.2-2,1.2-3.3v-0.8H705.3z
		"/>
	<path class="st1" d="M718,126.2c0,0.4,0.1,0.8,0.1,1.3c0,0.5,0,0.9,0,1.2h0.1c0.2-0.4,0.5-0.8,0.8-1.1c0.3-0.4,0.7-0.7,1.2-1
		c0.4-0.3,0.9-0.5,1.4-0.7c0.5-0.2,1.1-0.2,1.6-0.2c1,0,1.9,0.2,2.6,0.5c0.7,0.3,1.3,0.8,1.8,1.3c0.5,0.6,0.8,1.2,1,2
		c0.2,0.8,0.4,1.6,0.4,2.5v9.6H726v-8.6c0-0.6-0.1-1.2-0.2-1.8c-0.1-0.6-0.3-1.1-0.5-1.5c-0.3-0.4-0.6-0.8-1.1-1
		c-0.5-0.3-1-0.4-1.8-0.4c-1.2,0-2.2,0.5-3,1.4c-0.8,0.9-1.1,2.2-1.1,3.7v8.3h-3.1v-12.2c0-0.4,0-0.9,0-1.6c0-0.7-0.1-1.2-0.1-1.7
		H718z"/>
	<path class="st1" d="M741.4,138.4L741.4,138.4l4.4-12.2h3.3l-7.5,19.2c-0.3,0.7-0.5,1.2-0.9,1.7c-0.3,0.5-0.7,1-1.1,1.3
		c-0.4,0.4-0.9,0.7-1.5,0.9c-0.5,0.2-1.2,0.3-2,0.3c-0.3,0-0.7,0-1-0.1c-0.3,0-0.7-0.1-1-0.2l0.3-2.7c0.5,0.2,1,0.3,1.5,0.3
		c0.8,0,1.4-0.2,1.8-0.7c0.4-0.4,0.8-1.1,1.1-1.9l1-2.6l-6.7-15.5h3.4L741.4,138.4z"/>
</g>
</svg>
