<?xml version="1.0" encoding="UTF-8"?><svg id="Layer_2" xmlns="http://www.w3.org/2000/svg" viewBox="0 0 175.24 177.6"><defs><style>.cls-1{fill:#071412;fill-rule:evenodd;}</style></defs><g id="Layer_1-2"><path class="cls-1" d="m167.45,52.22C153.25,20.5,121.68,0,87.02,0c-9.11,0-18.03,1.42-26.65,4.18l7.32,15.53c6.28-1.79,12.75-2.72,19.33-2.72,13.24,0,25.91,3.74,36.82,10.35l-19.6,69.91-21.14-44.74-18.62,44.94-13.61-32.02-8.43,18,20.96,49.49,19.79-43.95,24.91,53.5,33.33-100.12c4.24,5.02,7.83,10.66,10.6,16.83,7.79,17.41,8.37,36.82,1.61,54.67-5.17,13.66-14.19,25.14-25.91,33.29l7.32,15.53c15.67-10.15,27.67-24.97,34.42-42.78,8.36-22.08,7.65-46.11-1.99-67.66Z"/><path class="cls-1" d="m113.91,155.31c-34.97,14.39-75.29-1.82-90.88-37.04-7.72-17.47-8.29-36.94-1.6-54.83,6.13-16.36,17.67-29.6,32.75-37.75l-7.13-15.47C28.01,20.26,13.43,36.84,5.74,57.38c-8.29,22.15-7.59,46.25,1.98,67.87,14.53,32.86,46.46,52.36,79.83,52.35,11.19,0,22.55-2.22,33.47-6.85l-7.11-15.44Z"/></g></svg>